<svg version="1.1" viewBox="0.0 0.0 600.0 371.0" fill="none" stroke="none" stroke-linecap="square" stroke-miterlimit="10" width="600" height="371" xmlns:xlink="http://www.w3.org/1999/xlink" xmlns="http://www.w3.org/2000/svg"><path fill="#ffffff" d="M0 0L600.0 0L600.0 371.0L0 371.0L0 0Z" fill-rule="nonzero"/><path stroke="#cccccc" stroke-width="1.0" stroke-linecap="butt" d="M147.5 89.5L147.5 298.5" fill-rule="nonzero"/><path stroke="#cccccc" stroke-width="1.0" stroke-linecap="butt" d="M250.5 89.5L250.5 298.5" fill-rule="nonzero"/><path stroke="#cccccc" stroke-width="1.0" stroke-linecap="butt" d="M354.5 89.5L354.5 298.5" fill-rule="nonzero"/><path stroke="#cccccc" stroke-width="1.0" stroke-linecap="butt" d="M457.5 89.5L457.5 298.5" fill-rule="nonzero"/><path stroke="#cccccc" stroke-width="1.0" stroke-linecap="butt" d="M560.5 89.5L560.5 298.5" fill-rule="nonzero"/><path stroke="#333333" stroke-width="1.0" stroke-linecap="butt" d="M54.5 298.5L581.5 298.5" fill-rule="nonzero"/><path stroke="#cccccc" stroke-width="1.0" stroke-linecap="butt" d="M54.5 246.5L581.5 246.5" fill-rule="nonzero"/><path stroke="#cccccc" stroke-width="1.0" stroke-linecap="butt" d="M54.5 194.5L581.5 194.5" fill-rule="nonzero"/><path stroke="#cccccc" stroke-width="1.0" stroke-linecap="butt" d="M54.5 141.5L581.5 141.5" fill-rule="nonzero"/><path stroke="#cccccc" stroke-width="1.0" stroke-linecap="butt" d="M54.5 89.5L581.5 89.5" fill-rule="nonzero"/><clipPath id="id_0"><path d="M54.55 89.78333L581.45 89.78333L581.45 298.45L54.55 298.45L54.55 89.78333Z" clip-rule="nonzero"/></clipPath><path fill="#4285f4" fill-opacity="0.3019608" clip-path="url(#id_0)" d="M54.55 180.73024L64.88137 170.6155L75.212746 172.80951L85.54412 178.68983L95.87549 177.4634L106.20686 182.82655L116.53824 181.75111L126.869606 179.56421L137.20097 183.35797L147.53235 183.60265L157.86372 185.81316L168.1951 186.77222L178.52647 187.72064L188.85785 186.56772L199.18921 189.2037L209.52058 183.60326L219.85196 183.33063L230.18333 179.59378L240.51471 181.3347L250.84608 187.38135L261.17746 192.17957L271.50882 191.50272L281.8402 187.02213L292.17157 188.48074L302.50293 188.38283L312.83432 188.71017L323.16568 188.80617L333.49707 194.0684L343.82843 192.98761L354.1598 199.17958L364.49118 199.02388L374.82254 197.55525L385.15393 197.00743L395.4853 195.11739L405.81668 196.1353L416.14804 196.46048L426.4794 200.49904L436.8108 204.56303L447.14215 203.3673L457.47354 202.24687L467.8049 204.24814L478.13626 206.34387L488.46765 206.82303L498.799 206.61891L509.1304 205.67776L519.4618 205.98479L529.79315 207.81874L540.1245 200.74915L550.4559 206.15172L560.78723 209.3355L571.11865 210.35551L581.45 204.82776L581.45 298.45L571.11865 298.45L560.78723 298.45L550.4559 298.45L540.1245 298.45L529.79315 298.45L519.4618 298.45L509.1304 298.45L498.799 298.45L488.46765 298.45L478.13626 298.45L467.8049 298.45L457.47354 298.45L447.14215 298.45L436.8108 298.45L426.4794 298.45L416.14804 298.45L405.81668 298.45L395.4853 298.45L385.15393 298.45L374.82254 298.45L364.49118 298.45L354.1598 298.45L343.82843 298.45L333.49707 298.45L323.16568 298.45L312.83432 298.45L302.50293 298.45L292.17157 298.45L281.8402 298.45L271.50882 298.45L261.17746 298.45L250.84608 298.45L240.51471 298.45L230.18333 298.45L219.85196 298.45L209.52058 298.45L199.18921 298.45L188.85785 298.45L178.52647 298.45L168.1951 298.45L157.86372 298.45L147.53235 298.45L137.20097 298.45L126.869606 298.45L116.53824 298.45L106.20686 298.45L95.87549 298.45L85.54412 298.45L75.212746 298.45L64.88137 298.45L54.55 298.45Z" fill-rule="nonzero"/><path fill="#db4437" fill-opacity="0.3019608" clip-path="url(#id_0)" d="M54.55 89.78333L64.88137 89.78333L75.212746 89.78333L85.54412 89.78333L95.87549 89.78333L106.20686 89.78333L116.53824 89.78333L126.869606 89.78333L137.20097 89.78333L147.53235 89.78333L157.86372 89.78333L168.1951 89.78333L178.52647 89.78333L188.85785 89.78333L199.18921 89.78333L209.52058 89.78333L219.85196 89.78333L230.18333 89.78333L240.51471 89.78333L250.84608 89.78333L261.17746 89.78333L271.50882 89.78333L281.8402 89.78333L292.17157 89.78333L302.50293 89.78333L312.83432 89.78333L323.16568 89.78333L333.49707 89.78333L343.82843 89.78333L354.1598 89.78333L364.49118 89.78333L374.82254 89.78333L385.15393 89.78333L395.4853 89.78333L405.81668 89.78333L416.14804 89.78333L426.4794 89.78333L436.8108 89.78333L447.14215 89.78333L457.47354 89.78333L467.8049 89.78333L478.13626 89.78333L488.46765 89.78333L498.799 89.78333L509.1304 89.78333L519.4618 89.78333L529.79315 89.78333L540.1245 89.78333L550.4559 89.78333L560.78723 89.78333L571.11865 89.78333L581.45 89.78333L581.45 204.82776L571.11865 210.35551L560.78723 209.3355L550.4559 206.15172L540.1245 200.74915L529.79315 207.81874L519.4618 205.98479L509.1304 205.67776L498.799 206.61891L488.46765 206.82303L478.13626 206.34387L467.8049 204.24814L457.47354 202.24687L447.14215 203.3673L436.8108 204.56303L426.4794 200.49904L416.14804 196.46048L405.81668 196.1353L395.4853 195.11739L385.15393 197.00743L374.82254 197.55525L364.49118 199.02388L354.1598 199.17958L343.82843 192.98761L333.49707 194.0684L323.16568 188.80617L312.83432 188.71017L302.50293 188.38283L292.17157 188.48074L281.8402 187.02213L271.50882 191.50272L261.17746 192.17957L250.84608 187.38135L240.51471 181.3347L230.18333 179.59378L219.85196 183.33063L209.52058 183.60326L199.18921 189.2037L188.85785 186.56772L178.52647 187.72064L168.1951 186.77222L157.86372 185.81316L147.53235 183.60265L137.20097 183.35797L126.869606 179.56421L116.53824 181.75111L106.20686 182.82655L95.87549 177.4634L85.54412 178.68983L75.212746 172.80951L64.88137 170.6155L54.55 180.73024Z" fill-rule="nonzero"/><path stroke="#4285f4" stroke-width="2.0" stroke-linecap="butt" clip-path="url(#id_0)" d="M54.55 180.73024L64.88137 170.6155L75.212746 172.80951L85.54412 178.68983L95.87549 177.4634L106.20686 182.82655L116.53824 181.75111L126.869606 179.56421L137.20097 183.35797L147.53235 183.60265L157.86372 185.81316L168.1951 186.77222L178.52647 187.72064L188.85785 186.56772L199.18921 189.2037L209.52058 183.60326L219.85196 183.33063L230.18333 179.59378L240.51471 181.3347L250.84608 187.38135L261.17746 192.17957L271.50882 191.50272L281.8402 187.02213L292.17157 188.48074L302.50293 188.38283L312.83432 188.71017L323.16568 188.80617L333.49707 194.0684L343.82843 192.98761L354.1598 199.17958L364.49118 199.02388L374.82254 197.55525L385.15393 197.00743L395.4853 195.11739L405.81668 196.1353L416.14804 196.46048L426.4794 200.49904L436.8108 204.56303L447.14215 203.3673L457.47354 202.24687L467.8049 204.24814L478.13626 206.34387L488.46765 206.82303L498.799 206.61891L509.1304 205.67776L519.4618 205.98479L529.79315 207.81874L540.1245 200.74915L550.4559 206.15172L560.78723 209.3355L571.11865 210.35551L581.45 204.82776" fill-rule="nonzero"/><path stroke="#db4437" stroke-width="2.0" stroke-linecap="butt" clip-path="url(#id_0)" d="M54.55 89.78333L64.88137 89.78333L75.212746 89.78333L85.54412 89.78333L95.87549 89.78333L106.20686 89.78333L116.53824 89.78333L126.869606 89.78333L137.20097 89.78333L147.53235 89.78333L157.86372 89.78333L168.1951 89.78333L178.52647 89.78333L188.85785 89.78333L199.18921 89.78333L209.52058 89.78333L219.85196 89.78333L230.18333 89.78333L240.51471 89.78333L250.84608 89.78333L261.17746 89.78333L271.50882 89.78333L281.8402 89.78333L292.17157 89.78333L302.50293 89.78333L312.83432 89.78333L323.16568 89.78333L333.49707 89.78333L343.82843 89.78333L354.1598 89.78333L364.49118 89.78333L374.82254 89.78333L385.15393 89.78333L395.4853 89.78333L405.81668 89.78333L416.14804 89.78333L426.4794 89.78333L436.8108 89.78333L447.14215 89.78333L457.47354 89.78333L467.8049 89.78333L478.13626 89.78333L488.46765 89.78333L498.799 89.78333L509.1304 89.78333L519.4618 89.78333L529.79315 89.78333L540.1245 89.78333L550.4559 89.78333L560.78723 89.78333L571.11865 89.78333L581.45 89.78333" fill-rule="nonzero"/><path fill="#000000" fill-opacity="0.0" clip-path="url(#id_0)" d="M57.55 180.73024C57.55 182.3871 56.206856 183.73024 54.55 183.73024C52.893147 183.73024 51.55 182.3871 51.55 180.73024C51.55 179.0734 52.893147 177.73024 54.55 177.73024C56.206856 177.73024 57.55 179.0734 57.55 180.73024Z" fill-rule="nonzero"/><path fill="#000000" fill-opacity="0.0" clip-path="url(#id_0)" d="M67.88137 170.6155C67.88137 172.27234 66.53822 173.6155 64.88137 173.6155C63.224518 173.6155 61.881374 172.27234 61.881374 170.6155C61.881374 168.95863 63.224518 167.6155 64.88137 167.6155C66.53822 167.6155 67.88137 168.95863 67.88137 170.6155Z" fill-rule="nonzero"/><path fill="#000000" fill-opacity="0.0" clip-path="url(#id_0)" d="M78.212746 172.80951C78.212746 174.46637 76.8696 175.80951 75.212746 175.80951C73.55589 175.80951 72.212746 174.46637 72.212746 172.80951C72.212746 171.15265 73.55589 169.80951 75.212746 169.80951C76.8696 169.80951 78.212746 171.15265 78.212746 172.80951Z" fill-rule="nonzero"/><path fill="#000000" fill-opacity="0.0" clip-path="url(#id_0)" d="M88.54412 178.68983C88.54412 180.34668 87.20097 181.68983 85.54412 181.68983C83.88726 181.68983 82.54412 180.34668 82.54412 178.68983C82.54412 177.03297 83.88726 175.68983 85.54412 175.68983C87.20097 175.68983 88.54412 177.03297 88.54412 178.68983Z" fill-rule="nonzero"/><path fill="#000000" fill-opacity="0.0" clip-path="url(#id_0)" d="M98.87549 177.4634C98.87549 179.12025 97.53234 180.4634 95.87549 180.4634C94.218636 180.4634 92.87549 179.12025 92.87549 177.4634C92.87549 175.80655 94.218636 174.4634 95.87549 174.4634C97.53234 174.4634 98.87549 175.80655 98.87549 177.4634Z" fill-rule="nonzero"/><path fill="#000000" fill-opacity="0.0" clip-path="url(#id_0)" d="M109.20686 182.82655C109.20686 184.48341 107.863716 185.82655 106.20686 185.82655C104.55001 185.82655 103.20686 184.48341 103.20686 182.82655C103.20686 181.16971 104.55001 179.82655 106.20686 179.82655C107.863716 179.82655 109.20686 181.16971 109.20686 182.82655Z" fill-rule="nonzero"/><path fill="#000000" fill-opacity="0.0" clip-path="url(#id_0)" d="M119.53824 181.75111C119.53824 183.40796 118.19509 184.75111 116.53824 184.75111C114.88138 184.75111 113.53824 183.40796 113.53824 181.75111C113.53824 180.09425 114.88138 178.75111 116.53824 178.75111C118.19509 178.75111 119.53824 180.09425 119.53824 181.75111Z" fill-rule="nonzero"/><path fill="#000000" fill-opacity="0.0" clip-path="url(#id_0)" d="M129.86961 179.56421C129.86961 181.22105 128.52646 182.56421 126.869606 182.56421C125.21275 182.56421 123.869606 181.22105 123.869606 179.56421C123.869606 177.90735 125.21275 176.56421 126.869606 176.56421C128.52646 176.56421 129.86961 177.90735 129.86961 179.56421Z" fill-rule="nonzero"/><path fill="#000000" fill-opacity="0.0" clip-path="url(#id_0)" d="M140.20097 183.35797C140.20097 185.01482 138.85783 186.35797 137.20097 186.35797C135.54413 186.35797 134.20097 185.01482 134.20097 183.35797C134.20097 181.70111 135.54413 180.35797 137.20097 180.35797C138.85783 180.35797 140.20097 181.70111 140.20097 183.35797Z" fill-rule="nonzero"/><path fill="#000000" fill-opacity="0.0" clip-path="url(#id_0)" d="M150.53235 183.60265C150.53235 185.2595 149.18921 186.60265 147.53235 186.60265C145.8755 186.60265 144.53235 185.2595 144.53235 183.60265C144.53235 181.9458 145.8755 180.60265 147.53235 180.60265C149.18921 180.60265 150.53235 181.9458 150.53235 183.60265Z" fill-rule="nonzero"/><path fill="#000000" fill-opacity="0.0" clip-path="url(#id_0)" d="M160.86372 185.81316C160.86372 187.47 159.52058 188.81316 157.86372 188.81316C156.20688 188.81316 154.86372 187.47 154.86372 185.81316C154.86372 184.1563 156.20688 182.81316 157.86372 182.81316C159.52058 182.81316 160.86372 184.1563 160.86372 185.81316Z" fill-rule="nonzero"/><path fill="#000000" fill-opacity="0.0" clip-path="url(#id_0)" d="M171.1951 186.77222C171.1951 188.42906 169.85196 189.77222 168.1951 189.77222C166.53824 189.77222 165.1951 188.42906 165.1951 186.77222C165.1951 185.11536 166.53824 183.77222 168.1951 183.77222C169.85196 183.77222 171.1951 185.11536 171.1951 186.77222Z" fill-rule="nonzero"/><path fill="#000000" fill-opacity="0.0" clip-path="url(#id_0)" d="M181.52647 187.72064C181.52647 189.37749 180.18332 190.72064 178.52647 190.72064C176.86961 190.72064 175.52647 189.37749 175.52647 187.72064C175.52647 186.06378 176.86961 184.72064 178.52647 184.72064C180.18332 184.72064 181.52647 186.06378 181.52647 187.72064Z" fill-rule="nonzero"/><path fill="#000000" fill-opacity="0.0" clip-path="url(#id_0)" d="M191.85785 186.56772C191.85785 188.22458 190.5147 189.56772 188.85785 189.56772C187.20099 189.56772 185.85785 188.22458 185.85785 186.56772C185.85785 184.91086 187.20099 183.56772 188.85785 183.56772C190.5147 183.56772 191.85785 184.91086 191.85785 186.56772Z" fill-rule="nonzero"/><path fill="#000000" fill-opacity="0.0" clip-path="url(#id_0)" d="M202.18921 189.2037C202.18921 190.86055 200.84607 192.2037 199.18921 192.2037C197.53236 192.2037 196.18921 190.86055 196.18921 189.2037C196.18921 187.54684 197.53236 186.2037 199.18921 186.2037C200.84607 186.2037 202.18921 187.54684 202.18921 189.2037Z" fill-rule="nonzero"/><path fill="#000000" fill-opacity="0.0" clip-path="url(#id_0)" d="M212.52058 183.60326C212.52058 185.26012 211.17744 186.60326 209.52058 186.60326C207.86374 186.60326 206.52058 185.26012 206.52058 183.60326C206.52058 181.94641 207.86374 180.60326 209.52058 180.60326C211.17744 180.60326 212.52058 181.94641 212.52058 183.60326Z" fill-rule="nonzero"/><path fill="#000000" fill-opacity="0.0" clip-path="url(#id_0)" d="M222.85196 183.33063C222.85196 184.98747 221.50882 186.33063 219.85196 186.33063C218.19511 186.33063 216.85196 184.98747 216.85196 183.33063C216.85196 181.67377 218.19511 180.33063 219.85196 180.33063C221.50882 180.33063 222.85196 181.67377 222.85196 183.33063Z" fill-rule="nonzero"/><path fill="#000000" fill-opacity="0.0" clip-path="url(#id_0)" d="M233.18333 179.59378C233.18333 181.25063 231.8402 182.59378 230.18333 182.59378C228.52647 182.59378 227.18333 181.25063 227.18333 179.59378C227.18333 177.93692 228.52647 176.59378 230.18333 176.59378C231.8402 176.59378 233.18333 177.93692 233.18333 179.59378Z" fill-rule="nonzero"/><path fill="#000000" fill-opacity="0.0" clip-path="url(#id_0)" d="M243.51471 181.3347C243.51471 182.99155 242.17155 184.3347 240.51471 184.3347C238.85785 184.3347 237.51471 182.99155 237.51471 181.3347C237.51471 179.67784 238.85785 178.3347 240.51471 178.3347C242.17155 178.3347 243.51471 179.67784 243.51471 181.3347Z" fill-rule="nonzero"/><path fill="#000000" fill-opacity="0.0" clip-path="url(#id_0)" d="M253.84608 187.38135C253.84608 189.03821 252.50293 190.38135 250.84608 190.38135C249.18922 190.38135 247.84608 189.03821 247.84608 187.38135C247.84608 185.7245 249.18922 184.38135 250.84608 184.38135C252.50293 184.38135 253.84608 185.7245 253.84608 187.38135Z" fill-rule="nonzero"/><path fill="#000000" fill-opacity="0.0" clip-path="url(#id_0)" d="M264.17746 192.17957C264.17746 193.83641 262.83432 195.17957 261.17746 195.17957C259.5206 195.17957 258.17746 193.83641 258.17746 192.17957C258.17746 190.5227 259.5206 189.17957 261.17746 189.17957C262.83432 189.17957 264.17746 190.5227 264.17746 192.17957Z" fill-rule="nonzero"/><path fill="#000000" fill-opacity="0.0" clip-path="url(#id_0)" d="M274.50882 191.50272C274.50882 193.15958 273.16568 194.50272 271.50882 194.50272C269.85196 194.50272 268.50882 193.15958 268.50882 191.50272C268.50882 189.84587 269.85196 188.50272 271.50882 188.50272C273.16568 188.50272 274.50882 189.84587 274.50882 191.50272Z" fill-rule="nonzero"/><path fill="#000000" fill-opacity="0.0" clip-path="url(#id_0)" d="M284.8402 187.02213C284.8402 188.67899 283.49704 190.02213 281.8402 190.02213C280.18335 190.02213 278.8402 188.67899 278.8402 187.02213C278.8402 185.36528 280.18335 184.02213 281.8402 184.02213C283.49704 184.02213 284.8402 185.36528 284.8402 187.02213Z" fill-rule="nonzero"/><path fill="#000000" fill-opacity="0.0" clip-path="url(#id_0)" d="M295.17157 188.48074C295.17157 190.1376 293.82843 191.48074 292.17157 191.48074C290.5147 191.48074 289.17157 190.1376 289.17157 188.48074C289.17157 186.82388 290.5147 185.48074 292.17157 185.48074C293.82843 185.48074 295.17157 186.82388 295.17157 188.48074Z" fill-rule="nonzero"/><path fill="#000000" fill-opacity="0.0" clip-path="url(#id_0)" d="M305.50293 188.38283C305.50293 190.03969 304.1598 191.38283 302.50293 191.38283C300.8461 191.38283 299.50293 190.03969 299.50293 188.38283C299.50293 186.72598 300.8461 185.38283 302.50293 185.38283C304.1598 185.38283 305.50293 186.72598 305.50293 188.38283Z" fill-rule="nonzero"/><path fill="#000000" fill-opacity="0.0" clip-path="url(#id_0)" d="M315.83432 188.71017C315.83432 190.36703 314.49118 191.71017 312.83432 191.71017C311.17746 191.71017 309.83432 190.36703 309.83432 188.71017C309.83432 187.05333 311.17746 185.71017 312.83432 185.71017C314.49118 185.71017 315.83432 187.05333 315.83432 188.71017Z" fill-rule="nonzero"/><path fill="#000000" fill-opacity="0.0" clip-path="url(#id_0)" d="M326.16568 188.80617C326.16568 190.46303 324.82254 191.80617 323.16568 191.80617C321.50882 191.80617 320.16568 190.46303 320.16568 188.80617C320.16568 187.14932 321.50882 185.80617 323.16568 185.80617C324.82254 185.80617 326.16568 187.14932 326.16568 188.80617Z" fill-rule="nonzero"/><path fill="#000000" fill-opacity="0.0" clip-path="url(#id_0)" d="M336.49707 194.0684C336.49707 195.72525 335.1539 197.0684 333.49707 197.0684C331.8402 197.0684 330.49707 195.72525 330.49707 194.0684C330.49707 192.41154 331.8402 191.0684 333.49707 191.0684C335.1539 191.0684 336.49707 192.41154 336.49707 194.0684Z" fill-rule="nonzero"/><path fill="#000000" fill-opacity="0.0" clip-path="url(#id_0)" d="M346.82843 192.98761C346.82843 194.64445 345.4853 195.98761 343.82843 195.98761C342.17157 195.98761 340.82843 194.64445 340.82843 192.98761C340.82843 191.33075 342.17157 189.98761 343.82843 189.98761C345.4853 189.98761 346.82843 191.33075 346.82843 192.98761Z" fill-rule="nonzero"/><path fill="#000000" fill-opacity="0.0" clip-path="url(#id_0)" d="M357.1598 199.17958C357.1598 200.83643 355.81665 202.17958 354.1598 202.17958C352.50296 202.17958 351.1598 200.83643 351.1598 199.17958C351.1598 197.52272 352.50296 196.17958 354.1598 196.17958C355.81665 196.17958 357.1598 197.52272 357.1598 199.17958Z" fill-rule="nonzero"/><path fill="#000000" fill-opacity="0.0" clip-path="url(#id_0)" d="M367.49118 199.02388C367.49118 200.68074 366.14804 202.02388 364.49118 202.02388C362.83432 202.02388 361.49118 200.68074 361.49118 199.02388C361.49118 197.36703 362.83432 196.02388 364.49118 196.02388C366.14804 196.02388 367.49118 197.36703 367.49118 199.02388Z" fill-rule="nonzero"/><path fill="#000000" fill-opacity="0.0" clip-path="url(#id_0)" d="M377.82254 197.55525C377.82254 199.2121 376.4794 200.55525 374.82254 200.55525C373.16568 200.55525 371.82254 199.2121 371.82254 197.55525C371.82254 195.89839 373.16568 194.55525 374.82254 194.55525C376.4794 194.55525 377.82254 195.89839 377.82254 197.55525Z" fill-rule="nonzero"/><path fill="#000000" fill-opacity="0.0" clip-path="url(#id_0)" d="M388.15393 197.00743C388.15393 198.66429 386.8108 200.00743 385.15393 200.00743C383.49707 200.00743 382.15393 198.66429 382.15393 197.00743C382.15393 195.35057 383.49707 194.00743 385.15393 194.00743C386.8108 194.00743 388.15393 195.35057 388.15393 197.00743Z" fill-rule="nonzero"/><path fill="#000000" fill-opacity="0.0" clip-path="url(#id_0)" d="M398.4853 195.11739C398.4853 196.77425 397.14215 198.11739 395.4853 198.11739C393.82843 198.11739 392.4853 196.77425 392.4853 195.11739C392.4853 193.46054 393.82843 192.11739 395.4853 192.11739C397.14215 192.11739 398.4853 193.46054 398.4853 195.11739Z" fill-rule="nonzero"/><path fill="#000000" fill-opacity="0.0" clip-path="url(#id_0)" d="M408.81668 196.1353C408.81668 197.79214 407.4735 199.1353 405.81668 199.1353C404.15982 199.1353 402.81668 197.79214 402.81668 196.1353C402.81668 194.47844 404.15982 193.1353 405.81668 193.1353C407.4735 193.1353 408.81668 194.47844 408.81668 196.1353Z" fill-rule="nonzero"/><path fill="#000000" fill-opacity="0.0" clip-path="url(#id_0)" d="M419.14804 196.46048C419.14804 198.11732 417.8049 199.46048 416.14804 199.46048C414.49118 199.46048 413.14804 198.11732 413.14804 196.46048C413.14804 194.80362 414.49118 193.46048 416.14804 193.46048C417.8049 193.46048 419.14804 194.80362 419.14804 196.46048Z" fill-rule="nonzero"/><path fill="#000000" fill-opacity="0.0" clip-path="url(#id_0)" d="M429.4794 200.49904C429.4794 202.15588 428.13626 203.49904 426.4794 203.49904C424.82257 203.49904 423.4794 202.15588 423.4794 200.49904C423.4794 198.84218 424.82257 197.49904 426.4794 197.49904C428.13626 197.49904 429.4794 198.84218 429.4794 200.49904Z" fill-rule="nonzero"/><path fill="#000000" fill-opacity="0.0" clip-path="url(#id_0)" d="M439.8108 204.56303C439.8108 206.2199 438.46765 207.56303 436.8108 207.56303C435.15393 207.56303 433.8108 206.2199 433.8108 204.56303C433.8108 202.90619 435.15393 201.56303 436.8108 201.56303C438.46765 201.56303 439.8108 202.90619 439.8108 204.56303Z" fill-rule="nonzero"/><path fill="#000000" fill-opacity="0.0" clip-path="url(#id_0)" d="M450.14215 203.3673C450.14215 205.02415 448.799 206.3673 447.14215 206.3673C445.4853 206.3673 444.14215 205.02415 444.14215 203.3673C444.14215 201.71045 445.4853 200.3673 447.14215 200.3673C448.799 200.3673 450.14215 201.71045 450.14215 203.3673Z" fill-rule="nonzero"/><path fill="#000000" fill-opacity="0.0" clip-path="url(#id_0)" d="M460.47354 202.24687C460.47354 203.90373 459.13037 205.24687 457.47354 205.24687C455.81668 205.24687 454.47354 203.90373 454.47354 202.24687C454.47354 200.59003 455.81668 199.24687 457.47354 199.24687C459.13037 199.24687 460.47354 200.59003 460.47354 202.24687Z" fill-rule="nonzero"/><path fill="#000000" fill-opacity="0.0" clip-path="url(#id_0)" d="M470.8049 204.24814C470.8049 205.90498 469.46176 207.24814 467.8049 207.24814C466.14804 207.24814 464.8049 205.90498 464.8049 204.24814C464.8049 202.59128 466.14804 201.24814 467.8049 201.24814C469.46176 201.24814 470.8049 202.59128 470.8049 204.24814Z" fill-rule="nonzero"/><path fill="#000000" fill-opacity="0.0" clip-path="url(#id_0)" d="M481.13626 206.34387C481.13626 208.00072 479.79312 209.34387 478.13626 209.34387C476.47943 209.34387 475.13626 208.00072 475.13626 206.34387C475.13626 204.68701 476.47943 203.34387 478.13626 203.34387C479.79312 203.34387 481.13626 204.68701 481.13626 206.34387Z" fill-rule="nonzero"/><path fill="#000000" fill-opacity="0.0" clip-path="url(#id_0)" d="M491.46765 206.82303C491.46765 208.47989 490.1245 209.82303 488.46765 209.82303C486.8108 209.82303 485.46765 208.47989 485.46765 206.82303C485.46765 205.16618 486.8108 203.82303 488.46765 203.82303C490.1245 203.82303 491.46765 205.16618 491.46765 206.82303Z" fill-rule="nonzero"/><path fill="#000000" fill-opacity="0.0" clip-path="url(#id_0)" d="M501.799 206.61891C501.799 208.27576 500.45587 209.61891 498.799 209.61891C497.14215 209.61891 495.799 208.27576 495.799 206.61891C495.799 204.96205 497.14215 203.61891 498.799 203.61891C500.45587 203.61891 501.799 204.96205 501.799 206.61891Z" fill-rule="nonzero"/><path fill="#000000" fill-opacity="0.0" clip-path="url(#id_0)" d="M512.1304 205.67776C512.1304 207.33463 510.78723 208.67776 509.1304 208.67776C507.47354 208.67776 506.1304 207.33463 506.1304 205.67776C506.1304 204.0209 507.47354 202.67776 509.1304 202.67776C510.78723 202.67776 512.1304 204.0209 512.1304 205.67776Z" fill-rule="nonzero"/><path fill="#000000" fill-opacity="0.0" clip-path="url(#id_0)" d="M522.4618 205.98479C522.4618 207.64163 521.1186 208.98479 519.4618 208.98479C517.80493 208.98479 516.4618 207.64163 516.4618 205.98479C516.4618 204.32793 517.80493 202.98479 519.4618 202.98479C521.1186 202.98479 522.4618 204.32793 522.4618 205.98479Z" fill-rule="nonzero"/><path fill="#000000" fill-opacity="0.0" clip-path="url(#id_0)" d="M532.79315 207.81874C532.79315 209.47559 531.45 210.81874 529.79315 210.81874C528.1363 210.81874 526.79315 209.47559 526.79315 207.81874C526.79315 206.16188 528.1363 204.81874 529.79315 204.81874C531.45 204.81874 532.79315 206.16188 532.79315 207.81874Z" fill-rule="nonzero"/><path fill="#000000" fill-opacity="0.0" clip-path="url(#id_0)" d="M543.1245 200.74915C543.1245 202.40599 541.7814 203.74915 540.1245 203.74915C538.46765 203.74915 537.1245 202.40599 537.1245 200.74915C537.1245 199.09229 538.46765 197.74915 540.1245 197.74915C541.7814 197.74915 543.1245 199.09229 543.1245 200.74915Z" fill-rule="nonzero"/><path fill="#000000" fill-opacity="0.0" clip-path="url(#id_0)" d="M553.4559 206.15172C553.4559 207.80858 552.11273 209.15172 550.4559 209.15172C548.799 209.15172 547.4559 207.80858 547.4559 206.15172C547.4559 204.49487 548.799 203.15172 550.4559 203.15172C552.11273 203.15172 553.4559 204.49487 553.4559 206.15172Z" fill-rule="nonzero"/><path fill="#000000" fill-opacity="0.0" clip-path="url(#id_0)" d="M563.78723 209.3355C563.78723 210.99234 562.4441 212.3355 560.78723 212.3355C559.1304 212.3355 557.78723 210.99234 557.78723 209.3355C557.78723 207.67863 559.1304 206.3355 560.78723 206.3355C562.4441 206.3355 563.78723 207.67863 563.78723 209.3355Z" fill-rule="nonzero"/><path fill="#000000" fill-opacity="0.0" clip-path="url(#id_0)" d="M574.11865 210.35551C574.11865 212.01237 572.77545 213.35551 571.11865 213.35551C569.4618 213.35551 568.11865 212.01237 568.11865 210.35551C568.11865 208.69865 569.4618 207.35551 571.11865 207.35551C572.77545 207.35551 574.11865 208.69865 574.11865 210.35551Z" fill-rule="nonzero"/><path fill="#000000" fill-opacity="0.0" clip-path="url(#id_0)" d="M584.45 204.82776C584.45 206.4846 583.1069 207.82776 581.45 207.82776C579.79315 207.82776 578.45 206.4846 578.45 204.82776C578.45 203.1709 579.79315 201.82776 581.45 201.82776C583.1069 201.82776 584.45 203.1709 584.45 204.82776Z" fill-rule="nonzero"/><path fill="#000000" fill-opacity="0.0" clip-path="url(#id_0)" d="M57.55 89.78333C57.55 91.440186 56.206856 92.78333 54.55 92.78333C52.893147 92.78333 51.55 91.440186 51.55 89.78333C51.55 88.12648 52.893147 86.78333 54.55 86.78333C56.206856 86.78333 57.55 88.12648 57.55 89.78333Z" fill-rule="nonzero"/><path fill="#000000" fill-opacity="0.0" clip-path="url(#id_0)" d="M67.88137 89.78333C67.88137 91.440186 66.53822 92.78333 64.88137 92.78333C63.224518 92.78333 61.881374 91.440186 61.881374 89.78333C61.881374 88.12648 63.224518 86.78333 64.88137 86.78333C66.53822 86.78333 67.88137 88.12648 67.88137 89.78333Z" fill-rule="nonzero"/><path fill="#000000" fill-opacity="0.0" clip-path="url(#id_0)" d="M78.212746 89.78333C78.212746 91.440186 76.8696 92.78333 75.212746 92.78333C73.55589 92.78333 72.212746 91.440186 72.212746 89.78333C72.212746 88.12648 73.55589 86.78333 75.212746 86.78333C76.8696 86.78333 78.212746 88.12648 78.212746 89.78333Z" fill-rule="nonzero"/><path fill="#000000" fill-opacity="0.0" clip-path="url(#id_0)" d="M88.54412 89.78333C88.54412 91.440186 87.20097 92.78333 85.54412 92.78333C83.88726 92.78333 82.54412 91.440186 82.54412 89.78333C82.54412 88.12648 83.88726 86.78333 85.54412 86.78333C87.20097 86.78333 88.54412 88.12648 88.54412 89.78333Z" fill-rule="nonzero"/><path fill="#000000" fill-opacity="0.0" clip-path="url(#id_0)" d="M98.87549 89.78333C98.87549 91.440186 97.53234 92.78333 95.87549 92.78333C94.218636 92.78333 92.87549 91.440186 92.87549 89.78333C92.87549 88.12648 94.218636 86.78333 95.87549 86.78333C97.53234 86.78333 98.87549 88.12648 98.87549 89.78333Z" fill-rule="nonzero"/><path fill="#000000" fill-opacity="0.0" clip-path="url(#id_0)" d="M109.20686 89.78333C109.20686 91.440186 107.863716 92.78333 106.20686 92.78333C104.55001 92.78333 103.20686 91.440186 103.20686 89.78333C103.20686 88.12648 104.55001 86.78333 106.20686 86.78333C107.863716 86.78333 109.20686 88.12648 109.20686 89.78333Z" fill-rule="nonzero"/><path fill="#000000" fill-opacity="0.0" clip-path="url(#id_0)" d="M119.53824 89.78333C119.53824 91.440186 118.19509 92.78333 116.53824 92.78333C114.88138 92.78333 113.53824 91.440186 113.53824 89.78333C113.53824 88.12648 114.88138 86.78333 116.53824 86.78333C118.19509 86.78333 119.53824 88.12648 119.53824 89.78333Z" fill-rule="nonzero"/><path fill="#000000" fill-opacity="0.0" clip-path="url(#id_0)" d="M129.86961 89.78333C129.86961 91.440186 128.52646 92.78333 126.869606 92.78333C125.21275 92.78333 123.869606 91.440186 123.869606 89.78333C123.869606 88.12648 125.21275 86.78333 126.869606 86.78333C128.52646 86.78333 129.86961 88.12648 129.86961 89.78333Z" fill-rule="nonzero"/><path fill="#000000" fill-opacity="0.0" clip-path="url(#id_0)" d="M140.20097 89.78333C140.20097 91.440186 138.85783 92.78333 137.20097 92.78333C135.54413 92.78333 134.20097 91.440186 134.20097 89.78333C134.20097 88.12648 135.54413 86.78333 137.20097 86.78333C138.85783 86.78333 140.20097 88.12648 140.20097 89.78333Z" fill-rule="nonzero"/><path fill="#000000" fill-opacity="0.0" clip-path="url(#id_0)" d="M150.53235 89.78333C150.53235 91.440186 149.18921 92.78333 147.53235 92.78333C145.8755 92.78333 144.53235 91.440186 144.53235 89.78333C144.53235 88.12648 145.8755 86.78333 147.53235 86.78333C149.18921 86.78333 150.53235 88.12648 150.53235 89.78333Z" fill-rule="nonzero"/><path fill="#000000" fill-opacity="0.0" clip-path="url(#id_0)" d="M160.86372 89.78333C160.86372 91.440186 159.52058 92.78333 157.86372 92.78333C156.20688 92.78333 154.86372 91.440186 154.86372 89.78333C154.86372 88.12648 156.20688 86.78333 157.86372 86.78333C159.52058 86.78333 160.86372 88.12648 160.86372 89.78333Z" fill-rule="nonzero"/><path fill="#000000" fill-opacity="0.0" clip-path="url(#id_0)" d="M171.1951 89.78333C171.1951 91.440186 169.85196 92.78333 168.1951 92.78333C166.53824 92.78333 165.1951 91.440186 165.1951 89.78333C165.1951 88.12648 166.53824 86.78333 168.1951 86.78333C169.85196 86.78333 171.1951 88.12648 171.1951 89.78333Z" fill-rule="nonzero"/><path fill="#000000" fill-opacity="0.0" clip-path="url(#id_0)" d="M181.52647 89.78333C181.52647 91.440186 180.18332 92.78333 178.52647 92.78333C176.86961 92.78333 175.52647 91.440186 175.52647 89.78333C175.52647 88.12648 176.86961 86.78333 178.52647 86.78333C180.18332 86.78333 181.52647 88.12648 181.52647 89.78333Z" fill-rule="nonzero"/><path fill="#000000" fill-opacity="0.0" clip-path="url(#id_0)" d="M191.85785 89.78333C191.85785 91.440186 190.5147 92.78333 188.85785 92.78333C187.20099 92.78333 185.85785 91.440186 185.85785 89.78333C185.85785 88.12648 187.20099 86.78333 188.85785 86.78333C190.5147 86.78333 191.85785 88.12648 191.85785 89.78333Z" fill-rule="nonzero"/><path fill="#000000" fill-opacity="0.0" clip-path="url(#id_0)" d="M202.18921 89.78333C202.18921 91.440186 200.84607 92.78333 199.18921 92.78333C197.53236 92.78333 196.18921 91.440186 196.18921 89.78333C196.18921 88.12648 197.53236 86.78333 199.18921 86.78333C200.84607 86.78333 202.18921 88.12648 202.18921 89.78333Z" fill-rule="nonzero"/><path fill="#000000" fill-opacity="0.0" clip-path="url(#id_0)" d="M212.52058 89.78333C212.52058 91.440186 211.17744 92.78333 209.52058 92.78333C207.86374 92.78333 206.52058 91.440186 206.52058 89.78333C206.52058 88.12648 207.86374 86.78333 209.52058 86.78333C211.17744 86.78333 212.52058 88.12648 212.52058 89.78333Z" fill-rule="nonzero"/><path fill="#000000" fill-opacity="0.0" clip-path="url(#id_0)" d="M222.85196 89.78333C222.85196 91.440186 221.50882 92.78333 219.85196 92.78333C218.19511 92.78333 216.85196 91.440186 216.85196 89.78333C216.85196 88.12648 218.19511 86.78333 219.85196 86.78333C221.50882 86.78333 222.85196 88.12648 222.85196 89.78333Z" fill-rule="nonzero"/><path fill="#000000" fill-opacity="0.0" clip-path="url(#id_0)" d="M233.18333 89.78333C233.18333 91.440186 231.8402 92.78333 230.18333 92.78333C228.52647 92.78333 227.18333 91.440186 227.18333 89.78333C227.18333 88.12648 228.52647 86.78333 230.18333 86.78333C231.8402 86.78333 233.18333 88.12648 233.18333 89.78333Z" fill-rule="nonzero"/><path fill="#000000" fill-opacity="0.0" clip-path="url(#id_0)" d="M243.51471 89.78333C243.51471 91.440186 242.17155 92.78333 240.51471 92.78333C238.85785 92.78333 237.51471 91.440186 237.51471 89.78333C237.51471 88.12648 238.85785 86.78333 240.51471 86.78333C242.17155 86.78333 243.51471 88.12648 243.51471 89.78333Z" fill-rule="nonzero"/><path fill="#000000" fill-opacity="0.0" clip-path="url(#id_0)" d="M253.84608 89.78333C253.84608 91.440186 252.50293 92.78333 250.84608 92.78333C249.18922 92.78333 247.84608 91.440186 247.84608 89.78333C247.84608 88.12648 249.18922 86.78333 250.84608 86.78333C252.50293 86.78333 253.84608 88.12648 253.84608 89.78333Z" fill-rule="nonzero"/><path fill="#000000" fill-opacity="0.0" clip-path="url(#id_0)" d="M264.17746 89.78333C264.17746 91.440186 262.83432 92.78333 261.17746 92.78333C259.5206 92.78333 258.17746 91.440186 258.17746 89.78333C258.17746 88.12648 259.5206 86.78333 261.17746 86.78333C262.83432 86.78333 264.17746 88.12648 264.17746 89.78333Z" fill-rule="nonzero"/><path fill="#000000" fill-opacity="0.0" clip-path="url(#id_0)" d="M274.50882 89.78333C274.50882 91.440186 273.16568 92.78333 271.50882 92.78333C269.85196 92.78333 268.50882 91.440186 268.50882 89.78333C268.50882 88.12648 269.85196 86.78333 271.50882 86.78333C273.16568 86.78333 274.50882 88.12648 274.50882 89.78333Z" fill-rule="nonzero"/><path fill="#000000" fill-opacity="0.0" clip-path="url(#id_0)" d="M284.8402 89.78333C284.8402 91.440186 283.49704 92.78333 281.8402 92.78333C280.18335 92.78333 278.8402 91.440186 278.8402 89.78333C278.8402 88.12648 280.18335 86.78333 281.8402 86.78333C283.49704 86.78333 284.8402 88.12648 284.8402 89.78333Z" fill-rule="nonzero"/><path fill="#000000" fill-opacity="0.0" clip-path="url(#id_0)" d="M295.17157 89.78333C295.17157 91.440186 293.82843 92.78333 292.17157 92.78333C290.5147 92.78333 289.17157 91.440186 289.17157 89.78333C289.17157 88.12648 290.5147 86.78333 292.17157 86.78333C293.82843 86.78333 295.17157 88.12648 295.17157 89.78333Z" fill-rule="nonzero"/><path fill="#000000" fill-opacity="0.0" clip-path="url(#id_0)" d="M305.50293 89.78333C305.50293 91.440186 304.1598 92.78333 302.50293 92.78333C300.8461 92.78333 299.50293 91.440186 299.50293 89.78333C299.50293 88.12648 300.8461 86.78333 302.50293 86.78333C304.1598 86.78333 305.50293 88.12648 305.50293 89.78333Z" fill-rule="nonzero"/><path fill="#000000" fill-opacity="0.0" clip-path="url(#id_0)" d="M315.83432 89.78333C315.83432 91.440186 314.49118 92.78333 312.83432 92.78333C311.17746 92.78333 309.83432 91.440186 309.83432 89.78333C309.83432 88.12648 311.17746 86.78333 312.83432 86.78333C314.49118 86.78333 315.83432 88.12648 315.83432 89.78333Z" fill-rule="nonzero"/><path fill="#000000" fill-opacity="0.0" clip-path="url(#id_0)" d="M326.16568 89.78333C326.16568 91.440186 324.82254 92.78333 323.16568 92.78333C321.50882 92.78333 320.16568 91.440186 320.16568 89.78333C320.16568 88.12648 321.50882 86.78333 323.16568 86.78333C324.82254 86.78333 326.16568 88.12648 326.16568 89.78333Z" fill-rule="nonzero"/><path fill="#000000" fill-opacity="0.0" clip-path="url(#id_0)" d="M336.49707 89.78333C336.49707 91.440186 335.1539 92.78333 333.49707 92.78333C331.8402 92.78333 330.49707 91.440186 330.49707 89.78333C330.49707 88.12648 331.8402 86.78333 333.49707 86.78333C335.1539 86.78333 336.49707 88.12648 336.49707 89.78333Z" fill-rule="nonzero"/><path fill="#000000" fill-opacity="0.0" clip-path="url(#id_0)" d="M346.82843 89.78333C346.82843 91.440186 345.4853 92.78333 343.82843 92.78333C342.17157 92.78333 340.82843 91.440186 340.82843 89.78333C340.82843 88.12648 342.17157 86.78333 343.82843 86.78333C345.4853 86.78333 346.82843 88.12648 346.82843 89.78333Z" fill-rule="nonzero"/><path fill="#000000" fill-opacity="0.0" clip-path="url(#id_0)" d="M357.1598 89.78333C357.1598 91.440186 355.81665 92.78333 354.1598 92.78333C352.50296 92.78333 351.1598 91.440186 351.1598 89.78333C351.1598 88.12648 352.50296 86.78333 354.1598 86.78333C355.81665 86.78333 357.1598 88.12648 357.1598 89.78333Z" fill-rule="nonzero"/><path fill="#000000" fill-opacity="0.0" clip-path="url(#id_0)" d="M367.49118 89.78333C367.49118 91.440186 366.14804 92.78333 364.49118 92.78333C362.83432 92.78333 361.49118 91.440186 361.49118 89.78333C361.49118 88.12648 362.83432 86.78333 364.49118 86.78333C366.14804 86.78333 367.49118 88.12648 367.49118 89.78333Z" fill-rule="nonzero"/><path fill="#000000" fill-opacity="0.0" clip-path="url(#id_0)" d="M377.82254 89.78333C377.82254 91.440186 376.4794 92.78333 374.82254 92.78333C373.16568 92.78333 371.82254 91.440186 371.82254 89.78333C371.82254 88.12648 373.16568 86.78333 374.82254 86.78333C376.4794 86.78333 377.82254 88.12648 377.82254 89.78333Z" fill-rule="nonzero"/><path fill="#000000" fill-opacity="0.0" clip-path="url(#id_0)" d="M388.15393 89.78333C388.15393 91.440186 386.8108 92.78333 385.15393 92.78333C383.49707 92.78333 382.15393 91.440186 382.15393 89.78333C382.15393 88.12648 383.49707 86.78333 385.15393 86.78333C386.8108 86.78333 388.15393 88.12648 388.15393 89.78333Z" fill-rule="nonzero"/><path fill="#000000" fill-opacity="0.0" clip-path="url(#id_0)" d="M398.4853 89.78333C398.4853 91.440186 397.14215 92.78333 395.4853 92.78333C393.82843 92.78333 392.4853 91.440186 392.4853 89.78333C392.4853 88.12648 393.82843 86.78333 395.4853 86.78333C397.14215 86.78333 398.4853 88.12648 398.4853 89.78333Z" fill-rule="nonzero"/><path fill="#000000" fill-opacity="0.0" clip-path="url(#id_0)" d="M408.81668 89.78333C408.81668 91.440186 407.4735 92.78333 405.81668 92.78333C404.15982 92.78333 402.81668 91.440186 402.81668 89.78333C402.81668 88.12648 404.15982 86.78333 405.81668 86.78333C407.4735 86.78333 408.81668 88.12648 408.81668 89.78333Z" fill-rule="nonzero"/><path fill="#000000" fill-opacity="0.0" clip-path="url(#id_0)" d="M419.14804 89.78333C419.14804 91.440186 417.8049 92.78333 416.14804 92.78333C414.49118 92.78333 413.14804 91.440186 413.14804 89.78333C413.14804 88.12648 414.49118 86.78333 416.14804 86.78333C417.8049 86.78333 419.14804 88.12648 419.14804 89.78333Z" fill-rule="nonzero"/><path fill="#000000" fill-opacity="0.0" clip-path="url(#id_0)" d="M429.4794 89.78333C429.4794 91.440186 428.13626 92.78333 426.4794 92.78333C424.82257 92.78333 423.4794 91.440186 423.4794 89.78333C423.4794 88.12648 424.82257 86.78333 426.4794 86.78333C428.13626 86.78333 429.4794 88.12648 429.4794 89.78333Z" fill-rule="nonzero"/><path fill="#000000" fill-opacity="0.0" clip-path="url(#id_0)" d="M439.8108 89.78333C439.8108 91.440186 438.46765 92.78333 436.8108 92.78333C435.15393 92.78333 433.8108 91.440186 433.8108 89.78333C433.8108 88.12648 435.15393 86.78333 436.8108 86.78333C438.46765 86.78333 439.8108 88.12648 439.8108 89.78333Z" fill-rule="nonzero"/><path fill="#000000" fill-opacity="0.0" clip-path="url(#id_0)" d="M450.14215 89.78333C450.14215 91.440186 448.799 92.78333 447.14215 92.78333C445.4853 92.78333 444.14215 91.440186 444.14215 89.78333C444.14215 88.12648 445.4853 86.78333 447.14215 86.78333C448.799 86.78333 450.14215 88.12648 450.14215 89.78333Z" fill-rule="nonzero"/><path fill="#000000" fill-opacity="0.0" clip-path="url(#id_0)" d="M460.47354 89.78333C460.47354 91.440186 459.13037 92.78333 457.47354 92.78333C455.81668 92.78333 454.47354 91.440186 454.47354 89.78333C454.47354 88.12648 455.81668 86.78333 457.47354 86.78333C459.13037 86.78333 460.47354 88.12648 460.47354 89.78333Z" fill-rule="nonzero"/><path fill="#000000" fill-opacity="0.0" clip-path="url(#id_0)" d="M470.8049 89.78333C470.8049 91.440186 469.46176 92.78333 467.8049 92.78333C466.14804 92.78333 464.8049 91.440186 464.8049 89.78333C464.8049 88.12648 466.14804 86.78333 467.8049 86.78333C469.46176 86.78333 470.8049 88.12648 470.8049 89.78333Z" fill-rule="nonzero"/><path fill="#000000" fill-opacity="0.0" clip-path="url(#id_0)" d="M481.13626 89.78333C481.13626 91.440186 479.79312 92.78333 478.13626 92.78333C476.47943 92.78333 475.13626 91.440186 475.13626 89.78333C475.13626 88.12648 476.47943 86.78333 478.13626 86.78333C479.79312 86.78333 481.13626 88.12648 481.13626 89.78333Z" fill-rule="nonzero"/><path fill="#000000" fill-opacity="0.0" clip-path="url(#id_0)" d="M491.46765 89.78333C491.46765 91.440186 490.1245 92.78333 488.46765 92.78333C486.8108 92.78333 485.46765 91.440186 485.46765 89.78333C485.46765 88.12648 486.8108 86.78333 488.46765 86.78333C490.1245 86.78333 491.46765 88.12648 491.46765 89.78333Z" fill-rule="nonzero"/><path fill="#000000" fill-opacity="0.0" clip-path="url(#id_0)" d="M501.799 89.78333C501.799 91.440186 500.45587 92.78333 498.799 92.78333C497.14215 92.78333 495.799 91.440186 495.799 89.78333C495.799 88.12648 497.14215 86.78333 498.799 86.78333C500.45587 86.78333 501.799 88.12648 501.799 89.78333Z" fill-rule="nonzero"/><path fill="#000000" fill-opacity="0.0" clip-path="url(#id_0)" d="M512.1304 89.78333C512.1304 91.440186 510.78723 92.78333 509.1304 92.78333C507.47354 92.78333 506.1304 91.440186 506.1304 89.78333C506.1304 88.12648 507.47354 86.78333 509.1304 86.78333C510.78723 86.78333 512.1304 88.12648 512.1304 89.78333Z" fill-rule="nonzero"/><path fill="#000000" fill-opacity="0.0" clip-path="url(#id_0)" d="M522.4618 89.78333C522.4618 91.440186 521.1186 92.78333 519.4618 92.78333C517.80493 92.78333 516.4618 91.440186 516.4618 89.78333C516.4618 88.12648 517.80493 86.78333 519.4618 86.78333C521.1186 86.78333 522.4618 88.12648 522.4618 89.78333Z" fill-rule="nonzero"/><path fill="#000000" fill-opacity="0.0" clip-path="url(#id_0)" d="M532.79315 89.78333C532.79315 91.440186 531.45 92.78333 529.79315 92.78333C528.1363 92.78333 526.79315 91.440186 526.79315 89.78333C526.79315 88.12648 528.1363 86.78333 529.79315 86.78333C531.45 86.78333 532.79315 88.12648 532.79315 89.78333Z" fill-rule="nonzero"/><path fill="#000000" fill-opacity="0.0" clip-path="url(#id_0)" d="M543.1245 89.78333C543.1245 91.440186 541.7814 92.78333 540.1245 92.78333C538.46765 92.78333 537.1245 91.440186 537.1245 89.78333C537.1245 88.12648 538.46765 86.78333 540.1245 86.78333C541.7814 86.78333 543.1245 88.12648 543.1245 89.78333Z" fill-rule="nonzero"/><path fill="#000000" fill-opacity="0.0" clip-path="url(#id_0)" d="M553.4559 89.78333C553.4559 91.440186 552.11273 92.78333 550.4559 92.78333C548.799 92.78333 547.4559 91.440186 547.4559 89.78333C547.4559 88.12648 548.799 86.78333 550.4559 86.78333C552.11273 86.78333 553.4559 88.12648 553.4559 89.78333Z" fill-rule="nonzero"/><path fill="#000000" fill-opacity="0.0" clip-path="url(#id_0)" d="M563.78723 89.78333C563.78723 91.440186 562.4441 92.78333 560.78723 92.78333C559.1304 92.78333 557.78723 91.440186 557.78723 89.78333C557.78723 88.12648 559.1304 86.78333 560.78723 86.78333C562.4441 86.78333 563.78723 88.12648 563.78723 89.78333Z" fill-rule="nonzero"/><path fill="#000000" fill-opacity="0.0" clip-path="url(#id_0)" d="M574.11865 89.78333C574.11865 91.440186 572.77545 92.78333 571.11865 92.78333C569.4618 92.78333 568.11865 91.440186 568.11865 89.78333C568.11865 88.12648 569.4618 86.78333 571.11865 86.78333C572.77545 86.78333 574.11865 88.12648 574.11865 89.78333Z" fill-rule="nonzero"/><path fill="#000000" fill-opacity="0.0" clip-path="url(#id_0)" d="M584.45 89.78333C584.45 91.440186 583.1069 92.78333 581.45 92.78333C579.79315 92.78333 578.45 91.440186 578.45 89.78333C578.45 88.12648 579.79315 86.78333 581.45 86.78333C583.1069 86.78333 584.45 88.12648 584.45 89.78333Z" fill-rule="nonzero"/><path fill="#424242" d="M310.9375 347.95L312.15625 343.10626L313.23438 343.10626L311.39062 349.45L310.51562 349.45L308.96875 344.6375L307.46875 349.45L306.59375 349.45L304.75 343.10626L305.82812 343.10626L307.07812 347.85626L308.5625 343.10626L309.42188 343.10626L310.9375 347.95ZM316.95312 349.575Q315.65625 349.575 314.84375 348.73126Q314.04688 347.8719 314.04688 346.45L314.04688 346.2625Q314.04688 345.3094 314.40625 344.575Q314.76562 343.825 315.40625 343.41876Q316.0625 342.9969 316.8125 342.9969Q318.04688 342.9969 318.73438 343.8094Q319.42188 344.6219 319.42188 346.1375L319.42188 346.59064L315.125 346.59064Q315.15625 347.52814 315.67188 348.10626Q316.20312 348.6844 317.01562 348.6844Q317.57812 348.6844 317.96875 348.45Q318.375 348.21564 318.6875 347.825L319.34375 348.34064Q318.54688 349.575 316.95312 349.575ZM316.8125 343.8875Q316.15625 343.8875 315.70312 344.3719Q315.26562 344.84064 315.17188 345.7L318.34375 345.7L318.34375 345.6219Q318.29688 344.79376 317.89062 344.34064Q317.5 343.8875 316.8125 343.8875ZM322.95312 349.575Q321.65625 349.575 320.84375 348.73126Q320.04688 347.8719 320.04688 346.45L320.04688 346.2625Q320.04688 345.3094 320.40625 344.575Q320.76562 343.825 321.40625 343.41876Q322.0625 342.9969 322.8125 342.9969Q324.04688 342.9969 324.73438 343.8094Q325.42188 344.6219 325.42188 346.1375L325.42188 346.59064L321.125 346.59064Q321.15625 347.52814 321.67188 348.10626Q322.20312 348.6844 323.01562 348.6844Q323.57812 348.6844 323.96875 348.45Q324.375 348.21564 324.6875 347.825L325.34375 348.34064Q324.54688 349.575 322.95312 349.575ZM322.8125 343.8875Q322.15625 343.8875 321.70312 344.3719Q321.26562 344.84064 321.17188 345.7L324.34375 345.7L324.34375 345.6219Q324.29688 344.79376 323.89062 344.34064Q323.5 343.8875 322.8125 343.8875ZM328.09375 346.5125L327.40625 347.21564L327.40625 349.45L326.32812 349.45L326.32812 340.45L327.40625 340.45L327.40625 345.8875L327.98438 345.2L329.96875 343.10626L331.28125 343.10626L328.8125 345.7625L331.57812 349.45L330.29688 349.45L328.09375 346.5125Z" fill-rule="nonzero"/><path fill="#757575" d="M38.6125 299.3094Q38.6125 301.21564 37.95625 302.15314Q37.315624 303.075 35.925 303.075Q34.565624 303.075 33.909374 302.16876Q33.253124 301.2625 33.221874 299.45L33.221874 298.0125Q33.221874 296.1219 33.8625 295.21564Q34.51875 294.29376 35.909374 294.29376Q37.284374 294.29376 37.940624 295.1844Q38.596874 296.0594 38.6125 297.90314L38.6125 299.3094ZM37.51875 297.825Q37.51875 296.45 37.128124 295.825Q36.753124 295.1844 35.909374 295.1844Q35.08125 295.1844 34.690624 295.825Q34.315624 296.45 34.315624 297.7469L34.315624 299.48126Q34.315624 300.85626 34.70625 301.52814Q35.1125 302.1844 35.925 302.1844Q36.721874 302.1844 37.1125 301.5594Q37.503124 300.9344 37.51875 299.60626L37.51875 297.825ZM40.159374 296.0594Q40.159374 295.29376 40.64375 294.79376Q41.14375 294.29376 41.909374 294.29376Q42.690624 294.29376 43.175 294.79376Q43.659374 295.29376 43.659374 296.09064L43.659374 296.5125Q43.659374 297.27814 43.159374 297.77814Q42.675 298.2625 41.925 298.2625Q41.159374 298.2625 40.659374 297.77814Q40.159374 297.27814 40.159374 296.46564L40.159374 296.0594ZM40.971874 296.5125Q40.971874 296.96564 41.221874 297.2625Q41.4875 297.5594 41.925 297.5594Q42.346874 297.5594 42.596874 297.27814Q42.846874 296.98126 42.846874 296.48126L42.846874 296.0594Q42.846874 295.60626 42.596874 295.3094Q42.346874 294.9969 41.909374 294.9969Q41.471874 294.9969 41.221874 295.3094Q40.971874 295.60626 40.971874 296.075L40.971874 296.5125ZM44.315624 300.85626Q44.315624 300.09064 44.8 299.60626Q45.3 299.10626 46.065624 299.10626Q46.83125 299.10626 47.315624 299.60626Q47.815624 300.09064 47.815624 300.90314L47.815624 301.3094Q47.815624 302.075 47.33125 302.575Q46.846874 303.075 46.08125 303.075Q45.315624 303.075 44.815624 302.59064Q44.315624 302.09064 44.315624 301.27814L44.315624 300.85626ZM45.128124 301.3094Q45.128124 301.77814 45.378124 302.075Q45.64375 302.3719 46.08125 302.3719Q46.503124 302.3719 46.753124 302.09064Q47.003124 301.79376 47.003124 301.29376L47.003124 300.85626Q47.003124 300.3875 46.7375 300.10626Q46.4875 299.8094 46.065624 299.8094Q45.64375 299.8094 45.378124 300.10626Q45.128124 300.3875 45.128124 300.8875L45.128124 301.3094ZM42.175 302.3094L41.55 301.91876L45.721874 295.2469L46.33125 295.6375L42.175 302.3094Z" fill-rule="nonzero"/><path fill="#757575" d="M31.846874 250.78334L26.253124 250.78334L26.253124 250.00209L29.20625 246.72084Q29.8625 245.97084 30.1125 245.51772Q30.3625 245.04897 30.3625 244.54897Q30.3625 243.87709 29.95625 243.45522Q29.565624 243.01772 28.878124 243.01772Q28.08125 243.01772 27.628124 243.48647Q27.175 243.93959 27.175 244.76772L26.096874 244.76772Q26.096874 243.58022 26.846874 242.86147Q27.6125 242.12709 28.878124 242.12709Q30.08125 242.12709 30.76875 242.75209Q31.45625 243.37709 31.45625 244.42397Q31.45625 245.67397 29.846874 247.42397L27.565624 249.89272L31.846874 249.89272L31.846874 250.78334ZM33.753124 246.50209L34.190624 242.25209L38.565624 242.25209L38.565624 243.25209L35.1125 243.25209L34.846874 245.58022Q35.4875 245.20522 36.284374 245.20522Q37.440624 245.20522 38.128124 245.98647Q38.815624 246.75209 38.815624 248.06459Q38.815624 249.37709 38.096874 250.14272Q37.39375 250.90834 36.1125 250.90834Q34.9875 250.90834 34.26875 250.28334Q33.55 249.64272 33.45625 248.53334L34.471874 248.53334Q34.58125 249.26772 35.003124 249.64272Q35.425 250.01772 36.1125 250.01772Q36.8625 250.01772 37.3 249.50209Q37.7375 248.98647 37.7375 248.08022Q37.7375 247.22084 37.26875 246.70522Q36.8 246.18959 36.01875 246.18959Q35.315624 246.18959 34.909374 246.48647L34.628124 246.72084L33.753124 246.50209ZM40.159374 243.89272Q40.159374 243.12709 40.64375 242.62709Q41.14375 242.12709 41.909374 242.12709Q42.690624 242.12709 43.175 242.62709Q43.659374 243.12709 43.659374 243.92397L43.659374 244.34584Q43.659374 245.11147 43.159374 245.61147Q42.675 246.09584 41.925 246.09584Q41.159374 246.09584 40.659374 245.61147Q40.159374 245.11147 40.159374 244.29897L40.159374 243.89272ZM40.971874 244.34584Q40.971874 244.79897 41.221874 245.09584Q41.4875 245.39272 41.925 245.39272Q42.346874 245.39272 42.596874 245.11147Q42.846874 244.81459 42.846874 244.31459L42.846874 243.89272Q42.846874 243.43959 42.596874 243.14272Q42.346874 242.83022 41.909374 242.83022Q41.471874 242.83022 41.221874 243.14272Q40.971874 243.43959 40.971874 243.90834L40.971874 244.34584ZM44.315624 248.68959Q44.315624 247.92397 44.8 247.43959Q45.3 246.93959 46.065624 246.93959Q46.83125 246.93959 47.315624 247.43959Q47.815624 247.92397 47.815624 248.73647L47.815624 249.14272Q47.815624 249.90834 47.33125 250.40834Q46.846874 250.90834 46.08125 250.90834Q45.315624 250.90834 44.815624 250.42397Q44.315624 249.92397 44.315624 249.11147L44.315624 248.68959ZM45.128124 249.14272Q45.128124 249.61147 45.378124 249.90834Q45.64375 250.20522 46.08125 250.20522Q46.503124 250.20522 46.753124 249.92397Q47.003124 249.62709 47.003124 249.12709L47.003124 248.68959Q47.003124 248.22084 46.7375 247.93959Q46.4875 247.64272 46.065624 247.64272Q45.64375 247.64272 45.378124 247.93959Q45.128124 248.22084 45.128124 248.72084L45.128124 249.14272ZM42.175 250.14272L41.55 249.75209L45.721874 243.08022L46.33125 243.47084L42.175 250.14272Z" fill-rule="nonzero"/><path fill="#757575" d="M26.753124 194.33542L27.190624 190.08542L31.565624 190.08542L31.565624 191.08542L28.1125 191.08542L27.846874 193.41354Q28.4875 193.03854 29.284374 193.03854Q30.440624 193.03854 31.128124 193.8198Q31.815624 194.58542 31.815624 195.89792Q31.815624 197.21042 31.096874 197.97604Q30.39375 198.74167 29.1125 198.74167Q27.9875 198.74167 27.26875 198.11667Q26.55 197.47604 26.45625 196.36667L27.471874 196.36667Q27.58125 197.10104 28.003124 197.47604Q28.425 197.85104 29.1125 197.85104Q29.8625 197.85104 30.3 197.33542Q30.7375 196.8198 30.7375 195.91354Q30.7375 195.05417 30.26875 194.53854Q29.8 194.02292 29.01875 194.02292Q28.315624 194.02292 27.909374 194.3198L27.628124 194.55417L26.753124 194.33542ZM38.6125 194.97604Q38.6125 196.8823 37.95625 197.8198Q37.315624 198.74167 35.925 198.74167Q34.565624 198.74167 33.909374 197.83542Q33.253124 196.92917 33.221874 195.11667L33.221874 193.67917Q33.221874 191.78854 33.8625 190.8823Q34.51875 189.96042 35.909374 189.96042Q37.284374 189.96042 37.940624 190.85104Q38.596874 191.72604 38.6125 193.5698L38.6125 194.97604ZM37.51875 193.49167Q37.51875 192.11667 37.128124 191.49167Q36.753124 190.85104 35.909374 190.85104Q35.08125 190.85104 34.690624 191.49167Q34.315624 192.11667 34.315624 193.41354L34.315624 195.14792Q34.315624 196.52292 34.70625 197.1948Q35.1125 197.85104 35.925 197.85104Q36.721874 197.85104 37.1125 197.22604Q37.503124 196.60104 37.51875 195.27292L37.51875 193.49167ZM40.159374 191.72604Q40.159374 190.96042 40.64375 190.46042Q41.14375 189.96042 41.909374 189.96042Q42.690624 189.96042 43.175 190.46042Q43.659374 190.96042 43.659374 191.7573L43.659374 192.17917Q43.659374 192.9448 43.159374 193.4448Q42.675 193.92917 41.925 193.92917Q41.159374 193.92917 40.659374 193.4448Q40.159374 192.9448 40.159374 192.1323L40.159374 191.72604ZM40.971874 192.17917Q40.971874 192.6323 41.221874 192.92917Q41.4875 193.22604 41.925 193.22604Q42.346874 193.22604 42.596874 192.9448Q42.846874 192.64792 42.846874 192.14792L42.846874 191.72604Q42.846874 191.27292 42.596874 190.97604Q42.346874 190.66354 41.909374 190.66354Q41.471874 190.66354 41.221874 190.97604Q40.971874 191.27292 40.971874 191.74167L40.971874 192.17917ZM44.315624 196.52292Q44.315624 195.7573 44.8 195.27292Q45.3 194.77292 46.065624 194.77292Q46.83125 194.77292 47.315624 195.27292Q47.815624 195.7573 47.815624 196.5698L47.815624 196.97604Q47.815624 197.74167 47.33125 198.24167Q46.846874 198.74167 46.08125 198.74167Q45.315624 198.74167 44.815624 198.2573Q44.315624 197.7573 44.315624 196.9448L44.315624 196.52292ZM45.128124 196.97604Q45.128124 197.4448 45.378124 197.74167Q45.64375 198.03854 46.08125 198.03854Q46.503124 198.03854 46.753124 197.7573Q47.003124 197.46042 47.003124 196.96042L47.003124 196.52292Q47.003124 196.05417 46.7375 195.77292Q46.4875 195.47604 46.065624 195.47604Q45.64375 195.47604 45.378124 195.77292Q45.128124 196.05417 45.128124 196.55417L45.128124 196.97604ZM42.175 197.97604L41.55 197.58542L45.721874 190.91354L46.33125 191.30417L42.175 197.97604Z" fill-rule="nonzero"/><path fill="#757575" d="M31.76875 138.52812L28.2375 146.45L27.096874 146.45L30.6125 138.80937L26.003124 138.80937L26.003124 137.91875L31.76875 137.91875L31.76875 138.52812ZM33.753124 142.16875L34.190624 137.91875L38.565624 137.91875L38.565624 138.91875L35.1125 138.91875L34.846874 141.24687Q35.4875 140.87187 36.284374 140.87187Q37.440624 140.87187 38.128124 141.65312Q38.815624 142.41875 38.815624 143.73125Q38.815624 145.04375 38.096874 145.80937Q37.39375 146.575 36.1125 146.575Q34.9875 146.575 34.26875 145.95Q33.55 145.30937 33.45625 144.2L34.471874 144.2Q34.58125 144.93437 35.003124 145.30937Q35.425 145.68437 36.1125 145.68437Q36.8625 145.68437 37.3 145.16875Q37.7375 144.65312 37.7375 143.74687Q37.7375 142.8875 37.26875 142.37187Q36.8 141.85625 36.01875 141.85625Q35.315624 141.85625 34.909374 142.15312L34.628124 142.3875L33.753124 142.16875ZM40.159374 139.55937Q40.159374 138.79375 40.64375 138.29375Q41.14375 137.79375 41.909374 137.79375Q42.690624 137.79375 43.175 138.29375Q43.659374 138.79375 43.659374 139.59062L43.659374 140.0125Q43.659374 140.77812 43.159374 141.27812Q42.675 141.7625 41.925 141.7625Q41.159374 141.7625 40.659374 141.27812Q40.159374 140.77812 40.159374 139.96562L40.159374 139.55937ZM40.971874 140.0125Q40.971874 140.46562 41.221874 140.7625Q41.4875 141.05937 41.925 141.05937Q42.346874 141.05937 42.596874 140.77812Q42.846874 140.48125 42.846874 139.98125L42.846874 139.55937Q42.846874 139.10625 42.596874 138.80937Q42.346874 138.49687 41.909374 138.49687Q41.471874 138.49687 41.221874 138.80937Q40.971874 139.10625 40.971874 139.575L40.971874 140.0125ZM44.315624 144.35625Q44.315624 143.59062 44.8 143.10625Q45.3 142.60625 46.065624 142.60625Q46.83125 142.60625 47.315624 143.10625Q47.815624 143.59062 47.815624 144.40312L47.815624 144.80937Q47.815624 145.575 47.33125 146.075Q46.846874 146.575 46.08125 146.575Q45.315624 146.575 44.815624 146.09062Q44.315624 145.59062 44.315624 144.77812L44.315624 144.35625ZM45.128124 144.80937Q45.128124 145.27812 45.378124 145.575Q45.64375 145.87187 46.08125 145.87187Q46.503124 145.87187 46.753124 145.59062Q47.003124 145.29375 47.003124 144.79375L47.003124 144.35625Q47.003124 143.8875 46.7375 143.60625Q46.4875 143.30937 46.065624 143.30937Q45.64375 143.30937 45.378124 143.60625Q45.128124 143.8875 45.128124 144.3875L45.128124 144.80937ZM42.175 145.80937L41.55 145.41875L45.721874 138.74687L46.33125 139.1375L42.175 145.80937Z" fill-rule="nonzero"/><path fill="#757575" d="M22.815624 94.28333L21.7375 94.28333L21.7375 87.06458L19.55 87.86146L19.55 86.87708L22.659374 85.70521L22.815624 85.70521L22.815624 94.28333ZM31.6125 90.64271Q31.6125 92.54896 30.95625 93.48646Q30.315624 94.40833 28.925 94.40833Q27.565624 94.40833 26.909374 93.50208Q26.253124 92.59583 26.221874 90.78333L26.221874 89.34583Q26.221874 87.45521 26.8625 86.54896Q27.51875 85.62708 28.909374 85.62708Q30.284374 85.62708 30.940624 86.51771Q31.596874 87.39271 31.6125 89.23646L31.6125 90.64271ZM30.51875 89.15833Q30.51875 87.78333 30.128124 87.15833Q29.753124 86.51771 28.909374 86.51771Q28.08125 86.51771 27.690624 87.15833Q27.315624 87.78333 27.315624 89.08021L27.315624 90.81458Q27.315624 92.18958 27.70625 92.86146Q28.1125 93.51771 28.925 93.51771Q29.721874 93.51771 30.1125 92.89271Q30.503124 92.26771 30.51875 90.93958L30.51875 89.15833ZM38.6125 90.64271Q38.6125 92.54896 37.95625 93.48646Q37.315624 94.40833 35.925 94.40833Q34.565624 94.40833 33.909374 93.50208Q33.253124 92.59583 33.221874 90.78333L33.221874 89.34583Q33.221874 87.45521 33.8625 86.54896Q34.51875 85.62708 35.909374 85.62708Q37.284374 85.62708 37.940624 86.51771Q38.596874 87.39271 38.6125 89.23646L38.6125 90.64271ZM37.51875 89.15833Q37.51875 87.78333 37.128124 87.15833Q36.753124 86.51771 35.909374 86.51771Q35.08125 86.51771 34.690624 87.15833Q34.315624 87.78333 34.315624 89.08021L34.315624 90.81458Q34.315624 92.18958 34.70625 92.86146Q35.1125 93.51771 35.925 93.51771Q36.721874 93.51771 37.1125 92.89271Q37.503124 92.26771 37.51875 90.93958L37.51875 89.15833ZM40.159374 87.39271Q40.159374 86.62708 40.64375 86.12708Q41.14375 85.62708 41.909374 85.62708Q42.690624 85.62708 43.175 86.12708Q43.659374 86.62708 43.659374 87.42396L43.659374 87.84583Q43.659374 88.61146 43.159374 89.11146Q42.675 89.59583 41.925 89.59583Q41.159374 89.59583 40.659374 89.11146Q40.159374 88.61146 40.159374 87.79896L40.159374 87.39271ZM40.971874 87.84583Q40.971874 88.29896 41.221874 88.59583Q41.4875 88.89271 41.925 88.89271Q42.346874 88.89271 42.596874 88.61146Q42.846874 88.31458 42.846874 87.81458L42.846874 87.39271Q42.846874 86.93958 42.596874 86.64271Q42.346874 86.33021 41.909374 86.33021Q41.471874 86.33021 41.221874 86.64271Q40.971874 86.93958 40.971874 87.40833L40.971874 87.84583ZM44.315624 92.18958Q44.315624 91.42396 44.8 90.93958Q45.3 90.43958 46.065624 90.43958Q46.83125 90.43958 47.315624 90.93958Q47.815624 91.42396 47.815624 92.23646L47.815624 92.64271Q47.815624 93.40833 47.33125 93.90833Q46.846874 94.40833 46.08125 94.40833Q45.315624 94.40833 44.815624 93.92396Q44.315624 93.42396 44.315624 92.61146L44.315624 92.18958ZM45.128124 92.64271Q45.128124 93.11146 45.378124 93.40833Q45.64375 93.70521 46.08125 93.70521Q46.503124 93.70521 46.753124 93.42396Q47.003124 93.12708 47.003124 92.62708L47.003124 92.18958Q47.003124 91.72083 46.7375 91.43958Q46.4875 91.14271 46.065624 91.14271Q45.64375 91.14271 45.378124 91.43958Q45.128124 91.72083 45.128124 92.22083L45.128124 92.64271ZM42.175 93.64271L41.55 93.25208L45.721874 86.58021L46.33125 86.97083L42.175 93.64271Z" fill-rule="nonzero"/><path fill="#757575" d="M144.79797 316.45L143.71985 316.45L143.71985 309.23126L141.53235 310.02814L141.53235 309.04376L144.64172 307.8719L144.79797 307.8719L144.79797 316.45ZM153.59485 312.8094Q153.59485 314.71564 152.9386 315.65314Q152.29797 316.575 150.90735 316.575Q149.54797 316.575 148.89172 315.66876Q148.23547 314.7625 148.20422 312.95L148.20422 311.5125Q148.20422 309.6219 148.84485 308.71564Q149.5011 307.79376 150.89172 307.79376Q152.26672 307.79376 152.92297 308.6844Q153.57922 309.5594 153.59485 311.40314L153.59485 312.8094ZM152.5011 311.325Q152.5011 309.95 152.11047 309.325Q151.73547 308.6844 150.89172 308.6844Q150.0636 308.6844 149.67297 309.325Q149.29797 309.95 149.29797 311.2469L149.29797 312.98126Q149.29797 314.35626 149.6886 315.02814Q150.09485 315.6844 150.90735 315.6844Q151.70422 315.6844 152.09485 315.0594Q152.48547 314.4344 152.5011 313.10626L152.5011 311.325Z" fill-rule="nonzero"/><path fill="#757575" d="M250.14296 316.45L244.54921 316.45L244.54921 315.66876L247.50233 312.3875Q248.15858 311.6375 248.40858 311.1844Q248.65858 310.71564 248.65858 310.21564Q248.65858 309.54376 248.25233 309.1219Q247.86171 308.6844 247.17421 308.6844Q246.37733 308.6844 245.92421 309.15314Q245.47108 309.60626 245.47108 310.4344L244.39296 310.4344Q244.39296 309.2469 245.14296 308.52814Q245.90858 307.79376 247.17421 307.79376Q248.37733 307.79376 249.06483 308.41876Q249.75233 309.04376 249.75233 310.09064Q249.75233 311.34064 248.14296 313.09064L245.86171 315.5594L250.14296 315.5594L250.14296 316.45ZM256.90857 312.8094Q256.90857 314.71564 256.25232 315.65314Q255.61171 316.575 254.22108 316.575Q252.86171 316.575 252.20546 315.66876Q251.54921 314.7625 251.51796 312.95L251.51796 311.5125Q251.51796 309.6219 252.15858 308.71564Q252.81483 307.79376 254.20546 307.79376Q255.58046 307.79376 256.2367 308.6844Q256.89294 309.5594 256.90857 311.40314L256.90857 312.8094ZM255.81483 311.325Q255.81483 309.95 255.42421 309.325Q255.04921 308.6844 254.20546 308.6844Q253.37733 308.6844 252.98671 309.325Q252.61171 309.95 252.61171 311.2469L252.61171 312.98126Q252.61171 314.35626 253.00233 315.02814Q253.40858 315.6844 254.22108 315.6844Q255.01796 315.6844 255.40858 315.0594Q255.79921 314.4344 255.81483 313.10626L255.81483 311.325Z" fill-rule="nonzero"/><path fill="#757575" d="M349.44104 311.65314L350.25354 311.65314Q351.0348 311.6375 351.4723 311.2469Q351.9098 310.85626 351.9098 310.1844Q351.9098 308.6844 350.4098 308.6844Q349.70667 308.6844 349.2848 309.09064Q348.87854 309.4969 348.87854 310.15314L347.7848 310.15314Q347.7848 309.1375 348.51917 308.46564Q349.26917 307.79376 350.4098 307.79376Q351.6129 307.79376 352.3004 308.4344Q352.9879 309.075 352.9879 310.21564Q352.9879 310.77814 352.62854 311.29376Q352.26917 311.8094 351.64417 312.075Q352.3473 312.29376 352.7223 312.8094Q353.1129 313.325 353.1129 314.075Q353.1129 315.21564 352.3629 315.90314Q351.6129 316.575 350.4098 316.575Q349.2223 316.575 348.45667 315.91876Q347.70667 315.2625 347.70667 314.2L348.8004 314.2Q348.8004 314.8719 349.2379 315.27814Q349.6754 315.6844 350.4254 315.6844Q351.20667 315.6844 351.6129 315.27814Q352.0348 314.85626 352.0348 314.09064Q352.0348 313.35626 351.58167 312.96564Q351.12854 312.5594 350.25354 312.54376L349.44104 312.54376L349.44104 311.65314ZM360.2223 312.8094Q360.2223 314.71564 359.56604 315.65314Q358.9254 316.575 357.5348 316.575Q356.1754 316.575 355.51917 315.66876Q354.8629 314.7625 354.83167 312.95L354.83167 311.5125Q354.83167 309.6219 355.4723 308.71564Q356.12854 307.79376 357.51917 307.79376Q358.89417 307.79376 359.5504 308.6844Q360.20667 309.5594 360.2223 311.40314L360.2223 312.8094ZM359.12854 311.325Q359.12854 309.95 358.7379 309.325Q358.3629 308.6844 357.51917 308.6844Q356.69104 308.6844 356.3004 309.325Q355.9254 309.95 355.9254 311.2469L355.9254 312.98126Q355.9254 314.35626 356.31604 315.02814Q356.7223 315.6844 357.5348 315.6844Q358.33167 315.6844 358.7223 315.0594Q359.1129 314.4344 359.12854 313.10626L359.12854 311.325Z" fill-rule="nonzero"/><path fill="#757575" d="M455.7548 313.59064L456.9423 313.59064L456.9423 314.46564L455.7548 314.46564L455.7548 316.45L454.67667 316.45L454.67667 314.46564L450.78604 314.46564L450.78604 313.825L454.59854 307.91876L455.7548 307.91876L455.7548 313.59064ZM452.02042 313.59064L454.67667 313.59064L454.67667 309.40314L454.53604 309.6375L452.02042 313.59064ZM463.53604 312.8094Q463.53604 314.71564 462.8798 315.65314Q462.23917 316.575 460.84854 316.575Q459.48917 316.575 458.83292 315.66876Q458.17667 314.7625 458.14542 312.95L458.14542 311.5125Q458.14542 309.6219 458.78604 308.71564Q459.4423 307.79376 460.83292 307.79376Q462.20792 307.79376 462.86417 308.6844Q463.52042 309.5594 463.53604 311.40314L463.53604 312.8094ZM462.4423 311.325Q462.4423 309.95 462.05167 309.325Q461.67667 308.6844 460.83292 308.6844Q460.0048 308.6844 459.61417 309.325Q459.23917 309.95 459.23917 311.2469L459.23917 312.98126Q459.23917 314.35626 459.6298 315.02814Q460.03604 315.6844 460.84854 315.6844Q461.64542 315.6844 462.03604 315.0594Q462.42667 314.4344 462.4423 313.10626L462.4423 311.325Z" fill-rule="nonzero"/><path fill="#757575" d="M554.99036 312.16876L555.42786 307.91876L559.80286 307.91876L559.80286 308.91876L556.34973 308.91876L556.0841 311.2469Q556.72473 310.8719 557.5216 310.8719Q558.67786 310.8719 559.36536 311.65314Q560.05286 312.41876 560.05286 313.73126Q560.05286 315.04376 559.3341 315.8094Q558.631 316.575 557.34973 316.575Q556.22473 316.575 555.506 315.95Q554.78723 315.3094 554.6935 314.2L555.7091 314.2Q555.8185 314.9344 556.24036 315.3094Q556.66223 315.6844 557.34973 315.6844Q558.09973 315.6844 558.53723 315.16876Q558.97473 314.65314 558.97473 313.7469Q558.97473 312.8875 558.506 312.3719Q558.03723 311.85626 557.256 311.85626Q556.55286 311.85626 556.1466 312.15314L555.86536 312.3875L554.99036 312.16876ZM566.84973 312.8094Q566.84973 314.71564 566.1935 315.65314Q565.55286 316.575 564.16223 316.575Q562.80286 316.575 562.1466 315.66876Q561.49036 314.7625 561.4591 312.95L561.4591 311.5125Q561.4591 309.6219 562.09973 308.71564Q562.756 307.79376 564.1466 307.79376Q565.5216 307.79376 566.17786 308.6844Q566.8341 309.5594 566.84973 311.40314L566.84973 312.8094ZM565.756 311.325Q565.756 309.95 565.36536 309.325Q564.99036 308.6844 564.1466 308.6844Q563.3185 308.6844 562.92786 309.325Q562.55286 309.95 562.55286 311.2469L562.55286 312.98126Q562.55286 314.35626 562.9435 315.02814Q563.34973 315.6844 564.16223 315.6844Q564.9591 315.6844 565.34973 315.0594Q565.74036 314.4344 565.756 313.10626L565.756 311.325Z" fill-rule="nonzero"/><path fill="#db4437" d="M224.0 57.416668C224.0 56.864384 224.44771 56.416668 225.0 56.416668L235.0 56.416668C235.55229 56.416668 236.0 56.864384 236.0 57.416668L236.0 67.416664C236.0 67.96895 235.55229 68.416664 235.0 68.416664L225.0 68.416664C224.44771 68.416664 224.0 67.96895 224.0 67.416664Z" fill-rule="nonzero"/><path fill="#757575" d="M250.17188 63.822914Q250.17188 65.260414 249.51562 66.15104Q248.85938 67.041664 247.71875 67.041664Q246.5625 67.041664 245.90625 66.30729L245.90625 69.354164L244.82812 69.354164L244.82812 60.572914L245.8125 60.572914L245.85938 61.27604Q246.53125 60.46354 247.70312 60.46354Q248.84375 60.46354 249.5 61.322914Q250.17188 62.18229 250.17188 63.71354L250.17188 63.822914ZM249.09375 63.697914Q249.09375 62.61979 248.625 62.010414Q248.17188 61.385414 247.375 61.385414Q246.39062 61.385414 245.90625 62.24479L245.90625 65.27604Q246.39062 66.15104 247.39062 66.15104Q248.17188 66.15104 248.625 65.541664Q249.09375 64.916664 249.09375 63.697914ZM253.89062 65.322914L255.375 60.572914L256.53125 60.572914L253.98438 67.90104Q253.39062 69.479164 252.10938 69.479164L251.89062 69.46354L251.5 69.385414L251.5 68.510414L251.78125 68.52604Q252.34375 68.52604 252.64062 68.30729Q252.95312 68.08854 253.15625 67.49479L253.39062 66.83854L251.125 60.572914L252.3125 60.572914L253.89062 65.322914ZM259.29688 59.041664L259.29688 60.572914L260.46875 60.572914L260.46875 61.416664L259.29688 61.416664L259.29688 65.33854Q259.29688 65.729164 259.45312 65.916664Q259.60938 66.104164 259.98438 66.104164Q260.17188 66.104164 260.5 66.041664L260.5 66.916664Q260.07812 67.041664 259.67188 67.041664Q258.95312 67.041664 258.57812 66.604164Q258.20312 66.15104 258.20312 65.33854L258.20312 61.416664L257.04688 61.416664L257.04688 60.572914L258.20312 60.572914L258.20312 59.041664L259.29688 59.041664ZM262.90625 61.33854Q263.625 60.46354 264.78125 60.46354Q266.79688 60.46354 266.8125 62.729164L266.8125 66.916664L265.71875 66.916664L265.71875 62.71354Q265.71875 62.041664 265.40625 61.71354Q265.10938 61.385414 264.45312 61.385414Q263.92188 61.385414 263.51562 61.666664Q263.125 61.947914 262.90625 62.40104L262.90625 66.916664L261.82812 66.916664L261.82812 57.916664L262.90625 57.916664L262.90625 61.33854ZM268.53125 63.68229Q268.53125 62.760414 268.89062 62.010414Q269.26562 61.260414 269.92188 60.86979Q270.57812 60.46354 271.40625 60.46354Q272.70312 60.46354 273.5 61.354164Q274.3125 62.24479 274.3125 63.74479L274.3125 63.822914Q274.3125 64.74479 273.95312 65.479164Q273.59375 66.21354 272.9375 66.635414Q272.28125 67.041664 271.42188 67.041664Q270.14062 67.041664 269.32812 66.15104Q268.53125 65.24479 268.53125 63.760414L268.53125 63.68229ZM269.625 63.822914Q269.625 64.86979 270.10938 65.510414Q270.60938 66.15104 271.42188 66.15104Q272.25 66.15104 272.73438 65.510414Q273.21875 64.854164 273.21875 63.68229Q273.21875 62.65104 272.71875 62.010414Q272.23438 61.354164 271.40625 61.354164Q270.60938 61.354164 270.10938 61.99479Q269.625 62.61979 269.625 63.822914ZM276.84375 60.572914L276.875 61.36979Q277.60938 60.46354 278.78125 60.46354Q280.79688 60.46354 280.8125 62.729164L280.8125 66.916664L279.71875 66.916664L279.71875 62.71354Q279.71875 62.041664 279.40625 61.71354Q279.10938 61.385414 278.45312 61.385414Q277.92188 61.385414 277.51562 61.666664Q277.125 61.947914 276.90625 62.40104L276.90625 66.916664L275.82812 66.916664L275.82812 60.572914L276.84375 60.572914ZM287.28125 62.11979L288.09375 62.11979Q288.875 62.104164 289.3125 61.71354Q289.75 61.322914 289.75 60.65104Q289.75 59.15104 288.25 59.15104Q287.54688 59.15104 287.125 59.55729Q286.71875 59.96354 286.71875 60.61979L285.625 60.61979Q285.625 59.604164 286.35938 58.93229Q287.10938 58.260414 288.25 58.260414Q289.45312 58.260414 290.14062 58.90104Q290.82812 59.541664 290.82812 60.68229Q290.82812 61.24479 290.46875 61.760414Q290.10938 62.27604 289.48438 62.541664Q290.1875 62.760414 290.5625 63.27604Q290.95312 63.791664 290.95312 64.541664Q290.95312 65.68229 290.20312 66.36979Q289.45312 67.041664 288.25 67.041664Q287.0625 67.041664 286.29688 66.385414Q285.54688 65.729164 285.54688 64.666664L286.64062 64.666664Q286.64062 65.33854 287.07812 65.74479Q287.51562 66.15104 288.26562 66.15104Q289.04688 66.15104 289.45312 65.74479Q289.875 65.322914 289.875 64.55729Q289.875 63.822914 289.42188 63.43229Q288.96875 63.02604 288.09375 63.010414L287.28125 63.010414L287.28125 62.11979Z" fill-rule="nonzero"/><path fill="#4285f4" d="M308.0 57.416668C308.0 56.864384 308.44772 56.416668 309.0 56.416668L319.0 56.416668C319.55228 56.416668 320.0 56.864384 320.0 57.416668L320.0 67.416664C320.0 67.96895 319.55228 68.416664 319.0 68.416664L309.0 68.416664C308.44772 68.416664 308.0 67.96895 308.0 67.416664Z" fill-rule="nonzero"/><path fill="#757575" d="M334.17188 63.822914Q334.17188 65.260414 333.51562 66.15104Q332.85938 67.041664 331.71875 67.041664Q330.5625 67.041664 329.90625 66.30729L329.90625 69.354164L328.82812 69.354164L328.82812 60.572914L329.8125 60.572914L329.85938 61.27604Q330.53125 60.46354 331.70312 60.46354Q332.84375 60.46354 333.5 61.322914Q334.17188 62.18229 334.17188 63.71354L334.17188 63.822914ZM333.09375 63.697914Q333.09375 62.61979 332.625 62.010414Q332.17188 61.385414 331.375 61.385414Q330.39062 61.385414 329.90625 62.24479L329.90625 65.27604Q330.39062 66.15104 331.39062 66.15104Q332.17188 66.15104 332.625 65.541664Q333.09375 64.916664 333.09375 63.697914ZM337.89062 65.322914L339.375 60.572914L340.53125 60.572914L337.98438 67.90104Q337.39062 69.479164 336.10938 69.479164L335.89062 69.46354L335.5 69.385414L335.5 68.510414L335.78125 68.52604Q336.34375 68.52604 336.64062 68.30729Q336.95312 68.08854 337.15625 67.49479L337.39062 66.83854L335.125 60.572914L336.3125 60.572914L337.89062 65.322914ZM343.29688 59.041664L343.29688 60.572914L344.46875 60.572914L344.46875 61.416664L343.29688 61.416664L343.29688 65.33854Q343.29688 65.729164 343.45312 65.916664Q343.60938 66.104164 343.98438 66.104164Q344.17188 66.104164 344.5 66.041664L344.5 66.916664Q344.07812 67.041664 343.67188 67.041664Q342.95312 67.041664 342.57812 66.604164Q342.20312 66.15104 342.20312 65.33854L342.20312 61.416664L341.04688 61.416664L341.04688 60.572914L342.20312 60.572914L342.20312 59.041664L343.29688 59.041664ZM346.90625 61.33854Q347.625 60.46354 348.78125 60.46354Q350.79688 60.46354 350.8125 62.729164L350.8125 66.916664L349.71875 66.916664L349.71875 62.71354Q349.71875 62.041664 349.40625 61.71354Q349.10938 61.385414 348.45312 61.385414Q347.92188 61.385414 347.51562 61.666664Q347.125 61.947914 346.90625 62.40104L346.90625 66.916664L345.82812 66.916664L345.82812 57.916664L346.90625 57.916664L346.90625 61.33854ZM352.53125 63.68229Q352.53125 62.760414 352.89062 62.010414Q353.26562 61.260414 353.92188 60.86979Q354.57812 60.46354 355.40625 60.46354Q356.70312 60.46354 357.5 61.354164Q358.3125 62.24479 358.3125 63.74479L358.3125 63.822914Q358.3125 64.74479 357.95312 65.479164Q357.59375 66.21354 356.9375 66.635414Q356.28125 67.041664 355.42188 67.041664Q354.14062 67.041664 353.32812 66.15104Q352.53125 65.24479 352.53125 63.760414L352.53125 63.68229ZM353.625 63.822914Q353.625 64.86979 354.10938 65.510414Q354.60938 66.15104 355.42188 66.15104Q356.25 66.15104 356.73438 65.510414Q357.21875 64.854164 357.21875 63.68229Q357.21875 62.65104 356.71875 62.010414Q356.23438 61.354164 355.40625 61.354164Q354.60938 61.354164 354.10938 61.99479Q353.625 62.61979 353.625 63.822914ZM360.84375 60.572914L360.875 61.36979Q361.60938 60.46354 362.78125 60.46354Q364.79688 60.46354 364.8125 62.729164L364.8125 66.916664L363.71875 66.916664L363.71875 62.71354Q363.71875 62.041664 363.40625 61.71354Q363.10938 61.385414 362.45312 61.385414Q361.92188 61.385414 361.51562 61.666664Q361.125 61.947914 360.90625 62.40104L360.90625 66.916664L359.82812 66.916664L359.82812 60.572914L360.84375 60.572914ZM375.29688 66.916664L369.70312 66.916664L369.70312 66.135414L372.65625 62.854164Q373.3125 62.104164 373.5625 61.65104Q373.8125 61.18229 373.8125 60.68229Q373.8125 60.010414 373.40625 59.58854Q373.01562 59.15104 372.32812 59.15104Q371.53125 59.15104 371.07812 59.61979Q370.625 60.072914 370.625 60.90104L369.54688 60.90104Q369.54688 59.71354 370.29688 58.99479Q371.0625 58.260414 372.32812 58.260414Q373.53125 58.260414 374.21875 58.885414Q374.90625 59.510414 374.90625 60.55729Q374.90625 61.80729 373.29688 63.55729L371.01562 66.02604L375.29688 66.02604L375.29688 66.916664Z" fill-rule="nonzero"/><path fill="#757575" d="M29.20625 23.33125L29.20625 33.003124Q29.20625 35.003124 27.940624 36.284374Q26.690624 37.565624 24.55 37.721874L24.05 37.753124Q21.70625 37.753124 20.315624 36.4875Q18.940624 35.221874 18.925 33.01875L18.925 23.33125L20.76875 23.33125L20.76875 32.95625Q20.76875 34.503124 21.6125 35.3625Q22.471874 36.20625 24.05 36.20625Q25.64375 36.20625 26.4875 35.3625Q27.33125 34.51875 27.33125 32.971874L27.33125 23.33125L29.20625 23.33125ZM38.065624 34.753124Q38.065624 34.01875 37.51875 33.6125Q36.971874 33.20625 35.596874 32.909374Q34.221874 32.6125 33.409374 32.20625Q32.6125 31.8 32.221874 31.2375Q31.846874 30.659374 31.846874 29.878124Q31.846874 28.58125 32.940624 27.690624Q34.034374 26.784374 35.753124 26.784374Q37.55 26.784374 38.659374 27.721874Q39.784374 28.64375 39.784374 30.08125L37.95625 30.08125Q37.95625 29.346874 37.33125 28.815624Q36.70625 28.26875 35.753124 28.26875Q34.753124 28.26875 34.190624 28.70625Q33.64375 29.128124 33.64375 29.83125Q33.64375 30.471874 34.159374 30.815624Q34.675 31.14375 36.034374 31.45625Q37.39375 31.753124 38.221874 32.175Q39.065624 32.58125 39.471874 33.175Q39.878124 33.76875 39.878124 34.6125Q39.878124 36.034374 38.7375 36.89375Q37.6125 37.753124 35.8 37.753124Q34.534374 37.753124 33.55 37.3Q32.58125 36.846874 32.01875 36.05Q31.471874 35.2375 31.471874 34.3L33.284374 34.3Q33.33125 35.20625 34.003124 35.7375Q34.690624 36.26875 35.8 36.26875Q36.83125 36.26875 37.440624 35.8625Q38.065624 35.440624 38.065624 34.753124ZM48.440624 37.55Q48.284374 37.2375 48.190624 36.440624Q46.925 37.753124 45.175 37.753124Q43.6125 37.753124 42.6125 36.8625Q41.6125 35.971874 41.6125 34.6125Q41.6125 32.971874 42.8625 32.065624Q44.128124 31.14375 46.39375 31.14375L48.159374 31.14375L48.159374 30.315624Q48.159374 29.3625 47.58125 28.8Q47.01875 28.2375 45.925 28.2375Q44.95625 28.2375 44.3 28.7375Q43.64375 29.221874 43.64375 29.909374L41.83125 29.909374Q41.83125 29.128124 42.39375 28.39375Q42.95625 27.64375 43.909374 27.221874Q44.878124 26.784374 46.034374 26.784374Q47.8625 26.784374 48.89375 27.70625Q49.925 28.6125 49.971874 30.221874L49.971874 35.08125Q49.971874 36.534374 50.33125 37.39375L50.33125 37.55L48.440624 37.55ZM45.440624 36.175Q46.3 36.175 47.05 35.7375Q47.815624 35.3 48.159374 34.596874L48.159374 32.425L46.7375 32.425Q43.425 32.425 43.425 34.3625Q43.425 35.221874 43.9875 35.70625Q44.55 36.175 45.440624 36.175ZM52.4875 32.175Q52.4875 29.70625 53.628124 28.253124Q54.76875 26.784374 56.659374 26.784374Q58.596874 26.784374 59.675 28.159374L59.76875 26.9875L61.409374 26.9875L61.409374 37.3Q61.409374 39.346874 60.190624 40.51875Q58.9875 41.70625 56.925 41.70625Q55.784374 41.70625 54.690624 41.221874Q53.596874 40.7375 53.01875 39.878124L53.95625 38.8Q55.128124 40.2375 56.8 40.2375Q58.128124 40.2375 58.8625 39.4875Q59.596874 38.753124 59.596874 37.409374L59.596874 36.4875Q58.51875 37.753124 56.64375 37.753124Q54.784374 37.753124 53.628124 36.253124Q52.4875 34.753124 52.4875 32.175ZM54.3 32.378124Q54.3 34.175 55.034374 35.190624Q55.76875 36.20625 57.08125 36.20625Q58.8 36.20625 59.596874 34.659374L59.596874 29.83125Q58.76875 28.315624 57.1125 28.315624Q55.784374 28.315624 55.034374 29.346874Q54.3 30.378124 54.3 32.378124ZM68.3 37.753124Q66.15938 37.753124 64.8 36.346874Q63.45625 34.925 63.45625 32.565624L63.45625 32.221874Q63.45625 30.659374 64.05 29.425Q64.65938 28.190624 65.7375 27.4875Q66.81563 26.784374 68.08125 26.784374Q70.14375 26.784374 71.28438 28.14375Q72.425 29.503124 72.425 32.034374L72.425 32.784374L65.26875 32.784374Q65.3 34.346874 66.175 35.315624Q67.05 36.26875 68.39375 36.26875Q69.3625 36.26875 70.01875 35.878124Q70.69063 35.4875 71.19063 34.846874L72.28438 35.70625Q70.95625 37.753124 68.3 37.753124ZM68.08125 28.26875Q66.9875 28.26875 66.2375 29.065624Q65.50313 29.8625 65.33125 31.3L70.6125 31.3L70.6125 31.159374Q70.53438 29.784374 69.8625 29.034374Q69.20625 28.26875 68.08125 28.26875ZM79.44063 32.175Q79.44063 30.6125 80.05 29.378124Q80.65938 28.128124 81.7375 27.45625Q82.83125 26.784374 84.2375 26.784374Q86.39375 26.784374 87.72188 28.284374Q89.06563 29.76875 89.06563 32.253124L89.06563 32.378124Q89.06563 33.925 88.47188 35.159374Q87.87813 36.378124 86.76875 37.065624Q85.675 37.753124 84.25313 37.753124Q82.1125 37.753124 80.76875 36.253124Q79.44063 34.753124 79.44063 32.3L79.44063 32.175ZM81.25313 32.378124Q81.25313 34.14375 82.06563 35.20625Q82.89375 36.26875 84.25313 36.26875Q85.62813 36.26875 86.44063 35.190624Q87.25313 34.1125 87.25313 32.175Q87.25313 30.425 86.425 29.346874Q85.59688 28.26875 84.2375 28.26875Q82.89375 28.26875 82.06563 29.33125Q81.25313 30.39375 81.25313 32.378124ZM91.8 37.55L91.8 28.378124L90.14375 28.378124L90.14375 26.9875L91.8 26.9875L91.8 25.89375Q91.8 24.20625 92.70625 23.284374Q93.62813 22.346874 95.28438 22.346874Q95.90938 22.346874 96.51875 22.503124L96.425 23.971874Q95.97188 23.89375 95.45625 23.89375Q94.56563 23.89375 94.08125 24.409374Q93.6125 24.909374 93.6125 25.8625L93.6125 26.9875L95.8625 26.9875L95.8625 28.378124L93.6125 28.378124L93.6125 37.55L91.8 37.55ZM105.08125 31.9875L105.08125 37.55L103.20625 37.55L103.20625 23.33125L108.44063 23.33125Q110.78438 23.33125 112.09688 24.51875Q113.425 25.70625 113.425 27.675Q113.425 29.753124 112.12813 30.878124Q110.83125 31.9875 108.425 31.9875L105.08125 31.9875ZM105.08125 30.45625L108.44063 30.45625Q109.95625 30.45625 110.75313 29.753124Q111.55 29.034374 111.55 27.690624Q111.55 26.425 110.75313 25.675Q109.95625 24.909374 108.55 24.878124L105.08125 24.878124L105.08125 30.45625ZM119.37813 34.909374L121.83125 26.9875L123.76875 26.9875L119.51875 39.175Q118.53438 41.815624 116.39375 41.815624L116.05 41.784374L115.37813 41.659374L115.37813 40.190624L115.8625 40.2375Q116.78438 40.2375 117.28438 39.8625Q117.8 39.4875 118.12813 38.503124L118.53438 37.425L114.76875 26.9875L116.7375 26.9875L119.37813 34.909374ZM127.3625 24.425L127.3625 26.9875L129.34688 26.9875L129.34688 28.378124L127.3625 28.378124L127.3625 34.925Q127.3625 35.565624 127.62813 35.89375Q127.89375 36.20625 128.53438 36.20625Q128.84688 36.20625 129.39375 36.08125L129.39375 37.55Q128.675 37.753124 128.00313 37.753124Q126.8 37.753124 126.175 37.01875Q125.56563 36.284374 125.56563 34.925L125.56563 28.378124L123.64375 28.378124L123.64375 26.9875L125.56563 26.9875L125.56563 24.425L127.3625 24.425ZM133.72188 28.26875Q134.925 26.784374 136.84688 26.784374Q140.20625 26.784374 140.22188 30.565624L140.22188 37.55L138.425 37.55L138.425 30.55Q138.40938 29.409374 137.89375 28.8625Q137.39375 28.315624 136.3 28.315624Q135.425 28.315624 134.75313 28.784374Q134.09688 29.253124 133.72188 30.01875L133.72188 37.55L131.925 37.55L131.925 22.55L133.72188 22.55L133.72188 28.26875ZM142.44063 32.175Q142.44063 30.6125 143.05 29.378124Q143.65938 28.128124 144.7375 27.45625Q145.83125 26.784374 147.2375 26.784374Q149.39375 26.784374 150.72188 28.284374Q152.06563 29.76875 152.06563 32.253124L152.06563 32.378124Q152.06563 33.925 151.47188 35.159374Q150.87813 36.378124 149.76875 37.065624Q148.675 37.753124 147.25313 37.753124Q145.1125 37.753124 143.76875 36.253124Q142.44063 34.753124 142.44063 32.3L142.44063 32.175ZM144.25313 32.378124Q144.25313 34.14375 145.06563 35.20625Q145.89375 36.26875 147.25313 36.26875Q148.62813 36.26875 149.44063 35.190624Q150.25313 34.1125 150.25313 32.175Q150.25313 30.425 149.425 29.346874Q148.59688 28.26875 147.2375 28.26875Q145.89375 28.26875 145.06563 29.33125Q144.25313 30.39375 144.25313 32.378124ZM155.62813 26.9875L155.69063 28.315624Q156.89375 26.784374 158.84688 26.784374Q162.20625 26.784374 162.22188 30.565624L162.22188 37.55L160.425 37.55L160.425 30.55Q160.40938 29.409374 159.89375 28.8625Q159.39375 28.315624 158.3 28.315624Q157.425 28.315624 156.75313 28.784374Q156.09688 29.253124 155.72188 30.01875L155.72188 37.55L153.925 37.55L153.925 26.9875L155.62813 26.9875ZM179.05 37.55L169.7375 37.55L169.7375 36.253124L174.65938 30.784374Q175.75313 29.534374 176.15938 28.76875Q176.58125 27.9875 176.58125 27.159374Q176.58125 26.05 175.90938 25.33125Q175.2375 24.6125 174.1125 24.6125Q172.75313 24.6125 172.00313 25.39375Q171.26875 26.159374 171.26875 27.51875L169.45625 27.51875Q169.45625 25.55 170.72188 24.346874Q171.9875 23.128124 174.1125 23.128124Q176.09688 23.128124 177.2375 24.175Q178.39375 25.221874 178.39375 26.940624Q178.39375 29.05 175.72188 31.940624L171.90938 36.08125L179.05 36.08125L179.05 37.55ZM192.44063 37.55Q192.28438 37.2375 192.19063 36.440624Q190.925 37.753124 189.175 37.753124Q187.6125 37.753124 186.6125 36.8625Q185.6125 35.971874 185.6125 34.6125Q185.6125 32.971874 186.8625 32.065624Q188.12813 31.14375 190.39375 31.14375L192.15938 31.14375L192.15938 30.315624Q192.15938 29.3625 191.58125 28.8Q191.01875 28.2375 189.925 28.2375Q188.95625 28.2375 188.3 28.7375Q187.64375 29.221874 187.64375 29.909374L185.83125 29.909374Q185.83125 29.128124 186.39375 28.39375Q186.95625 27.64375 187.90938 27.221874Q188.87813 26.784374 190.03438 26.784374Q191.8625 26.784374 192.89375 27.70625Q193.925 28.6125 193.97188 30.221874L193.97188 35.08125Q193.97188 36.534374 194.33125 37.39375L194.33125 37.55L192.44063 37.55ZM189.44063 36.175Q190.3 36.175 191.05 35.7375Q191.81563 35.3 192.15938 34.596874L192.15938 32.425L190.7375 32.425Q187.425 32.425 187.425 34.3625Q187.425 35.221874 187.9875 35.70625Q188.55 36.175 189.44063 36.175ZM198.62813 26.9875L198.69063 28.315624Q199.89375 26.784374 201.84688 26.784374Q205.20625 26.784374 205.22188 30.565624L205.22188 37.55L203.425 37.55L203.425 30.55Q203.40938 29.409374 202.89375 28.8625Q202.39375 28.315624 201.3 28.315624Q200.425 28.315624 199.75313 28.784374Q199.09688 29.253124 198.72188 30.01875L198.72188 37.55L196.925 37.55L196.925 26.9875L198.62813 26.9875ZM207.47188 32.175Q207.47188 29.753124 208.62813 28.26875Q209.78438 26.784374 211.64375 26.784374Q213.50313 26.784374 214.58125 28.05L214.58125 22.55L216.39375 22.55L216.39375 37.55L214.7375 37.55L214.64375 36.409374Q213.56563 37.753124 211.62813 37.753124Q209.8 37.753124 208.62813 36.253124Q207.47188 34.7375 207.47188 32.315624L207.47188 32.175ZM209.28438 32.378124Q209.28438 34.175 210.01875 35.190624Q210.76875 36.20625 212.08125 36.20625Q213.8 36.20625 214.58125 34.675L214.58125 29.815624Q213.78438 28.315624 212.09688 28.315624Q210.76875 28.315624 210.01875 29.346874Q209.28438 30.378124 209.28438 32.378124ZM226.08125 31.9875L226.08125 37.55L224.20625 37.55L224.20625 23.33125L229.44063 23.33125Q231.78438 23.33125 233.09688 24.51875Q234.425 25.70625 234.425 27.675Q234.425 29.753124 233.12813 30.878124Q231.83125 31.9875 229.425 31.9875L226.08125 31.9875ZM226.08125 30.45625L229.44063 30.45625Q230.95625 30.45625 231.75313 29.753124Q232.55 29.034374 232.55 27.690624Q232.55 26.425 231.75313 25.675Q230.95625 24.909374 229.55 24.878124L226.08125 24.878124L226.08125 30.45625ZM240.37813 34.909374L242.83125 26.9875L244.76875 26.9875L240.51875 39.175Q239.53438 41.815624 237.39375 41.815624L237.05 41.784374L236.37813 41.659374L236.37813 40.190624L236.8625 40.2375Q237.78438 40.2375 238.28438 39.8625Q238.8 39.4875 239.12813 38.503124L239.53438 37.425L235.76875 26.9875L237.7375 26.9875L240.37813 34.909374ZM248.3625 24.425L248.3625 26.9875L250.34688 26.9875L250.34688 28.378124L248.3625 28.378124L248.3625 34.925Q248.3625 35.565624 248.62813 35.89375Q248.89375 36.20625 249.53438 36.20625Q249.84688 36.20625 250.39375 36.08125L250.39375 37.55Q249.675 37.753124 249.00313 37.753124Q247.8 37.753124 247.175 37.01875Q246.56563 36.284374 246.56563 34.925L246.56563 28.378124L244.64375 28.378124L244.64375 26.9875L246.56563 26.9875L246.56563 24.425L248.3625 24.425ZM254.72188 28.26875Q255.925 26.784374 257.84686 26.784374Q261.20624 26.784374 261.22186 30.565624L261.22186 37.55L259.425 37.55L259.425 30.55Q259.40936 29.409374 258.89374 28.8625Q258.39374 28.315624 257.3 28.315624Q256.425 28.315624 255.75313 28.784374Q255.09688 29.253124 254.72188 30.01875L254.72188 37.55L252.925 37.55L252.925 22.55L254.72188 22.55L254.72188 28.26875ZM263.4406 32.175Q263.4406 30.6125 264.05 29.378124Q264.65936 28.128124 265.7375 27.45625Q266.83124 26.784374 268.2375 26.784374Q270.39374 26.784374 271.72186 28.284374Q273.0656 29.76875 273.0656 32.253124L273.0656 32.378124Q273.0656 33.925 272.47186 35.159374Q271.8781 36.378124 270.76874 37.065624Q269.675 37.753124 268.2531 37.753124Q266.1125 37.753124 264.76874 36.253124Q263.4406 34.753124 263.4406 32.3L263.4406 32.175ZM265.2531 32.378124Q265.2531 34.14375 266.0656 35.20625Q266.89374 36.26875 268.2531 36.26875Q269.6281 36.26875 270.4406 35.190624Q271.2531 34.1125 271.2531 32.175Q271.2531 30.425 270.425 29.346874Q269.59686 28.26875 268.2375 28.26875Q266.89374 28.26875 266.0656 29.33125Q265.2531 30.39375 265.2531 32.378124ZM276.6281 26.9875L276.6906 28.315624Q277.89374 26.784374 279.84686 26.784374Q283.20624 26.784374 283.22186 30.565624L283.22186 37.55L281.425 37.55L281.425 30.55Q281.40936 29.409374 280.89374 28.8625Q280.39374 28.315624 279.3 28.315624Q278.425 28.315624 277.7531 28.784374Q277.09686 29.253124 276.72186 30.01875L276.72186 37.55L274.925 37.55L274.925 26.9875L276.6281 26.9875ZM293.3625 29.565624L294.72186 29.565624Q296.0031 29.534374 296.72186 28.89375Q297.45624 28.2375 297.45624 27.1125Q297.45624 24.6125 294.97186 24.6125Q293.8 24.6125 293.09686 25.284374Q292.40936 25.95625 292.40936 27.065624L290.59686 27.065624Q290.59686 25.378124 291.83124 24.253124Q293.0656 23.128124 294.97186 23.128124Q296.9875 23.128124 298.1281 24.20625Q299.26874 25.26875 299.26874 27.159374Q299.26874 28.08125 298.65936 28.95625Q298.0656 29.83125 297.03436 30.253124Q298.20624 30.628124 298.84686 31.4875Q299.4875 32.346874 299.4875 33.58125Q299.4875 35.503124 298.2375 36.628124Q296.9875 37.753124 294.97186 37.753124Q292.97186 37.753124 291.72186 36.675Q290.47186 35.58125 290.47186 33.8L292.28436 33.8Q292.28436 34.925 293.01874 35.596874Q293.7531 36.26875 294.9875 36.26875Q296.28436 36.26875 296.97186 35.596874Q297.675 34.909374 297.675 33.628124Q297.675 32.378124 296.90936 31.721874Q296.15936 31.05 294.72186 31.034374L293.3625 31.034374L293.3625 29.565624Z" fill-rule="nonzero"/></svg>