<svg version="1.1" viewBox="0.0 0.0 600.0 371.0" fill="none" stroke="none" stroke-linecap="square" stroke-miterlimit="10" width="600" height="371" xmlns:xlink="http://www.w3.org/1999/xlink" xmlns="http://www.w3.org/2000/svg"><path fill="#ffffff" d="M0 0L600.0 0L600.0 371.0L0 371.0L0 0Z" fill-rule="nonzero"/><path stroke="#cccccc" stroke-width="1.0" stroke-linecap="butt" d="M178.5 89.5L178.5 298.5" fill-rule="nonzero"/><path stroke="#cccccc" stroke-width="1.0" stroke-linecap="butt" d="M274.5 89.5L274.5 298.5" fill-rule="nonzero"/><path stroke="#cccccc" stroke-width="1.0" stroke-linecap="butt" d="M370.5 89.5L370.5 298.5" fill-rule="nonzero"/><path stroke="#cccccc" stroke-width="1.0" stroke-linecap="butt" d="M466.5 89.5L466.5 298.5" fill-rule="nonzero"/><path stroke="#cccccc" stroke-width="1.0" stroke-linecap="butt" d="M562.5 89.5L562.5 298.5" fill-rule="nonzero"/><path stroke="#333333" stroke-width="1.0" stroke-linecap="butt" d="M91.5 298.5L581.5 298.5" fill-rule="nonzero"/><path stroke="#cccccc" stroke-width="1.0" stroke-linecap="butt" d="M91.5 228.5L581.5 228.5" fill-rule="nonzero"/><path stroke="#cccccc" stroke-width="1.0" stroke-linecap="butt" d="M91.5 159.5L581.5 159.5" fill-rule="nonzero"/><path stroke="#cccccc" stroke-width="1.0" stroke-linecap="butt" d="M91.5 89.5L581.5 89.5" fill-rule="nonzero"/><clipPath id="id_0"><path d="M91.55 89.78333L581.45 89.78333L581.45 298.45L91.55 298.45L91.55 89.78333Z" clip-rule="nonzero"/></clipPath><path stroke="#4285f4" stroke-width="2.0" stroke-linecap="butt" clip-path="url(#id_0)" d="M91.55 200.19516C91.55 200.19516 97.95392 203.8309 101.15588 204.00482C104.35784 204.17874 107.55981 201.73007 110.761765 201.2387C113.96372 200.74731 117.16569 201.81859 120.367645 201.05658C123.56961 200.29456 126.77157 196.54308 129.97353 196.66661C133.17549 196.79013 136.37746 201.34665 139.5794 201.79773C142.78137 202.24881 145.98334 200.22105 149.18529 199.37312C152.38725 198.52519 155.58922 197.61238 158.79118 196.71013C161.99313 195.80789 165.1951 194.81483 168.39706 193.95966C171.59901 193.10448 174.80098 192.22458 178.00294 191.57904C181.2049 190.93349 184.40686 190.13882 187.60883 190.08638C190.81079 190.03392 194.01274 191.33951 197.2147 191.26431C200.41667 191.18912 203.61862 190.67665 206.82059 189.63521C210.02255 188.59377 213.2245 184.5689 216.42647 185.01564C219.62843 185.4624 222.8304 191.4657 226.03235 192.31573C229.23431 193.16577 232.43628 180.91205 235.63823 190.11589C238.8402 199.31973 242.04216 248.3687 245.24411 247.53879C248.44608 246.70888 251.64804 195.72974 254.85 185.13643C258.05197 174.54312 261.25394 184.97433 264.45587 183.97897C267.65784 182.98361 270.8598 178.78368 274.06177 179.16426C277.26373 179.54485 280.4657 184.94815 283.66763 186.2625C286.8696 187.57683 290.07156 189.0526 293.27353 187.05028C296.4755 185.04796 299.67746 175.63428 302.87943 174.24857C306.08136 172.86287 309.28333 177.84758 312.4853 178.73602C315.68726 179.62447 318.88922 179.04337 322.0912 179.5792C325.29315 180.11504 328.4951 180.9843 331.69705 181.95103C334.89902 182.91777 338.10098 185.51097 341.30295 185.37958C344.5049 185.24818 347.70685 182.76752 350.9088 181.16267C354.11078 179.55785 357.31274 175.36307 360.5147 175.75058C363.71667 176.13808 366.91864 182.34024 370.12057 183.4877C373.32254 184.63515 376.5245 183.30688 379.72647 182.63531C382.92844 181.96376 386.1304 179.29646 389.33237 179.45833C392.5343 179.62021 395.73627 183.76408 398.93823 183.60657C402.1402 183.44905 405.34216 179.40839 408.54413 178.51324C411.74606 177.6181 414.94803 178.39793 418.15 178.23572C421.35196 178.0735 424.55392 178.01091 427.7559 177.53995C430.95786 177.06898 434.1598 175.8507 437.36176 175.40993C440.56372 174.96916 443.7657 174.79443 446.96765 174.89539C450.16962 174.99634 453.37158 176.29663 456.57352 176.01564C459.77548 175.73463 462.97745 173.60368 466.1794 173.20937C469.38138 172.81506 472.58334 172.80495 475.7853 173.64977C478.98724 174.49458 482.1892 177.99484 485.39117 178.27824C488.59314 178.56166 491.7951 175.41757 494.99707 175.35022C498.199 175.28287 501.40097 178.45735 504.60294 177.87416C507.8049 177.29097 511.00687 173.42111 514.2088 171.85107C517.41077 170.28102 520.61273 168.92532 523.8147 168.45392C527.01666 167.9825 530.2186 170.66351 533.4206 169.02257C536.62256 167.38162 539.8245 160.01367 543.0265 158.60823C546.22845 157.20277 549.4304 159.2679 552.6323 160.58986C555.8343 161.91182 559.03625 165.00385 562.2382 166.54C565.4402 168.07613 568.64215 164.77399 571.8441 169.80669C575.0461 174.8394 581.45 196.73624 581.45 196.73624" fill-rule="nonzero"/><path stroke="#db4437" stroke-width="2.0" stroke-linecap="butt" clip-path="url(#id_0)" d="M91.55 222.54112C91.55 222.54112 97.95392 236.78566 101.15588 238.73055C104.35784 240.67545 107.55981 236.3076 110.761765 234.2105C113.96372 232.11339 117.16569 227.73523 120.367645 226.14793C123.56961 224.56062 126.77157 225.59915 129.97353 224.68668C133.17549 223.7742 136.37746 221.39253 139.5794 220.67305C142.78137 219.95355 145.98334 220.21233 149.18529 220.36974C152.38725 220.52715 155.58922 222.76329 158.79118 221.6175C161.99313 220.4717 165.1951 215.24013 168.39706 213.49498C171.59901 211.74983 174.80098 212.38522 178.00294 211.14662C181.2049 209.90802 184.40686 207.0274 187.60883 206.06335C190.81079 205.09932 194.01274 206.00526 197.2147 205.36238C200.41667 204.7195 203.61862 203.04599 206.82059 202.20609C210.02255 201.3662 213.2245 200.38037 216.42647 200.32298C219.62843 200.2656 222.8304 200.2572 226.03235 201.86177C229.23431 203.46632 232.43628 200.74747 235.63823 209.95033C238.8402 219.1532 242.04216 256.59943 245.24411 257.07898C248.44608 257.55853 251.64804 220.84659 254.85 212.82771C258.05197 204.80884 261.25394 212.1651 264.45587 208.96573C267.65784 205.76636 270.8598 196.73369 274.06177 193.63147C277.26373 190.52925 280.4657 190.54169 283.66763 190.35242C286.8696 190.16313 290.07156 192.54385 293.27353 192.49582C296.4755 192.44778 299.67746 190.3124 302.87943 190.06421C306.08136 189.81602 309.28333 190.69006 312.4853 191.0067C315.68726 191.32335 318.88922 191.56021 322.0912 191.9641C325.29315 192.36798 328.4951 192.70193 331.69705 193.43001C334.89902 194.15808 338.10098 198.35898 341.30295 196.3325C344.5049 194.30603 347.70685 184.2636 350.9088 181.27113C354.11078 178.27869 357.31274 179.96275 360.5147 178.37778C363.71667 176.79279 366.91864 172.95703 370.12057 171.76126C373.32254 170.5655 376.5245 171.2721 379.72647 171.20316C382.92844 171.13422 386.1304 170.37129 389.33237 171.34766C392.5343 172.324 395.73627 176.2542 398.93823 177.06128C402.1402 177.86838 405.34216 176.78505 408.54413 176.1902C411.74606 175.59534 414.94803 174.1934 418.15 173.49216C421.35196 172.79091 424.55392 174.33545 427.7559 171.9827C430.95786 169.62994 434.1598 163.47264 437.36176 159.37564C440.56372 155.27864 443.7657 148.5979 446.96765 147.40068C450.16962 146.20345 453.37158 151.41888 456.57352 152.19226C459.77548 152.96565 462.97745 152.93884 466.1794 152.04099C469.38138 151.14311 472.58334 147.74985 475.7853 146.80508C478.98724 145.86032 482.1892 147.30513 485.39117 146.37236C488.59314 145.4396 491.7951 141.4301 494.99707 141.20851C498.199 140.98692 501.40097 145.19458 504.60294 145.04283C507.8049 144.89108 511.00687 141.95795 514.2088 140.29803C517.41077 138.63812 520.61273 136.8184 523.8147 135.08334C527.01666 133.34828 530.2186 129.13126 533.4206 129.88765C536.62256 130.64406 539.8245 140.49673 543.0265 139.62177C546.22845 138.74681 549.4304 127.6606 552.6323 124.63785C555.8343 121.6151 559.03625 121.86159 562.2382 121.48527C565.4402 121.10894 568.64215 113.71702 571.8441 122.379906C575.0461 131.0428 581.45 173.46259 581.45 173.46259" fill-rule="nonzero"/><path fill="#000000" fill-opacity="0.0" clip-path="url(#id_0)" d="M94.55 200.19516C94.55 201.85202 93.206856 203.19516 91.55 203.19516C89.89314 203.19516 88.55 201.85202 88.55 200.19516C88.55 198.5383 89.89314 197.19516 91.55 197.19516C93.206856 197.19516 94.55 198.5383 94.55 200.19516Z" fill-rule="nonzero"/><path fill="#000000" fill-opacity="0.0" clip-path="url(#id_0)" d="M104.15588 204.00482C104.15588 205.66168 102.81274 207.00482 101.15588 207.00482C99.49903 207.00482 98.15588 205.66168 98.15588 204.00482C98.15588 202.34798 99.49903 201.00482 101.15588 201.00482C102.81274 201.00482 104.15588 202.34798 104.15588 204.00482Z" fill-rule="nonzero"/><path fill="#000000" fill-opacity="0.0" clip-path="url(#id_0)" d="M113.761765 201.2387C113.761765 202.89555 112.41862 204.2387 110.761765 204.2387C109.10491 204.2387 107.761765 202.89555 107.761765 201.2387C107.761765 199.58183 109.10491 198.2387 110.761765 198.2387C112.41862 198.2387 113.761765 199.58183 113.761765 201.2387Z" fill-rule="nonzero"/><path fill="#000000" fill-opacity="0.0" clip-path="url(#id_0)" d="M123.367645 201.05658C123.367645 202.71342 122.0245 204.05658 120.367645 204.05658C118.71079 204.05658 117.367645 202.71342 117.367645 201.05658C117.367645 199.39972 118.71079 198.05658 120.367645 198.05658C122.0245 198.05658 123.367645 199.39972 123.367645 201.05658Z" fill-rule="nonzero"/><path fill="#000000" fill-opacity="0.0" clip-path="url(#id_0)" d="M132.97353 196.66661C132.97353 198.32346 131.63039 199.66661 129.97353 199.66661C128.31668 199.66661 126.973526 198.32346 126.973526 196.66661C126.973526 195.00975 128.31668 193.66661 129.97353 193.66661C131.63039 193.66661 132.97353 195.00975 132.97353 196.66661Z" fill-rule="nonzero"/><path fill="#000000" fill-opacity="0.0" clip-path="url(#id_0)" d="M142.5794 201.79773C142.5794 203.45459 141.23627 204.79773 139.5794 204.79773C137.92256 204.79773 136.5794 203.45459 136.5794 201.79773C136.5794 200.14087 137.92256 198.79773 139.5794 198.79773C141.23627 198.79773 142.5794 200.14087 142.5794 201.79773Z" fill-rule="nonzero"/><path fill="#000000" fill-opacity="0.0" clip-path="url(#id_0)" d="M152.18529 199.37312C152.18529 201.02997 150.84215 202.37312 149.18529 202.37312C147.52844 202.37312 146.18529 201.02997 146.18529 199.37312C146.18529 197.71626 147.52844 196.37312 149.18529 196.37312C150.84215 196.37312 152.18529 197.71626 152.18529 199.37312Z" fill-rule="nonzero"/><path fill="#000000" fill-opacity="0.0" clip-path="url(#id_0)" d="M161.79118 196.71013C161.79118 198.36699 160.44803 199.71013 158.79118 199.71013C157.13432 199.71013 155.79118 198.36699 155.79118 196.71013C155.79118 195.05328 157.13432 193.71013 158.79118 193.71013C160.44803 193.71013 161.79118 195.05328 161.79118 196.71013Z" fill-rule="nonzero"/><path fill="#000000" fill-opacity="0.0" clip-path="url(#id_0)" d="M171.39706 193.95966C171.39706 195.61652 170.05391 196.95966 168.39706 196.95966C166.7402 196.95966 165.39706 195.61652 165.39706 193.95966C165.39706 192.3028 166.7402 190.95966 168.39706 190.95966C170.05391 190.95966 171.39706 192.3028 171.39706 193.95966Z" fill-rule="nonzero"/><path fill="#000000" fill-opacity="0.0" clip-path="url(#id_0)" d="M181.00294 191.57904C181.00294 193.23589 179.65979 194.57904 178.00294 194.57904C176.34608 194.57904 175.00294 193.23589 175.00294 191.57904C175.00294 189.92218 176.34608 188.57904 178.00294 188.57904C179.65979 188.57904 181.00294 189.92218 181.00294 191.57904Z" fill-rule="nonzero"/><path fill="#000000" fill-opacity="0.0" clip-path="url(#id_0)" d="M190.60883 190.08638C190.60883 191.74323 189.26567 193.08638 187.60883 193.08638C185.95197 193.08638 184.60883 191.74323 184.60883 190.08638C184.60883 188.42952 185.95197 187.08638 187.60883 187.08638C189.26567 187.08638 190.60883 188.42952 190.60883 190.08638Z" fill-rule="nonzero"/><path fill="#000000" fill-opacity="0.0" clip-path="url(#id_0)" d="M200.2147 191.26431C200.2147 192.92116 198.87157 194.26431 197.2147 194.26431C195.55785 194.26431 194.2147 192.92116 194.2147 191.26431C194.2147 189.60745 195.55785 188.26431 197.2147 188.26431C198.87157 188.26431 200.2147 189.60745 200.2147 191.26431Z" fill-rule="nonzero"/><path fill="#000000" fill-opacity="0.0" clip-path="url(#id_0)" d="M209.82059 189.63521C209.82059 191.29207 208.47745 192.63521 206.82059 192.63521C205.16373 192.63521 203.82059 191.29207 203.82059 189.63521C203.82059 187.97836 205.16373 186.63521 206.82059 186.63521C208.47745 186.63521 209.82059 187.97836 209.82059 189.63521Z" fill-rule="nonzero"/><path fill="#000000" fill-opacity="0.0" clip-path="url(#id_0)" d="M219.42647 185.01564C219.42647 186.6725 218.08333 188.01564 216.42647 188.01564C214.76962 188.01564 213.42647 186.6725 213.42647 185.01564C213.42647 183.3588 214.76962 182.01564 216.42647 182.01564C218.08333 182.01564 219.42647 183.3588 219.42647 185.01564Z" fill-rule="nonzero"/><path fill="#000000" fill-opacity="0.0" clip-path="url(#id_0)" d="M229.03235 192.31573C229.03235 193.9726 227.68921 195.31573 226.03235 195.31573C224.3755 195.31573 223.03235 193.9726 223.03235 192.31573C223.03235 190.65889 224.3755 189.31573 226.03235 189.31573C227.68921 189.31573 229.03235 190.65889 229.03235 192.31573Z" fill-rule="nonzero"/><path fill="#000000" fill-opacity="0.0" clip-path="url(#id_0)" d="M238.63823 190.11589C238.63823 191.77275 237.29509 193.11589 235.63823 193.11589C233.98138 193.11589 232.63823 191.77275 232.63823 190.11589C232.63823 188.45903 233.98138 187.11589 235.63823 187.11589C237.29509 187.11589 238.63823 188.45903 238.63823 190.11589Z" fill-rule="nonzero"/><path fill="#000000" fill-opacity="0.0" clip-path="url(#id_0)" d="M248.24411 247.53879C248.24411 249.19565 246.90097 250.53879 245.24411 250.53879C243.58727 250.53879 242.24411 249.19565 242.24411 247.53879C242.24411 245.88193 243.58727 244.53879 245.24411 244.53879C246.90097 244.53879 248.24411 245.88193 248.24411 247.53879Z" fill-rule="nonzero"/><path fill="#000000" fill-opacity="0.0" clip-path="url(#id_0)" d="M257.85 185.13643C257.85 186.79329 256.50687 188.13643 254.85 188.13643C253.19315 188.13643 251.85 186.79329 251.85 185.13643C251.85 183.47957 253.19315 182.13643 254.85 182.13643C256.50687 182.13643 257.85 183.47957 257.85 185.13643Z" fill-rule="nonzero"/><path fill="#000000" fill-opacity="0.0" clip-path="url(#id_0)" d="M267.45587 183.97897C267.45587 185.63583 266.11273 186.97897 264.45587 186.97897C262.79904 186.97897 261.45587 185.63583 261.45587 183.97897C261.45587 182.32213 262.79904 180.97897 264.45587 180.97897C266.11273 180.97897 267.45587 182.32213 267.45587 183.97897Z" fill-rule="nonzero"/><path fill="#000000" fill-opacity="0.0" clip-path="url(#id_0)" d="M277.06177 179.16426C277.06177 180.82112 275.71863 182.16426 274.06177 182.16426C272.4049 182.16426 271.06177 180.82112 271.06177 179.16426C271.06177 177.5074 272.4049 176.16426 274.06177 176.16426C275.71863 176.16426 277.06177 177.5074 277.06177 179.16426Z" fill-rule="nonzero"/><path fill="#000000" fill-opacity="0.0" clip-path="url(#id_0)" d="M286.66763 186.2625C286.66763 187.91934 285.3245 189.2625 283.66763 189.2625C282.0108 189.2625 280.66763 187.91934 280.66763 186.2625C280.66763 184.60564 282.0108 183.2625 283.66763 183.2625C285.3245 183.2625 286.66763 184.60564 286.66763 186.2625Z" fill-rule="nonzero"/><path fill="#000000" fill-opacity="0.0" clip-path="url(#id_0)" d="M296.27353 187.05028C296.27353 188.70714 294.9304 190.05028 293.27353 190.05028C291.61667 190.05028 290.27353 188.70714 290.27353 187.05028C290.27353 185.39342 291.61667 184.05028 293.27353 184.05028C294.9304 184.05028 296.27353 185.39342 296.27353 187.05028Z" fill-rule="nonzero"/><path fill="#000000" fill-opacity="0.0" clip-path="url(#id_0)" d="M305.87943 174.24857C305.87943 175.90543 304.53625 177.24857 302.87943 177.24857C301.22256 177.24857 299.87943 175.90543 299.87943 174.24857C299.87943 172.59172 301.22256 171.24857 302.87943 171.24857C304.53625 171.24857 305.87943 172.59172 305.87943 174.24857Z" fill-rule="nonzero"/><path fill="#000000" fill-opacity="0.0" clip-path="url(#id_0)" d="M315.4853 178.73602C315.4853 180.39288 314.14215 181.73602 312.4853 181.73602C310.82843 181.73602 309.4853 180.39288 309.4853 178.73602C309.4853 177.07916 310.82843 175.73602 312.4853 175.73602C314.14215 175.73602 315.4853 177.07916 315.4853 178.73602Z" fill-rule="nonzero"/><path fill="#000000" fill-opacity="0.0" clip-path="url(#id_0)" d="M325.0912 179.5792C325.0912 181.23605 323.74802 182.5792 322.0912 182.5792C320.43433 182.5792 319.0912 181.23605 319.0912 179.5792C319.0912 177.92235 320.43433 176.5792 322.0912 176.5792C323.74802 176.5792 325.0912 177.92235 325.0912 179.5792Z" fill-rule="nonzero"/><path fill="#000000" fill-opacity="0.0" clip-path="url(#id_0)" d="M334.69705 181.95103C334.69705 183.6079 333.3539 184.95103 331.69705 184.95103C330.0402 184.95103 328.69705 183.6079 328.69705 181.95103C328.69705 180.29419 330.0402 178.95103 331.69705 178.95103C333.3539 178.95103 334.69705 180.29419 334.69705 181.95103Z" fill-rule="nonzero"/><path fill="#000000" fill-opacity="0.0" clip-path="url(#id_0)" d="M344.30295 185.37958C344.30295 187.03644 342.9598 188.37958 341.30295 188.37958C339.6461 188.37958 338.30295 187.03644 338.30295 185.37958C338.30295 183.72273 339.6461 182.37958 341.30295 182.37958C342.9598 182.37958 344.30295 183.72273 344.30295 185.37958Z" fill-rule="nonzero"/><path fill="#000000" fill-opacity="0.0" clip-path="url(#id_0)" d="M353.9088 181.16267C353.9088 182.81953 352.56567 184.16267 350.9088 184.16267C349.25198 184.16267 347.9088 182.81953 347.9088 181.16267C347.9088 179.50581 349.25198 178.16267 350.9088 178.16267C352.56567 178.16267 353.9088 179.50581 353.9088 181.16267Z" fill-rule="nonzero"/><path fill="#000000" fill-opacity="0.0" clip-path="url(#id_0)" d="M363.5147 175.75058C363.5147 177.40742 362.17157 178.75058 360.5147 178.75058C358.85785 178.75058 357.5147 177.40742 357.5147 175.75058C357.5147 174.09372 358.85785 172.75058 360.5147 172.75058C362.17157 172.75058 363.5147 174.09372 363.5147 175.75058Z" fill-rule="nonzero"/><path fill="#000000" fill-opacity="0.0" clip-path="url(#id_0)" d="M373.12057 183.4877C373.12057 185.14455 371.77744 186.4877 370.12057 186.4877C368.46375 186.4877 367.12057 185.14455 367.12057 183.4877C367.12057 181.83084 368.46375 180.4877 370.12057 180.4877C371.77744 180.4877 373.12057 181.83084 373.12057 183.4877Z" fill-rule="nonzero"/><path fill="#000000" fill-opacity="0.0" clip-path="url(#id_0)" d="M382.72647 182.63531C382.72647 184.29218 381.38333 185.63531 379.72647 185.63531C378.0696 185.63531 376.72647 184.29218 376.72647 182.63531C376.72647 180.97847 378.0696 179.63531 379.72647 179.63531C381.38333 179.63531 382.72647 180.97847 382.72647 182.63531Z" fill-rule="nonzero"/><path fill="#000000" fill-opacity="0.0" clip-path="url(#id_0)" d="M392.33237 179.45833C392.33237 181.11519 390.9892 182.45833 389.33237 182.45833C387.6755 182.45833 386.33237 181.11519 386.33237 179.45833C386.33237 177.80148 387.6755 176.45833 389.33237 176.45833C390.9892 176.45833 392.33237 177.80148 392.33237 179.45833Z" fill-rule="nonzero"/><path fill="#000000" fill-opacity="0.0" clip-path="url(#id_0)" d="M401.93823 183.60657C401.93823 185.26343 400.5951 186.60657 398.93823 186.60657C397.28137 186.60657 395.93823 185.26343 395.93823 183.60657C395.93823 181.9497 397.28137 180.60657 398.93823 180.60657C400.5951 180.60657 401.93823 181.9497 401.93823 183.60657Z" fill-rule="nonzero"/><path fill="#000000" fill-opacity="0.0" clip-path="url(#id_0)" d="M411.54413 178.51324C411.54413 180.1701 410.20096 181.51324 408.54413 181.51324C406.88727 181.51324 405.54413 180.1701 405.54413 178.51324C405.54413 176.85638 406.88727 175.51324 408.54413 175.51324C410.20096 175.51324 411.54413 176.85638 411.54413 178.51324Z" fill-rule="nonzero"/><path fill="#000000" fill-opacity="0.0" clip-path="url(#id_0)" d="M421.15 178.23572C421.15 179.89256 419.80685 181.23572 418.15 181.23572C416.49313 181.23572 415.15 179.89256 415.15 178.23572C415.15 176.57886 416.49313 175.23572 418.15 175.23572C419.80685 175.23572 421.15 176.57886 421.15 178.23572Z" fill-rule="nonzero"/><path fill="#000000" fill-opacity="0.0" clip-path="url(#id_0)" d="M430.7559 177.53995C430.7559 179.1968 429.41275 180.53995 427.7559 180.53995C426.09903 180.53995 424.7559 179.1968 424.7559 177.53995C424.7559 175.88309 426.09903 174.53995 427.7559 174.53995C429.41275 174.53995 430.7559 175.88309 430.7559 177.53995Z" fill-rule="nonzero"/><path fill="#000000" fill-opacity="0.0" clip-path="url(#id_0)" d="M440.36176 175.40993C440.36176 177.06679 439.01862 178.40993 437.36176 178.40993C435.70493 178.40993 434.36176 177.06679 434.36176 175.40993C434.36176 173.75308 435.70493 172.40993 437.36176 172.40993C439.01862 172.40993 440.36176 173.75308 440.36176 175.40993Z" fill-rule="nonzero"/><path fill="#000000" fill-opacity="0.0" clip-path="url(#id_0)" d="M449.96765 174.89539C449.96765 176.55223 448.6245 177.89539 446.96765 177.89539C445.3108 177.89539 443.96765 176.55223 443.96765 174.89539C443.96765 173.23853 445.3108 171.89539 446.96765 171.89539C448.6245 171.89539 449.96765 173.23853 449.96765 174.89539Z" fill-rule="nonzero"/><path fill="#000000" fill-opacity="0.0" clip-path="url(#id_0)" d="M459.57352 176.01564C459.57352 177.67249 458.23038 179.01564 456.57352 179.01564C454.9167 179.01564 453.57352 177.67249 453.57352 176.01564C453.57352 174.35878 454.9167 173.01564 456.57352 173.01564C458.23038 173.01564 459.57352 174.35878 459.57352 176.01564Z" fill-rule="nonzero"/><path fill="#000000" fill-opacity="0.0" clip-path="url(#id_0)" d="M469.1794 173.20937C469.1794 174.86623 467.83627 176.20937 466.1794 176.20937C464.52255 176.20937 463.1794 174.86623 463.1794 173.20937C463.1794 171.55252 464.52255 170.20937 466.1794 170.20937C467.83627 170.20937 469.1794 171.55252 469.1794 173.20937Z" fill-rule="nonzero"/><path fill="#000000" fill-opacity="0.0" clip-path="url(#id_0)" d="M478.7853 173.64977C478.7853 175.30663 477.44214 176.64977 475.7853 176.64977C474.12845 176.64977 472.7853 175.30663 472.7853 173.64977C472.7853 171.9929 474.12845 170.64977 475.7853 170.64977C477.44214 170.64977 478.7853 171.9929 478.7853 173.64977Z" fill-rule="nonzero"/><path fill="#000000" fill-opacity="0.0" clip-path="url(#id_0)" d="M488.39117 178.27824C488.39117 179.9351 487.04803 181.27824 485.39117 181.27824C483.7343 181.27824 482.39117 179.9351 482.39117 178.27824C482.39117 176.6214 483.7343 175.27824 485.39117 175.27824C487.04803 175.27824 488.39117 176.6214 488.39117 178.27824Z" fill-rule="nonzero"/><path fill="#000000" fill-opacity="0.0" clip-path="url(#id_0)" d="M497.99707 175.35022C497.99707 177.00708 496.6539 178.35022 494.99707 178.35022C493.3402 178.35022 491.99707 177.00708 491.99707 175.35022C491.99707 173.69336 493.3402 172.35022 494.99707 172.35022C496.6539 172.35022 497.99707 173.69336 497.99707 175.35022Z" fill-rule="nonzero"/><path fill="#000000" fill-opacity="0.0" clip-path="url(#id_0)" d="M507.60294 177.87416C507.60294 179.531 506.2598 180.87416 504.60294 180.87416C502.94608 180.87416 501.60294 179.531 501.60294 177.87416C501.60294 176.2173 502.94608 174.87416 504.60294 174.87416C506.2598 174.87416 507.60294 176.2173 507.60294 177.87416Z" fill-rule="nonzero"/><path fill="#000000" fill-opacity="0.0" clip-path="url(#id_0)" d="M517.2088 171.85107C517.2088 173.50792 515.86566 174.85107 514.2088 174.85107C512.55194 174.85107 511.20883 173.50792 511.20883 171.85107C511.20883 170.19421 512.55194 168.85107 514.2088 168.85107C515.86566 168.85107 517.2088 170.19421 517.2088 171.85107Z" fill-rule="nonzero"/><path fill="#000000" fill-opacity="0.0" clip-path="url(#id_0)" d="M526.8147 168.45392C526.8147 170.11076 525.47156 171.45392 523.8147 171.45392C522.15784 171.45392 520.8147 170.11076 520.8147 168.45392C520.8147 166.79706 522.15784 165.45392 523.8147 165.45392C525.47156 165.45392 526.8147 166.79706 526.8147 168.45392Z" fill-rule="nonzero"/><path fill="#000000" fill-opacity="0.0" clip-path="url(#id_0)" d="M536.4206 169.02257C536.4206 170.67943 535.07745 172.02257 533.4206 172.02257C531.76373 172.02257 530.4206 170.67943 530.4206 169.02257C530.4206 167.36572 531.76373 166.02257 533.4206 166.02257C535.07745 166.02257 536.4206 167.36572 536.4206 169.02257Z" fill-rule="nonzero"/><path fill="#000000" fill-opacity="0.0" clip-path="url(#id_0)" d="M546.0265 158.60823C546.0265 160.26508 544.68335 161.60823 543.0265 161.60823C541.3696 161.60823 540.0265 160.26508 540.0265 158.60823C540.0265 156.95137 541.3696 155.60823 543.0265 155.60823C544.68335 155.60823 546.0265 156.95137 546.0265 158.60823Z" fill-rule="nonzero"/><path fill="#000000" fill-opacity="0.0" clip-path="url(#id_0)" d="M555.6323 160.58986C555.6323 162.2467 554.2892 163.58986 552.6323 163.58986C550.9755 163.58986 549.6323 162.2467 549.6323 160.58986C549.6323 158.933 550.9755 157.58986 552.6323 157.58986C554.2892 157.58986 555.6323 158.933 555.6323 160.58986Z" fill-rule="nonzero"/><path fill="#000000" fill-opacity="0.0" clip-path="url(#id_0)" d="M565.2382 166.54C565.2382 168.19684 563.8951 169.54 562.2382 169.54C560.58136 169.54 559.2382 168.19684 559.2382 166.54C559.2382 164.88313 560.58136 163.54 562.2382 163.54C563.8951 163.54 565.2382 164.88313 565.2382 166.54Z" fill-rule="nonzero"/><path fill="#000000" fill-opacity="0.0" clip-path="url(#id_0)" d="M574.8441 169.80669C574.8441 171.46355 573.501 172.80669 571.8441 172.80669C570.18726 172.80669 568.8441 171.46355 568.8441 169.80669C568.8441 168.14984 570.18726 166.80669 571.8441 166.80669C573.501 166.80669 574.8441 168.14984 574.8441 169.80669Z" fill-rule="nonzero"/><path fill="#000000" fill-opacity="0.0" clip-path="url(#id_0)" d="M584.45 196.73624C584.45 198.39308 583.1069 199.73624 581.45 199.73624C579.79315 199.73624 578.45 198.39308 578.45 196.73624C578.45 195.07938 579.79315 193.73624 581.45 193.73624C583.1069 193.73624 584.45 195.07938 584.45 196.73624Z" fill-rule="nonzero"/><path fill="#000000" fill-opacity="0.0" clip-path="url(#id_0)" d="M94.55 222.54112C94.55 224.19798 93.206856 225.54112 91.55 225.54112C89.89314 225.54112 88.55 224.19798 88.55 222.54112C88.55 220.88428 89.89314 219.54112 91.55 219.54112C93.206856 219.54112 94.55 220.88428 94.55 222.54112Z" fill-rule="nonzero"/><path fill="#000000" fill-opacity="0.0" clip-path="url(#id_0)" d="M104.15588 238.73055C104.15588 240.3874 102.81274 241.73055 101.15588 241.73055C99.49903 241.73055 98.15588 240.3874 98.15588 238.73055C98.15588 237.0737 99.49903 235.73055 101.15588 235.73055C102.81274 235.73055 104.15588 237.0737 104.15588 238.73055Z" fill-rule="nonzero"/><path fill="#000000" fill-opacity="0.0" clip-path="url(#id_0)" d="M113.761765 234.2105C113.761765 235.86736 112.41862 237.2105 110.761765 237.2105C109.10491 237.2105 107.761765 235.86736 107.761765 234.2105C107.761765 232.55363 109.10491 231.2105 110.761765 231.2105C112.41862 231.2105 113.761765 232.55363 113.761765 234.2105Z" fill-rule="nonzero"/><path fill="#000000" fill-opacity="0.0" clip-path="url(#id_0)" d="M123.367645 226.14793C123.367645 227.8048 122.0245 229.14793 120.367645 229.14793C118.71079 229.14793 117.367645 227.8048 117.367645 226.14793C117.367645 224.49107 118.71079 223.14793 120.367645 223.14793C122.0245 223.14793 123.367645 224.49107 123.367645 226.14793Z" fill-rule="nonzero"/><path fill="#000000" fill-opacity="0.0" clip-path="url(#id_0)" d="M132.97353 224.68668C132.97353 226.34354 131.63039 227.68668 129.97353 227.68668C128.31668 227.68668 126.973526 226.34354 126.973526 224.68668C126.973526 223.02982 128.31668 221.68668 129.97353 221.68668C131.63039 221.68668 132.97353 223.02982 132.97353 224.68668Z" fill-rule="nonzero"/><path fill="#000000" fill-opacity="0.0" clip-path="url(#id_0)" d="M142.5794 220.67305C142.5794 222.3299 141.23627 223.67305 139.5794 223.67305C137.92256 223.67305 136.5794 222.3299 136.5794 220.67305C136.5794 219.01619 137.92256 217.67305 139.5794 217.67305C141.23627 217.67305 142.5794 219.01619 142.5794 220.67305Z" fill-rule="nonzero"/><path fill="#000000" fill-opacity="0.0" clip-path="url(#id_0)" d="M152.18529 220.36974C152.18529 222.02658 150.84215 223.36974 149.18529 223.36974C147.52844 223.36974 146.18529 222.02658 146.18529 220.36974C146.18529 218.71288 147.52844 217.36974 149.18529 217.36974C150.84215 217.36974 152.18529 218.71288 152.18529 220.36974Z" fill-rule="nonzero"/><path fill="#000000" fill-opacity="0.0" clip-path="url(#id_0)" d="M161.79118 221.6175C161.79118 223.27434 160.44803 224.6175 158.79118 224.6175C157.13432 224.6175 155.79118 223.27434 155.79118 221.6175C155.79118 219.96063 157.13432 218.6175 158.79118 218.6175C160.44803 218.6175 161.79118 219.96063 161.79118 221.6175Z" fill-rule="nonzero"/><path fill="#000000" fill-opacity="0.0" clip-path="url(#id_0)" d="M171.39706 213.49498C171.39706 215.15184 170.05391 216.49498 168.39706 216.49498C166.7402 216.49498 165.39706 215.15184 165.39706 213.49498C165.39706 211.83812 166.7402 210.49498 168.39706 210.49498C170.05391 210.49498 171.39706 211.83812 171.39706 213.49498Z" fill-rule="nonzero"/><path fill="#000000" fill-opacity="0.0" clip-path="url(#id_0)" d="M181.00294 211.14662C181.00294 212.80348 179.65979 214.14662 178.00294 214.14662C176.34608 214.14662 175.00294 212.80348 175.00294 211.14662C175.00294 209.48978 176.34608 208.14662 178.00294 208.14662C179.65979 208.14662 181.00294 209.48978 181.00294 211.14662Z" fill-rule="nonzero"/><path fill="#000000" fill-opacity="0.0" clip-path="url(#id_0)" d="M190.60883 206.06335C190.60883 207.72021 189.26567 209.06335 187.60883 209.06335C185.95197 209.06335 184.60883 207.72021 184.60883 206.06335C184.60883 204.40651 185.95197 203.06335 187.60883 203.06335C189.26567 203.06335 190.60883 204.40651 190.60883 206.06335Z" fill-rule="nonzero"/><path fill="#000000" fill-opacity="0.0" clip-path="url(#id_0)" d="M200.2147 205.36238C200.2147 207.01924 198.87157 208.36238 197.2147 208.36238C195.55785 208.36238 194.2147 207.01924 194.2147 205.36238C194.2147 203.70552 195.55785 202.36238 197.2147 202.36238C198.87157 202.36238 200.2147 203.70552 200.2147 205.36238Z" fill-rule="nonzero"/><path fill="#000000" fill-opacity="0.0" clip-path="url(#id_0)" d="M209.82059 202.20609C209.82059 203.86295 208.47745 205.20609 206.82059 205.20609C205.16373 205.20609 203.82059 203.86295 203.82059 202.20609C203.82059 200.54924 205.16373 199.20609 206.82059 199.20609C208.47745 199.20609 209.82059 200.54924 209.82059 202.20609Z" fill-rule="nonzero"/><path fill="#000000" fill-opacity="0.0" clip-path="url(#id_0)" d="M219.42647 200.32298C219.42647 201.97984 218.08333 203.32298 216.42647 203.32298C214.76962 203.32298 213.42647 201.97984 213.42647 200.32298C213.42647 198.66614 214.76962 197.32298 216.42647 197.32298C218.08333 197.32298 219.42647 198.66614 219.42647 200.32298Z" fill-rule="nonzero"/><path fill="#000000" fill-opacity="0.0" clip-path="url(#id_0)" d="M229.03235 201.86177C229.03235 203.51862 227.68921 204.86177 226.03235 204.86177C224.3755 204.86177 223.03235 203.51862 223.03235 201.86177C223.03235 200.20491 224.3755 198.86177 226.03235 198.86177C227.68921 198.86177 229.03235 200.20491 229.03235 201.86177Z" fill-rule="nonzero"/><path fill="#000000" fill-opacity="0.0" clip-path="url(#id_0)" d="M238.63823 209.95033C238.63823 211.60718 237.29509 212.95033 235.63823 212.95033C233.98138 212.95033 232.63823 211.60718 232.63823 209.95033C232.63823 208.29347 233.98138 206.95033 235.63823 206.95033C237.29509 206.95033 238.63823 208.29347 238.63823 209.95033Z" fill-rule="nonzero"/><path fill="#000000" fill-opacity="0.0" clip-path="url(#id_0)" d="M248.24411 257.07898C248.24411 258.73584 246.90097 260.07898 245.24411 260.07898C243.58727 260.07898 242.24411 258.73584 242.24411 257.07898C242.24411 255.42213 243.58727 254.07898 245.24411 254.07898C246.90097 254.07898 248.24411 255.42213 248.24411 257.07898Z" fill-rule="nonzero"/><path fill="#000000" fill-opacity="0.0" clip-path="url(#id_0)" d="M257.85 212.82771C257.85 214.48456 256.50687 215.82771 254.85 215.82771C253.19315 215.82771 251.85 214.48456 251.85 212.82771C251.85 211.17085 253.19315 209.82771 254.85 209.82771C256.50687 209.82771 257.85 211.17085 257.85 212.82771Z" fill-rule="nonzero"/><path fill="#000000" fill-opacity="0.0" clip-path="url(#id_0)" d="M267.45587 208.96573C267.45587 210.62257 266.11273 211.96573 264.45587 211.96573C262.79904 211.96573 261.45587 210.62257 261.45587 208.96573C261.45587 207.30887 262.79904 205.96573 264.45587 205.96573C266.11273 205.96573 267.45587 207.30887 267.45587 208.96573Z" fill-rule="nonzero"/><path fill="#000000" fill-opacity="0.0" clip-path="url(#id_0)" d="M277.06177 193.63147C277.06177 195.28833 275.71863 196.63147 274.06177 196.63147C272.4049 196.63147 271.06177 195.28833 271.06177 193.63147C271.06177 191.97462 272.4049 190.63147 274.06177 190.63147C275.71863 190.63147 277.06177 191.97462 277.06177 193.63147Z" fill-rule="nonzero"/><path fill="#000000" fill-opacity="0.0" clip-path="url(#id_0)" d="M286.66763 190.35242C286.66763 192.00926 285.3245 193.35242 283.66763 193.35242C282.0108 193.35242 280.66763 192.00926 280.66763 190.35242C280.66763 188.69556 282.0108 187.35242 283.66763 187.35242C285.3245 187.35242 286.66763 188.69556 286.66763 190.35242Z" fill-rule="nonzero"/><path fill="#000000" fill-opacity="0.0" clip-path="url(#id_0)" d="M296.27353 192.49582C296.27353 194.15266 294.9304 195.49582 293.27353 195.49582C291.61667 195.49582 290.27353 194.15266 290.27353 192.49582C290.27353 190.83896 291.61667 189.49582 293.27353 189.49582C294.9304 189.49582 296.27353 190.83896 296.27353 192.49582Z" fill-rule="nonzero"/><path fill="#000000" fill-opacity="0.0" clip-path="url(#id_0)" d="M305.87943 190.06421C305.87943 191.72107 304.53625 193.06421 302.87943 193.06421C301.22256 193.06421 299.87943 191.72107 299.87943 190.06421C299.87943 188.40735 301.22256 187.06421 302.87943 187.06421C304.53625 187.06421 305.87943 188.40735 305.87943 190.06421Z" fill-rule="nonzero"/><path fill="#000000" fill-opacity="0.0" clip-path="url(#id_0)" d="M315.4853 191.0067C315.4853 192.66356 314.14215 194.0067 312.4853 194.0067C310.82843 194.0067 309.4853 192.66356 309.4853 191.0067C309.4853 189.34985 310.82843 188.0067 312.4853 188.0067C314.14215 188.0067 315.4853 189.34985 315.4853 191.0067Z" fill-rule="nonzero"/><path fill="#000000" fill-opacity="0.0" clip-path="url(#id_0)" d="M325.0912 191.9641C325.0912 193.62096 323.74802 194.9641 322.0912 194.9641C320.43433 194.9641 319.0912 193.62096 319.0912 191.9641C319.0912 190.30725 320.43433 188.9641 322.0912 188.9641C323.74802 188.9641 325.0912 190.30725 325.0912 191.9641Z" fill-rule="nonzero"/><path fill="#000000" fill-opacity="0.0" clip-path="url(#id_0)" d="M334.69705 193.43001C334.69705 195.08687 333.3539 196.43001 331.69705 196.43001C330.0402 196.43001 328.69705 195.08687 328.69705 193.43001C328.69705 191.77315 330.0402 190.43001 331.69705 190.43001C333.3539 190.43001 334.69705 191.77315 334.69705 193.43001Z" fill-rule="nonzero"/><path fill="#000000" fill-opacity="0.0" clip-path="url(#id_0)" d="M344.30295 196.3325C344.30295 197.98936 342.9598 199.3325 341.30295 199.3325C339.6461 199.3325 338.30295 197.98936 338.30295 196.3325C338.30295 194.67566 339.6461 193.3325 341.30295 193.3325C342.9598 193.3325 344.30295 194.67566 344.30295 196.3325Z" fill-rule="nonzero"/><path fill="#000000" fill-opacity="0.0" clip-path="url(#id_0)" d="M353.9088 181.27113C353.9088 182.928 352.56567 184.27113 350.9088 184.27113C349.25198 184.27113 347.9088 182.928 347.9088 181.27113C347.9088 179.61429 349.25198 178.27113 350.9088 178.27113C352.56567 178.27113 353.9088 179.61429 353.9088 181.27113Z" fill-rule="nonzero"/><path fill="#000000" fill-opacity="0.0" clip-path="url(#id_0)" d="M363.5147 178.37778C363.5147 180.03462 362.17157 181.37778 360.5147 181.37778C358.85785 181.37778 357.5147 180.03462 357.5147 178.37778C357.5147 176.72092 358.85785 175.37778 360.5147 175.37778C362.17157 175.37778 363.5147 176.72092 363.5147 178.37778Z" fill-rule="nonzero"/><path fill="#000000" fill-opacity="0.0" clip-path="url(#id_0)" d="M373.12057 171.76126C373.12057 173.41812 371.77744 174.76126 370.12057 174.76126C368.46375 174.76126 367.12057 173.41812 367.12057 171.76126C367.12057 170.10442 368.46375 168.76126 370.12057 168.76126C371.77744 168.76126 373.12057 170.10442 373.12057 171.76126Z" fill-rule="nonzero"/><path fill="#000000" fill-opacity="0.0" clip-path="url(#id_0)" d="M382.72647 171.20316C382.72647 172.86002 381.38333 174.20316 379.72647 174.20316C378.0696 174.20316 376.72647 172.86002 376.72647 171.20316C376.72647 169.5463 378.0696 168.20316 379.72647 168.20316C381.38333 168.20316 382.72647 169.5463 382.72647 171.20316Z" fill-rule="nonzero"/><path fill="#000000" fill-opacity="0.0" clip-path="url(#id_0)" d="M392.33237 171.34766C392.33237 173.0045 390.9892 174.34766 389.33237 174.34766C387.6755 174.34766 386.33237 173.0045 386.33237 171.34766C386.33237 169.6908 387.6755 168.34766 389.33237 168.34766C390.9892 168.34766 392.33237 169.6908 392.33237 171.34766Z" fill-rule="nonzero"/><path fill="#000000" fill-opacity="0.0" clip-path="url(#id_0)" d="M401.93823 177.06128C401.93823 178.71814 400.5951 180.06128 398.93823 180.06128C397.28137 180.06128 395.93823 178.71814 395.93823 177.06128C395.93823 175.40443 397.28137 174.06128 398.93823 174.06128C400.5951 174.06128 401.93823 175.40443 401.93823 177.06128Z" fill-rule="nonzero"/><path fill="#000000" fill-opacity="0.0" clip-path="url(#id_0)" d="M411.54413 176.1902C411.54413 177.84705 410.20096 179.1902 408.54413 179.1902C406.88727 179.1902 405.54413 177.84705 405.54413 176.1902C405.54413 174.53334 406.88727 173.1902 408.54413 173.1902C410.20096 173.1902 411.54413 174.53334 411.54413 176.1902Z" fill-rule="nonzero"/><path fill="#000000" fill-opacity="0.0" clip-path="url(#id_0)" d="M421.15 173.49216C421.15 175.14902 419.80685 176.49216 418.15 176.49216C416.49313 176.49216 415.15 175.14902 415.15 173.49216C415.15 171.8353 416.49313 170.49216 418.15 170.49216C419.80685 170.49216 421.15 171.8353 421.15 173.49216Z" fill-rule="nonzero"/><path fill="#000000" fill-opacity="0.0" clip-path="url(#id_0)" d="M430.7559 171.9827C430.7559 173.63956 429.41275 174.9827 427.7559 174.9827C426.09903 174.9827 424.7559 173.63956 424.7559 171.9827C424.7559 170.32585 426.09903 168.9827 427.7559 168.9827C429.41275 168.9827 430.7559 170.32585 430.7559 171.9827Z" fill-rule="nonzero"/><path fill="#000000" fill-opacity="0.0" clip-path="url(#id_0)" d="M440.36176 159.37564C440.36176 161.0325 439.01862 162.37564 437.36176 162.37564C435.70493 162.37564 434.36176 161.0325 434.36176 159.37564C434.36176 157.71878 435.70493 156.37564 437.36176 156.37564C439.01862 156.37564 440.36176 157.71878 440.36176 159.37564Z" fill-rule="nonzero"/><path fill="#000000" fill-opacity="0.0" clip-path="url(#id_0)" d="M449.96765 147.40068C449.96765 149.05753 448.6245 150.40068 446.96765 150.40068C445.3108 150.40068 443.96765 149.05753 443.96765 147.40068C443.96765 145.74382 445.3108 144.40068 446.96765 144.40068C448.6245 144.40068 449.96765 145.74382 449.96765 147.40068Z" fill-rule="nonzero"/><path fill="#000000" fill-opacity="0.0" clip-path="url(#id_0)" d="M459.57352 152.19226C459.57352 153.84912 458.23038 155.19226 456.57352 155.19226C454.9167 155.19226 453.57352 153.84912 453.57352 152.19226C453.57352 150.53542 454.9167 149.19226 456.57352 149.19226C458.23038 149.19226 459.57352 150.53542 459.57352 152.19226Z" fill-rule="nonzero"/><path fill="#000000" fill-opacity="0.0" clip-path="url(#id_0)" d="M469.1794 152.04099C469.1794 153.69783 467.83627 155.04099 466.1794 155.04099C464.52255 155.04099 463.1794 153.69783 463.1794 152.04099C463.1794 150.38412 464.52255 149.04099 466.1794 149.04099C467.83627 149.04099 469.1794 150.38412 469.1794 152.04099Z" fill-rule="nonzero"/><path fill="#000000" fill-opacity="0.0" clip-path="url(#id_0)" d="M478.7853 146.80508C478.7853 148.46194 477.44214 149.80508 475.7853 149.80508C474.12845 149.80508 472.7853 148.46194 472.7853 146.80508C472.7853 145.14822 474.12845 143.80508 475.7853 143.80508C477.44214 143.80508 478.7853 145.14822 478.7853 146.80508Z" fill-rule="nonzero"/><path fill="#000000" fill-opacity="0.0" clip-path="url(#id_0)" d="M488.39117 146.37236C488.39117 148.02922 487.04803 149.37236 485.39117 149.37236C483.7343 149.37236 482.39117 148.02922 482.39117 146.37236C482.39117 144.71552 483.7343 143.37236 485.39117 143.37236C487.04803 143.37236 488.39117 144.71552 488.39117 146.37236Z" fill-rule="nonzero"/><path fill="#000000" fill-opacity="0.0" clip-path="url(#id_0)" d="M497.99707 141.20851C497.99707 142.86536 496.6539 144.20851 494.99707 144.20851C493.3402 144.20851 491.99707 142.86536 491.99707 141.20851C491.99707 139.55165 493.3402 138.20851 494.99707 138.20851C496.6539 138.20851 497.99707 139.55165 497.99707 141.20851Z" fill-rule="nonzero"/><path fill="#000000" fill-opacity="0.0" clip-path="url(#id_0)" d="M507.60294 145.04283C507.60294 146.69968 506.2598 148.04283 504.60294 148.04283C502.94608 148.04283 501.60294 146.69968 501.60294 145.04283C501.60294 143.38597 502.94608 142.04283 504.60294 142.04283C506.2598 142.04283 507.60294 143.38597 507.60294 145.04283Z" fill-rule="nonzero"/><path fill="#000000" fill-opacity="0.0" clip-path="url(#id_0)" d="M517.2088 140.29803C517.2088 141.95488 515.86566 143.29803 514.2088 143.29803C512.55194 143.29803 511.20883 141.95488 511.20883 140.29803C511.20883 138.64117 512.55194 137.29803 514.2088 137.29803C515.86566 137.29803 517.2088 138.64117 517.2088 140.29803Z" fill-rule="nonzero"/><path fill="#000000" fill-opacity="0.0" clip-path="url(#id_0)" d="M526.8147 135.08334C526.8147 136.74019 525.47156 138.08334 523.8147 138.08334C522.15784 138.08334 520.8147 136.74019 520.8147 135.08334C520.8147 133.42648 522.15784 132.08334 523.8147 132.08334C525.47156 132.08334 526.8147 133.42648 526.8147 135.08334Z" fill-rule="nonzero"/><path fill="#000000" fill-opacity="0.0" clip-path="url(#id_0)" d="M536.4206 129.88765C536.4206 131.54451 535.07745 132.88765 533.4206 132.88765C531.76373 132.88765 530.4206 131.54451 530.4206 129.88765C530.4206 128.2308 531.76373 126.88766 533.4206 126.88766C535.07745 126.88766 536.4206 128.2308 536.4206 129.88765Z" fill-rule="nonzero"/><path fill="#000000" fill-opacity="0.0" clip-path="url(#id_0)" d="M546.0265 139.62177C546.0265 141.27863 544.68335 142.62177 543.0265 142.62177C541.3696 142.62177 540.0265 141.27863 540.0265 139.62177C540.0265 137.96492 541.3696 136.62177 543.0265 136.62177C544.68335 136.62177 546.0265 137.96492 546.0265 139.62177Z" fill-rule="nonzero"/><path fill="#000000" fill-opacity="0.0" clip-path="url(#id_0)" d="M555.6323 124.63785C555.6323 126.29471 554.2892 127.63785 552.6323 127.63785C550.9755 127.63785 549.6323 126.29471 549.6323 124.63785C549.6323 122.980995 550.9755 121.63785 552.6323 121.63785C554.2892 121.63785 555.6323 122.980995 555.6323 124.63785Z" fill-rule="nonzero"/><path fill="#000000" fill-opacity="0.0" clip-path="url(#id_0)" d="M565.2382 121.48527C565.2382 123.14212 563.8951 124.48527 562.2382 124.48527C560.58136 124.48527 559.2382 123.14212 559.2382 121.48527C559.2382 119.828415 560.58136 118.48527 562.2382 118.48527C563.8951 118.48527 565.2382 119.828415 565.2382 121.48527Z" fill-rule="nonzero"/><path fill="#000000" fill-opacity="0.0" clip-path="url(#id_0)" d="M574.8441 122.379906C574.8441 124.036766 573.501 125.379906 571.8441 125.379906C570.18726 125.379906 568.8441 124.036766 568.8441 122.379906C568.8441 120.72305 570.18726 119.379906 571.8441 119.379906C573.501 119.379906 574.8441 120.72305 574.8441 122.379906Z" fill-rule="nonzero"/><path fill="#000000" fill-opacity="0.0" clip-path="url(#id_0)" d="M584.45 173.46259C584.45 175.11945 583.1069 176.46259 581.45 176.46259C579.79315 176.46259 578.45 175.11945 578.45 173.46259C578.45 171.80574 579.79315 170.46259 581.45 170.46259C583.1069 170.46259 584.45 171.80574 584.45 173.46259Z" fill-rule="nonzero"/><path fill="#424242" d="M329.4375 347.95L330.65625 343.10626L331.73438 343.10626L329.89062 349.45L329.01562 349.45L327.46875 344.6375L325.96875 349.45L325.09375 349.45L323.25 343.10626L324.32812 343.10626L325.57812 347.85626L327.0625 343.10626L327.92188 343.10626L329.4375 347.95ZM335.45312 349.575Q334.15625 349.575 333.34375 348.73126Q332.54688 347.8719 332.54688 346.45L332.54688 346.2625Q332.54688 345.3094 332.90625 344.575Q333.26562 343.825 333.90625 343.41876Q334.5625 342.9969 335.3125 342.9969Q336.54688 342.9969 337.23438 343.8094Q337.92188 344.6219 337.92188 346.1375L337.92188 346.59064L333.625 346.59064Q333.65625 347.52814 334.17188 348.10626Q334.70312 348.6844 335.51562 348.6844Q336.07812 348.6844 336.46875 348.45Q336.875 348.21564 337.1875 347.825L337.84375 348.34064Q337.04688 349.575 335.45312 349.575ZM335.3125 343.8875Q334.65625 343.8875 334.20312 344.3719Q333.76562 344.84064 333.67188 345.7L336.84375 345.7L336.84375 345.6219Q336.79688 344.79376 336.39062 344.34064Q336.0 343.8875 335.3125 343.8875ZM341.45312 349.575Q340.15625 349.575 339.34375 348.73126Q338.54688 347.8719 338.54688 346.45L338.54688 346.2625Q338.54688 345.3094 338.90625 344.575Q339.26562 343.825 339.90625 343.41876Q340.5625 342.9969 341.3125 342.9969Q342.54688 342.9969 343.23438 343.8094Q343.92188 344.6219 343.92188 346.1375L343.92188 346.59064L339.625 346.59064Q339.65625 347.52814 340.17188 348.10626Q340.70312 348.6844 341.51562 348.6844Q342.07812 348.6844 342.46875 348.45Q342.875 348.21564 343.1875 347.825L343.84375 348.34064Q343.04688 349.575 341.45312 349.575ZM341.3125 343.8875Q340.65625 343.8875 340.20312 344.3719Q339.76562 344.84064 339.67188 345.7L342.84375 345.7L342.84375 345.6219Q342.79688 344.79376 342.39062 344.34064Q342.0 343.8875 341.3125 343.8875ZM346.59375 346.5125L345.90625 347.21564L345.90625 349.45L344.82812 349.45L344.82812 340.45L345.90625 340.45L345.90625 345.8875L346.48438 345.2L348.46875 343.10626L349.78125 343.10626L347.3125 345.7625L350.07812 349.45L348.79688 349.45L346.59375 346.5125Z" fill-rule="nonzero"/><path fill="#757575" d="M84.6125 299.3094Q84.6125 301.21564 83.95625 302.15314Q83.31563 303.075 81.925 303.075Q80.56563 303.075 79.90938 302.16876Q79.25313 301.2625 79.22188 299.45L79.22188 298.0125Q79.22188 296.1219 79.8625 295.21564Q80.51875 294.29376 81.90938 294.29376Q83.28438 294.29376 83.94063 295.1844Q84.59688 296.0594 84.6125 297.90314L84.6125 299.3094ZM83.51875 297.825Q83.51875 296.45 83.12813 295.825Q82.75313 295.1844 81.90938 295.1844Q81.08125 295.1844 80.69063 295.825Q80.31563 296.45 80.31563 297.7469L80.31563 299.48126Q80.31563 300.85626 80.70625 301.52814Q81.1125 302.1844 81.925 302.1844Q82.72188 302.1844 83.1125 301.5594Q83.50313 300.9344 83.51875 299.60626L83.51875 297.825Z" fill-rule="nonzero"/><path fill="#757575" d="M24.846874 233.39444L19.253124 233.39444L19.253124 232.61319L22.20625 229.33194Q22.8625 228.58194 23.1125 228.12881Q23.3625 227.66006 23.3625 227.16006Q23.3625 226.48819 22.95625 226.06631Q22.565624 225.62881 21.878124 225.62881Q21.08125 225.62881 20.628124 226.09756Q20.175 226.55069 20.175 227.37881L19.096874 227.37881Q19.096874 226.19131 19.846874 225.47256Q20.6125 224.73819 21.878124 224.73819Q23.08125 224.73819 23.76875 225.36319Q24.45625 225.98819 24.45625 227.03506Q24.45625 228.28506 22.846874 230.03506L20.565624 232.50381L24.846874 232.50381L24.846874 233.39444ZM31.6125 229.75381Q31.6125 231.66006 30.95625 232.59756Q30.315624 233.51944 28.925 233.51944Q27.565624 233.51944 26.909374 232.61319Q26.253124 231.70694 26.221874 229.89444L26.221874 228.45694Q26.221874 226.56631 26.8625 225.66006Q27.51875 224.73819 28.909374 224.73819Q30.284374 224.73819 30.940624 225.62881Q31.596874 226.50381 31.6125 228.34756L31.6125 229.75381ZM30.51875 228.26944Q30.51875 226.89444 30.128124 226.26944Q29.753124 225.62881 28.909374 225.62881Q28.08125 225.62881 27.690624 226.26944Q27.315624 226.89444 27.315624 228.19131L27.315624 229.92569Q27.315624 231.30069 27.70625 231.97256Q28.1125 232.62881 28.925 232.62881Q29.721874 232.62881 30.1125 232.00381Q30.503124 231.37881 30.51875 230.05069L30.51875 228.26944ZM38.6125 229.75381Q38.6125 231.66006 37.95625 232.59756Q37.315624 233.51944 35.925 233.51944Q34.565624 233.51944 33.909374 232.61319Q33.253124 231.70694 33.221874 229.89444L33.221874 228.45694Q33.221874 226.56631 33.8625 225.66006Q34.51875 224.73819 35.909374 224.73819Q37.284374 224.73819 37.940624 225.62881Q38.596874 226.50381 38.6125 228.34756L38.6125 229.75381ZM37.51875 228.26944Q37.51875 226.89444 37.128124 226.26944Q36.753124 225.62881 35.909374 225.62881Q35.08125 225.62881 34.690624 226.26944Q34.315624 226.89444 34.315624 228.19131L34.315624 229.92569Q34.315624 231.30069 34.70625 231.97256Q35.1125 232.62881 35.925 232.62881Q36.721874 232.62881 37.1125 232.00381Q37.503124 231.37881 37.51875 230.05069L37.51875 228.26944ZM40.33125 235.09756L39.721874 234.67569Q40.26875 233.91006 40.3 233.08194L40.3 232.11319L41.3625 232.11319L41.3625 232.95694Q41.3625 233.55069 41.065624 234.14444Q40.76875 234.73819 40.33125 235.09756ZM47.6125 229.75381Q47.6125 231.66006 46.95625 232.59756Q46.315624 233.51944 44.925 233.51944Q43.565624 233.51944 42.909374 232.61319Q42.253124 231.70694 42.221874 229.89444L42.221874 228.45694Q42.221874 226.56631 42.8625 225.66006Q43.51875 224.73819 44.909374 224.73819Q46.284374 224.73819 46.940624 225.62881Q47.596874 226.50381 47.6125 228.34756L47.6125 229.75381ZM46.51875 228.26944Q46.51875 226.89444 46.128124 226.26944Q45.753124 225.62881 44.909374 225.62881Q44.08125 225.62881 43.690624 226.26944Q43.315624 226.89444 43.315624 228.19131L43.315624 229.92569Q43.315624 231.30069 43.70625 231.97256Q44.1125 232.62881 44.925 232.62881Q45.721874 232.62881 46.1125 232.00381Q46.503124 231.37881 46.51875 230.05069L46.51875 228.26944ZM54.6125 229.75381Q54.6125 231.66006 53.95625 232.59756Q53.315624 233.51944 51.925 233.51944Q50.565624 233.51944 49.909374 232.61319Q49.253124 231.70694 49.221874 229.89444L49.221874 228.45694Q49.221874 226.56631 49.8625 225.66006Q50.51875 224.73819 51.909374 224.73819Q53.284374 224.73819 53.940624 225.62881Q54.596874 226.50381 54.6125 228.34756L54.6125 229.75381ZM53.51875 228.26944Q53.51875 226.89444 53.128124 226.26944Q52.753124 225.62881 51.909374 225.62881Q51.08125 225.62881 50.690624 226.26944Q50.315624 226.89444 50.315624 228.19131L50.315624 229.92569Q50.315624 231.30069 50.70625 231.97256Q51.1125 232.62881 51.925 232.62881Q52.721874 232.62881 53.1125 232.00381Q53.503124 231.37881 53.51875 230.05069L53.51875 228.26944ZM61.6125 229.75381Q61.6125 231.66006 60.95625 232.59756Q60.315624 233.51944 58.925 233.51944Q57.565624 233.51944 56.909374 232.61319Q56.253124 231.70694 56.221874 229.89444L56.221874 228.45694Q56.221874 226.56631 56.8625 225.66006Q57.51875 224.73819 58.909374 224.73819Q60.284374 224.73819 60.940624 225.62881Q61.596874 226.50381 61.6125 228.34756L61.6125 229.75381ZM60.51875 228.26944Q60.51875 226.89444 60.128124 226.26944Q59.753124 225.62881 58.909374 225.62881Q58.08125 225.62881 57.690624 226.26944Q57.315624 226.89444 57.315624 228.19131L57.315624 229.92569Q57.315624 231.30069 57.70625 231.97256Q58.1125 232.62881 58.925 232.62881Q59.721874 232.62881 60.1125 232.00381Q60.503124 231.37881 60.51875 230.05069L60.51875 228.26944ZM63.33125 235.09756L62.721874 234.67569Q63.26875 233.91006 63.3 233.08194L63.3 232.11319L64.3625 232.11319L64.3625 232.95694Q64.3625 233.55069 64.06563 234.14444Q63.76875 234.73819 63.33125 235.09756ZM70.6125 229.75381Q70.6125 231.66006 69.95625 232.59756Q69.31563 233.51944 67.925 233.51944Q66.56563 233.51944 65.90938 232.61319Q65.25313 231.70694 65.22188 229.89444L65.22188 228.45694Q65.22188 226.56631 65.8625 225.66006Q66.51875 224.73819 67.90938 224.73819Q69.28438 224.73819 69.94063 225.62881Q70.59688 226.50381 70.6125 228.34756L70.6125 229.75381ZM69.51875 228.26944Q69.51875 226.89444 69.12813 226.26944Q68.75313 225.62881 67.90938 225.62881Q67.08125 225.62881 66.69063 226.26944Q66.31563 226.89444 66.31563 228.19131L66.31563 229.92569Q66.31563 231.30069 66.70625 231.97256Q67.1125 232.62881 67.925 232.62881Q68.72188 232.62881 69.1125 232.00381Q69.50313 231.37881 69.51875 230.05069L69.51875 228.26944ZM77.6125 229.75381Q77.6125 231.66006 76.95625 232.59756Q76.31563 233.51944 74.925 233.51944Q73.56563 233.51944 72.90938 232.61319Q72.25313 231.70694 72.22188 229.89444L72.22188 228.45694Q72.22188 226.56631 72.8625 225.66006Q73.51875 224.73819 74.90938 224.73819Q76.28438 224.73819 76.94063 225.62881Q77.59688 226.50381 77.6125 228.34756L77.6125 229.75381ZM76.51875 228.26944Q76.51875 226.89444 76.12813 226.26944Q75.75313 225.62881 74.90938 225.62881Q74.08125 225.62881 73.69063 226.26944Q73.31563 226.89444 73.31563 228.19131L73.31563 229.92569Q73.31563 231.30069 73.70625 231.97256Q74.1125 232.62881 74.925 232.62881Q75.72188 232.62881 76.1125 232.00381Q76.50313 231.37881 76.51875 230.05069L76.51875 228.26944ZM84.6125 229.75381Q84.6125 231.66006 83.95625 232.59756Q83.31563 233.51944 81.925 233.51944Q80.56563 233.51944 79.90938 232.61319Q79.25313 231.70694 79.22188 229.89444L79.22188 228.45694Q79.22188 226.56631 79.8625 225.66006Q80.51875 224.73819 81.90938 224.73819Q83.28438 224.73819 83.94063 225.62881Q84.59688 226.50381 84.6125 228.34756L84.6125 229.75381ZM83.51875 228.26944Q83.51875 226.89444 83.12813 226.26944Q82.75313 225.62881 81.90938 225.62881Q81.08125 225.62881 80.69063 226.26944Q80.31563 226.89444 80.31563 228.19131L80.31563 229.92569Q80.31563 231.30069 80.70625 231.97256Q81.1125 232.62881 81.925 232.62881Q82.72188 232.62881 83.1125 232.00381Q83.50313 231.37881 83.51875 230.05069L83.51875 228.26944Z" fill-rule="nonzero"/><path fill="#757575" d="M23.83125 160.9795L25.01875 160.9795L25.01875 161.8545L23.83125 161.8545L23.83125 163.83888L22.753124 163.83888L22.753124 161.8545L18.8625 161.8545L18.8625 161.21388L22.675 155.30763L23.83125 155.30763L23.83125 160.9795ZM20.096874 160.9795L22.753124 160.9795L22.753124 156.792L22.6125 157.02638L20.096874 160.9795ZM31.6125 160.19826Q31.6125 162.1045 30.95625 163.042Q30.315624 163.96388 28.925 163.96388Q27.565624 163.96388 26.909374 163.05763Q26.253124 162.15138 26.221874 160.33888L26.221874 158.90138Q26.221874 157.01076 26.8625 156.1045Q27.51875 155.18263 28.909374 155.18263Q30.284374 155.18263 30.940624 156.07326Q31.596874 156.94826 31.6125 158.792L31.6125 160.19826ZM30.51875 158.71388Q30.51875 157.33888 30.128124 156.71388Q29.753124 156.07326 28.909374 156.07326Q28.08125 156.07326 27.690624 156.71388Q27.315624 157.33888 27.315624 158.63576L27.315624 160.37013Q27.315624 161.74513 27.70625 162.417Q28.1125 163.07326 28.925 163.07326Q29.721874 163.07326 30.1125 162.44826Q30.503124 161.82326 30.51875 160.49513L30.51875 158.71388ZM38.6125 160.19826Q38.6125 162.1045 37.95625 163.042Q37.315624 163.96388 35.925 163.96388Q34.565624 163.96388 33.909374 163.05763Q33.253124 162.15138 33.221874 160.33888L33.221874 158.90138Q33.221874 157.01076 33.8625 156.1045Q34.51875 155.18263 35.909374 155.18263Q37.284374 155.18263 37.940624 156.07326Q38.596874 156.94826 38.6125 158.792L38.6125 160.19826ZM37.51875 158.71388Q37.51875 157.33888 37.128124 156.71388Q36.753124 156.07326 35.909374 156.07326Q35.08125 156.07326 34.690624 156.71388Q34.315624 157.33888 34.315624 158.63576L34.315624 160.37013Q34.315624 161.74513 34.70625 162.417Q35.1125 163.07326 35.925 163.07326Q36.721874 163.07326 37.1125 162.44826Q37.503124 161.82326 37.51875 160.49513L37.51875 158.71388ZM40.33125 165.542L39.721874 165.12013Q40.26875 164.3545 40.3 163.52638L40.3 162.55763L41.3625 162.55763L41.3625 163.40138Q41.3625 163.99513 41.065624 164.58888Q40.76875 165.18263 40.33125 165.542ZM47.6125 160.19826Q47.6125 162.1045 46.95625 163.042Q46.315624 163.96388 44.925 163.96388Q43.565624 163.96388 42.909374 163.05763Q42.253124 162.15138 42.221874 160.33888L42.221874 158.90138Q42.221874 157.01076 42.8625 156.1045Q43.51875 155.18263 44.909374 155.18263Q46.284374 155.18263 46.940624 156.07326Q47.596874 156.94826 47.6125 158.792L47.6125 160.19826ZM46.51875 158.71388Q46.51875 157.33888 46.128124 156.71388Q45.753124 156.07326 44.909374 156.07326Q44.08125 156.07326 43.690624 156.71388Q43.315624 157.33888 43.315624 158.63576L43.315624 160.37013Q43.315624 161.74513 43.70625 162.417Q44.1125 163.07326 44.925 163.07326Q45.721874 163.07326 46.1125 162.44826Q46.503124 161.82326 46.51875 160.49513L46.51875 158.71388ZM54.6125 160.19826Q54.6125 162.1045 53.95625 163.042Q53.315624 163.96388 51.925 163.96388Q50.565624 163.96388 49.909374 163.05763Q49.253124 162.15138 49.221874 160.33888L49.221874 158.90138Q49.221874 157.01076 49.8625 156.1045Q50.51875 155.18263 51.909374 155.18263Q53.284374 155.18263 53.940624 156.07326Q54.596874 156.94826 54.6125 158.792L54.6125 160.19826ZM53.51875 158.71388Q53.51875 157.33888 53.128124 156.71388Q52.753124 156.07326 51.909374 156.07326Q51.08125 156.07326 50.690624 156.71388Q50.315624 157.33888 50.315624 158.63576L50.315624 160.37013Q50.315624 161.74513 50.70625 162.417Q51.1125 163.07326 51.925 163.07326Q52.721874 163.07326 53.1125 162.44826Q53.503124 161.82326 53.51875 160.49513L53.51875 158.71388ZM61.6125 160.19826Q61.6125 162.1045 60.95625 163.042Q60.315624 163.96388 58.925 163.96388Q57.565624 163.96388 56.909374 163.05763Q56.253124 162.15138 56.221874 160.33888L56.221874 158.90138Q56.221874 157.01076 56.8625 156.1045Q57.51875 155.18263 58.909374 155.18263Q60.284374 155.18263 60.940624 156.07326Q61.596874 156.94826 61.6125 158.792L61.6125 160.19826ZM60.51875 158.71388Q60.51875 157.33888 60.128124 156.71388Q59.753124 156.07326 58.909374 156.07326Q58.08125 156.07326 57.690624 156.71388Q57.315624 157.33888 57.315624 158.63576L57.315624 160.37013Q57.315624 161.74513 57.70625 162.417Q58.1125 163.07326 58.925 163.07326Q59.721874 163.07326 60.1125 162.44826Q60.503124 161.82326 60.51875 160.49513L60.51875 158.71388ZM63.33125 165.542L62.721874 165.12013Q63.26875 164.3545 63.3 163.52638L63.3 162.55763L64.3625 162.55763L64.3625 163.40138Q64.3625 163.99513 64.06563 164.58888Q63.76875 165.18263 63.33125 165.542ZM70.6125 160.19826Q70.6125 162.1045 69.95625 163.042Q69.31563 163.96388 67.925 163.96388Q66.56563 163.96388 65.90938 163.05763Q65.25313 162.15138 65.22188 160.33888L65.22188 158.90138Q65.22188 157.01076 65.8625 156.1045Q66.51875 155.18263 67.90938 155.18263Q69.28438 155.18263 69.94063 156.07326Q70.59688 156.94826 70.6125 158.792L70.6125 160.19826ZM69.51875 158.71388Q69.51875 157.33888 69.12813 156.71388Q68.75313 156.07326 67.90938 156.07326Q67.08125 156.07326 66.69063 156.71388Q66.31563 157.33888 66.31563 158.63576L66.31563 160.37013Q66.31563 161.74513 66.70625 162.417Q67.1125 163.07326 67.925 163.07326Q68.72188 163.07326 69.1125 162.44826Q69.50313 161.82326 69.51875 160.49513L69.51875 158.71388ZM77.6125 160.19826Q77.6125 162.1045 76.95625 163.042Q76.31563 163.96388 74.925 163.96388Q73.56563 163.96388 72.90938 163.05763Q72.25313 162.15138 72.22188 160.33888L72.22188 158.90138Q72.22188 157.01076 72.8625 156.1045Q73.51875 155.18263 74.90938 155.18263Q76.28438 155.18263 76.94063 156.07326Q77.59688 156.94826 77.6125 158.792L77.6125 160.19826ZM76.51875 158.71388Q76.51875 157.33888 76.12813 156.71388Q75.75313 156.07326 74.90938 156.07326Q74.08125 156.07326 73.69063 156.71388Q73.31563 157.33888 73.31563 158.63576L73.31563 160.37013Q73.31563 161.74513 73.70625 162.417Q74.1125 163.07326 74.925 163.07326Q75.72188 163.07326 76.1125 162.44826Q76.50313 161.82326 76.51875 160.49513L76.51875 158.71388ZM84.6125 160.19826Q84.6125 162.1045 83.95625 163.042Q83.31563 163.96388 81.925 163.96388Q80.56563 163.96388 79.90938 163.05763Q79.25313 162.15138 79.22188 160.33888L79.22188 158.90138Q79.22188 157.01076 79.8625 156.1045Q80.51875 155.18263 81.90938 155.18263Q83.28438 155.18263 83.94063 156.07326Q84.59688 156.94826 84.6125 158.792L84.6125 160.19826ZM83.51875 158.71388Q83.51875 157.33888 83.12813 156.71388Q82.75313 156.07326 81.90938 156.07326Q81.08125 156.07326 80.69063 156.71388Q80.31563 157.33888 80.31563 158.63576L80.31563 160.37013Q80.31563 161.74513 80.70625 162.417Q81.1125 163.07326 81.925 163.07326Q82.72188 163.07326 83.1125 162.44826Q83.50313 161.82326 83.51875 160.49513L83.51875 158.71388Z" fill-rule="nonzero"/><path fill="#757575" d="M23.51875 85.75208L23.51875 86.65833L23.315624 86.65833Q22.05 86.68958 21.3 87.42396Q20.55 88.14271 20.425 89.45521Q21.1125 88.68958 22.26875 88.68958Q23.378124 88.68958 24.05 89.47083Q24.721874 90.25208 24.721874 91.50208Q24.721874 92.81458 24.003124 93.61146Q23.284374 94.40833 22.065624 94.40833Q20.846874 94.40833 20.08125 93.47083Q19.33125 92.51771 19.33125 91.03333L19.33125 90.62708Q19.33125 88.26771 20.33125 87.01771Q21.33125 85.76771 23.315624 85.75208L23.51875 85.75208ZM22.096874 89.59583Q21.534374 89.59583 21.065624 89.92396Q20.596874 90.25208 20.409374 90.76771L20.409374 91.15833Q20.409374 92.22083 20.878124 92.86146Q21.3625 93.50208 22.065624 93.50208Q22.8 93.50208 23.221874 92.97083Q23.64375 92.42396 23.64375 91.54896Q23.64375 90.67396 23.221874 90.14271Q22.8 89.59583 22.096874 89.59583ZM31.6125 90.64271Q31.6125 92.54896 30.95625 93.48646Q30.315624 94.40833 28.925 94.40833Q27.565624 94.40833 26.909374 93.50208Q26.253124 92.59583 26.221874 90.78333L26.221874 89.34583Q26.221874 87.45521 26.8625 86.54896Q27.51875 85.62708 28.909374 85.62708Q30.284374 85.62708 30.940624 86.51771Q31.596874 87.39271 31.6125 89.23646L31.6125 90.64271ZM30.51875 89.15833Q30.51875 87.78333 30.128124 87.15833Q29.753124 86.51771 28.909374 86.51771Q28.08125 86.51771 27.690624 87.15833Q27.315624 87.78333 27.315624 89.08021L27.315624 90.81458Q27.315624 92.18958 27.70625 92.86146Q28.1125 93.51771 28.925 93.51771Q29.721874 93.51771 30.1125 92.89271Q30.503124 92.26771 30.51875 90.93958L30.51875 89.15833ZM38.6125 90.64271Q38.6125 92.54896 37.95625 93.48646Q37.315624 94.40833 35.925 94.40833Q34.565624 94.40833 33.909374 93.50208Q33.253124 92.59583 33.221874 90.78333L33.221874 89.34583Q33.221874 87.45521 33.8625 86.54896Q34.51875 85.62708 35.909374 85.62708Q37.284374 85.62708 37.940624 86.51771Q38.596874 87.39271 38.6125 89.23646L38.6125 90.64271ZM37.51875 89.15833Q37.51875 87.78333 37.128124 87.15833Q36.753124 86.51771 35.909374 86.51771Q35.08125 86.51771 34.690624 87.15833Q34.315624 87.78333 34.315624 89.08021L34.315624 90.81458Q34.315624 92.18958 34.70625 92.86146Q35.1125 93.51771 35.925 93.51771Q36.721874 93.51771 37.1125 92.89271Q37.503124 92.26771 37.51875 90.93958L37.51875 89.15833ZM40.33125 95.98646L39.721874 95.56458Q40.26875 94.79896 40.3 93.97083L40.3 93.00208L41.3625 93.00208L41.3625 93.84583Q41.3625 94.43958 41.065624 95.03333Q40.76875 95.62708 40.33125 95.98646ZM47.6125 90.64271Q47.6125 92.54896 46.95625 93.48646Q46.315624 94.40833 44.925 94.40833Q43.565624 94.40833 42.909374 93.50208Q42.253124 92.59583 42.221874 90.78333L42.221874 89.34583Q42.221874 87.45521 42.8625 86.54896Q43.51875 85.62708 44.909374 85.62708Q46.284374 85.62708 46.940624 86.51771Q47.596874 87.39271 47.6125 89.23646L47.6125 90.64271ZM46.51875 89.15833Q46.51875 87.78333 46.128124 87.15833Q45.753124 86.51771 44.909374 86.51771Q44.08125 86.51771 43.690624 87.15833Q43.315624 87.78333 43.315624 89.08021L43.315624 90.81458Q43.315624 92.18958 43.70625 92.86146Q44.1125 93.51771 44.925 93.51771Q45.721874 93.51771 46.1125 92.89271Q46.503124 92.26771 46.51875 90.93958L46.51875 89.15833ZM54.6125 90.64271Q54.6125 92.54896 53.95625 93.48646Q53.315624 94.40833 51.925 94.40833Q50.565624 94.40833 49.909374 93.50208Q49.253124 92.59583 49.221874 90.78333L49.221874 89.34583Q49.221874 87.45521 49.8625 86.54896Q50.51875 85.62708 51.909374 85.62708Q53.284374 85.62708 53.940624 86.51771Q54.596874 87.39271 54.6125 89.23646L54.6125 90.64271ZM53.51875 89.15833Q53.51875 87.78333 53.128124 87.15833Q52.753124 86.51771 51.909374 86.51771Q51.08125 86.51771 50.690624 87.15833Q50.315624 87.78333 50.315624 89.08021L50.315624 90.81458Q50.315624 92.18958 50.70625 92.86146Q51.1125 93.51771 51.925 93.51771Q52.721874 93.51771 53.1125 92.89271Q53.503124 92.26771 53.51875 90.93958L53.51875 89.15833ZM61.6125 90.64271Q61.6125 92.54896 60.95625 93.48646Q60.315624 94.40833 58.925 94.40833Q57.565624 94.40833 56.909374 93.50208Q56.253124 92.59583 56.221874 90.78333L56.221874 89.34583Q56.221874 87.45521 56.8625 86.54896Q57.51875 85.62708 58.909374 85.62708Q60.284374 85.62708 60.940624 86.51771Q61.596874 87.39271 61.6125 89.23646L61.6125 90.64271ZM60.51875 89.15833Q60.51875 87.78333 60.128124 87.15833Q59.753124 86.51771 58.909374 86.51771Q58.08125 86.51771 57.690624 87.15833Q57.315624 87.78333 57.315624 89.08021L57.315624 90.81458Q57.315624 92.18958 57.70625 92.86146Q58.1125 93.51771 58.925 93.51771Q59.721874 93.51771 60.1125 92.89271Q60.503124 92.26771 60.51875 90.93958L60.51875 89.15833ZM63.33125 95.98646L62.721874 95.56458Q63.26875 94.79896 63.3 93.97083L63.3 93.00208L64.3625 93.00208L64.3625 93.84583Q64.3625 94.43958 64.06563 95.03333Q63.76875 95.62708 63.33125 95.98646ZM70.6125 90.64271Q70.6125 92.54896 69.95625 93.48646Q69.31563 94.40833 67.925 94.40833Q66.56563 94.40833 65.90938 93.50208Q65.25313 92.59583 65.22188 90.78333L65.22188 89.34583Q65.22188 87.45521 65.8625 86.54896Q66.51875 85.62708 67.90938 85.62708Q69.28438 85.62708 69.94063 86.51771Q70.59688 87.39271 70.6125 89.23646L70.6125 90.64271ZM69.51875 89.15833Q69.51875 87.78333 69.12813 87.15833Q68.75313 86.51771 67.90938 86.51771Q67.08125 86.51771 66.69063 87.15833Q66.31563 87.78333 66.31563 89.08021L66.31563 90.81458Q66.31563 92.18958 66.70625 92.86146Q67.1125 93.51771 67.925 93.51771Q68.72188 93.51771 69.1125 92.89271Q69.50313 92.26771 69.51875 90.93958L69.51875 89.15833ZM77.6125 90.64271Q77.6125 92.54896 76.95625 93.48646Q76.31563 94.40833 74.925 94.40833Q73.56563 94.40833 72.90938 93.50208Q72.25313 92.59583 72.22188 90.78333L72.22188 89.34583Q72.22188 87.45521 72.8625 86.54896Q73.51875 85.62708 74.90938 85.62708Q76.28438 85.62708 76.94063 86.51771Q77.59688 87.39271 77.6125 89.23646L77.6125 90.64271ZM76.51875 89.15833Q76.51875 87.78333 76.12813 87.15833Q75.75313 86.51771 74.90938 86.51771Q74.08125 86.51771 73.69063 87.15833Q73.31563 87.78333 73.31563 89.08021L73.31563 90.81458Q73.31563 92.18958 73.70625 92.86146Q74.1125 93.51771 74.925 93.51771Q75.72188 93.51771 76.1125 92.89271Q76.50313 92.26771 76.51875 90.93958L76.51875 89.15833ZM84.6125 90.64271Q84.6125 92.54896 83.95625 93.48646Q83.31563 94.40833 81.925 94.40833Q80.56563 94.40833 79.90938 93.50208Q79.25313 92.59583 79.22188 90.78333L79.22188 89.34583Q79.22188 87.45521 79.8625 86.54896Q80.51875 85.62708 81.90938 85.62708Q83.28438 85.62708 83.94063 86.51771Q84.59688 87.39271 84.6125 89.23646L84.6125 90.64271ZM83.51875 89.15833Q83.51875 87.78333 83.12813 87.15833Q82.75313 86.51771 81.90938 86.51771Q81.08125 86.51771 80.69063 87.15833Q80.31563 87.78333 80.31563 89.08021L80.31563 90.81458Q80.31563 92.18958 80.70625 92.86146Q81.1125 93.51771 81.925 93.51771Q82.72188 93.51771 83.1125 92.89271Q83.50313 92.26771 83.51875 90.93958L83.51875 89.15833Z" fill-rule="nonzero"/><path fill="#757575" d="M175.26857 316.45L174.19044 316.45L174.19044 309.23126L172.00294 310.02814L172.00294 309.04376L175.11232 307.8719L175.26857 307.8719L175.26857 316.45ZM184.06544 312.8094Q184.06544 314.71564 183.4092 315.65314Q182.76857 316.575 181.37794 316.575Q180.01857 316.575 179.36232 315.66876Q178.70607 314.7625 178.67482 312.95L178.67482 311.5125Q178.67482 309.6219 179.31544 308.71564Q179.9717 307.79376 181.36232 307.79376Q182.73732 307.79376 183.39357 308.6844Q184.04982 309.5594 184.06544 311.40314L184.06544 312.8094ZM182.9717 311.325Q182.9717 309.95 182.58107 309.325Q182.20607 308.6844 181.36232 308.6844Q180.5342 308.6844 180.14357 309.325Q179.76857 309.95 179.76857 311.2469L179.76857 312.98126Q179.76857 314.35626 180.1592 315.02814Q180.56544 315.6844 181.37794 315.6844Q182.17482 315.6844 182.56544 315.0594Q182.95607 314.4344 182.9717 313.10626L182.9717 311.325Z" fill-rule="nonzero"/><path fill="#757575" d="M273.35864 316.45L267.7649 316.45L267.7649 315.66876L270.71802 312.3875Q271.37427 311.6375 271.62427 311.1844Q271.87427 310.71564 271.87427 310.21564Q271.87427 309.54376 271.46802 309.1219Q271.0774 308.6844 270.3899 308.6844Q269.59302 308.6844 269.1399 309.15314Q268.68677 309.60626 268.68677 310.4344L267.60864 310.4344Q267.60864 309.2469 268.35864 308.52814Q269.12427 307.79376 270.3899 307.79376Q271.59302 307.79376 272.28052 308.41876Q272.96802 309.04376 272.96802 310.09064Q272.96802 311.34064 271.35864 313.09064L269.0774 315.5594L273.35864 315.5594L273.35864 316.45ZM280.12427 312.8094Q280.12427 314.71564 279.46802 315.65314Q278.8274 316.575 277.43677 316.575Q276.0774 316.575 275.42114 315.66876Q274.7649 314.7625 274.73364 312.95L274.73364 311.5125Q274.73364 309.6219 275.37427 308.71564Q276.03052 307.79376 277.42114 307.79376Q278.79614 307.79376 279.4524 308.6844Q280.10864 309.5594 280.12427 311.40314L280.12427 312.8094ZM279.03052 311.325Q279.03052 309.95 278.6399 309.325Q278.2649 308.6844 277.42114 308.6844Q276.59302 308.6844 276.2024 309.325Q275.8274 309.95 275.8274 311.2469L275.8274 312.98126Q275.8274 314.35626 276.21802 315.02814Q276.62427 315.6844 277.43677 315.6844Q278.23364 315.6844 278.62427 315.0594Q279.0149 314.4344 279.03052 313.10626L279.03052 311.325Z" fill-rule="nonzero"/><path fill="#757575" d="M365.40182 311.65314L366.21432 311.65314Q366.99557 311.6375 367.43307 311.2469Q367.87057 310.85626 367.87057 310.1844Q367.87057 308.6844 366.37057 308.6844Q365.66745 308.6844 365.24557 309.09064Q364.83932 309.4969 364.83932 310.15314L363.74557 310.15314Q363.74557 309.1375 364.47995 308.46564Q365.22995 307.79376 366.37057 307.79376Q367.5737 307.79376 368.2612 308.4344Q368.9487 309.075 368.9487 310.21564Q368.9487 310.77814 368.58932 311.29376Q368.22995 311.8094 367.60495 312.075Q368.30807 312.29376 368.68307 312.8094Q369.0737 313.325 369.0737 314.075Q369.0737 315.21564 368.3237 315.90314Q367.5737 316.575 366.37057 316.575Q365.18307 316.575 364.41745 315.91876Q363.66745 315.2625 363.66745 314.2L364.7612 314.2Q364.7612 314.8719 365.1987 315.27814Q365.6362 315.6844 366.3862 315.6844Q367.16745 315.6844 367.5737 315.27814Q367.99557 314.85626 367.99557 314.09064Q367.99557 313.35626 367.54245 312.96564Q367.08932 312.5594 366.21432 312.54376L365.40182 312.54376L365.40182 311.65314ZM376.18307 312.8094Q376.18307 314.71564 375.52682 315.65314Q374.8862 316.575 373.49557 316.575Q372.1362 316.575 371.47995 315.66876Q370.8237 314.7625 370.79245 312.95L370.79245 311.5125Q370.79245 309.6219 371.43307 308.71564Q372.08932 307.79376 373.47995 307.79376Q374.85495 307.79376 375.5112 308.6844Q376.16745 309.5594 376.18307 311.40314L376.18307 312.8094ZM375.08932 311.325Q375.08932 309.95 374.6987 309.325Q374.3237 308.6844 373.47995 308.6844Q372.65182 308.6844 372.2612 309.325Q371.8862 309.95 371.8862 311.2469L371.8862 312.98126Q371.8862 314.35626 372.27682 315.02814Q372.68307 315.6844 373.49557 315.6844Q374.29245 315.6844 374.68307 315.0594Q375.0737 314.4344 375.08932 313.10626L375.08932 311.325Z" fill-rule="nonzero"/><path fill="#757575" d="M464.46066 313.59064L465.64816 313.59064L465.64816 314.46564L464.46066 314.46564L464.46066 316.45L463.38254 316.45L463.38254 314.46564L459.4919 314.46564L459.4919 313.825L463.3044 307.91876L464.46066 307.91876L464.46066 313.59064ZM460.7263 313.59064L463.38254 313.59064L463.38254 309.40314L463.2419 309.6375L460.7263 313.59064ZM472.2419 312.8094Q472.2419 314.71564 471.58566 315.65314Q470.94504 316.575 469.5544 316.575Q468.19504 316.575 467.5388 315.66876Q466.88254 314.7625 466.8513 312.95L466.8513 311.5125Q466.8513 309.6219 467.4919 308.71564Q468.14816 307.79376 469.5388 307.79376Q470.9138 307.79376 471.57004 308.6844Q472.2263 309.5594 472.2419 311.40314L472.2419 312.8094ZM471.14816 311.325Q471.14816 309.95 470.75754 309.325Q470.38254 308.6844 469.5388 308.6844Q468.71066 308.6844 468.32004 309.325Q467.94504 309.95 467.94504 311.2469L467.94504 312.98126Q467.94504 314.35626 468.33566 315.02814Q468.7419 315.6844 469.5544 315.6844Q470.3513 315.6844 470.7419 315.0594Q471.13254 314.4344 471.14816 313.10626L471.14816 311.325Z" fill-rule="nonzero"/><path fill="#757575" d="M556.44135 312.16876L556.87885 307.91876L561.25385 307.91876L561.25385 308.91876L557.8007 308.91876L557.5351 311.2469Q558.1757 310.8719 558.9726 310.8719Q560.12885 310.8719 560.81635 311.65314Q561.50385 312.41876 561.50385 313.73126Q561.50385 315.04376 560.7851 315.8094Q560.082 316.575 558.8007 316.575Q557.6757 316.575 556.957 315.95Q556.2382 315.3094 556.1445 314.2L557.1601 314.2Q557.2695 314.9344 557.69135 315.3094Q558.1132 315.6844 558.8007 315.6844Q559.5507 315.6844 559.9882 315.16876Q560.4257 314.65314 560.4257 313.7469Q560.4257 312.8875 559.957 312.3719Q559.4882 311.85626 558.707 311.85626Q558.00385 311.85626 557.5976 312.15314L557.31635 312.3875L556.44135 312.16876ZM568.3007 312.8094Q568.3007 314.71564 567.6445 315.65314Q567.00385 316.575 565.6132 316.575Q564.25385 316.575 563.5976 315.66876Q562.94135 314.7625 562.9101 312.95L562.9101 311.5125Q562.9101 309.6219 563.5507 308.71564Q564.207 307.79376 565.5976 307.79376Q566.9726 307.79376 567.62885 308.6844Q568.2851 309.5594 568.3007 311.40314L568.3007 312.8094ZM567.207 311.325Q567.207 309.95 566.81635 309.325Q566.44135 308.6844 565.5976 308.6844Q564.7695 308.6844 564.37885 309.325Q564.00385 309.95 564.00385 311.2469L564.00385 312.98126Q564.00385 314.35626 564.3945 315.02814Q564.8007 315.6844 565.6132 315.6844Q566.4101 315.6844 566.8007 315.0594Q567.19135 314.4344 567.207 313.10626L567.207 311.325Z" fill-rule="nonzero"/><path stroke="#4285f4" stroke-width="4.0" stroke-linecap="butt" d="M224.0 62.416668L236.0 62.416668" fill-rule="nonzero"/><path fill="#757575" d="M250.17188 63.822914Q250.17188 65.260414 249.51562 66.15104Q248.85938 67.041664 247.71875 67.041664Q246.5625 67.041664 245.90625 66.30729L245.90625 69.354164L244.82812 69.354164L244.82812 60.572914L245.8125 60.572914L245.85938 61.27604Q246.53125 60.46354 247.70312 60.46354Q248.84375 60.46354 249.5 61.322914Q250.17188 62.18229 250.17188 63.71354L250.17188 63.822914ZM249.09375 63.697914Q249.09375 62.61979 248.625 62.010414Q248.17188 61.385414 247.375 61.385414Q246.39062 61.385414 245.90625 62.24479L245.90625 65.27604Q246.39062 66.15104 247.39062 66.15104Q248.17188 66.15104 248.625 65.541664Q249.09375 64.916664 249.09375 63.697914ZM253.89062 65.322914L255.375 60.572914L256.53125 60.572914L253.98438 67.90104Q253.39062 69.479164 252.10938 69.479164L251.89062 69.46354L251.5 69.385414L251.5 68.510414L251.78125 68.52604Q252.34375 68.52604 252.64062 68.30729Q252.95312 68.08854 253.15625 67.49479L253.39062 66.83854L251.125 60.572914L252.3125 60.572914L253.89062 65.322914ZM259.29688 59.041664L259.29688 60.572914L260.46875 60.572914L260.46875 61.416664L259.29688 61.416664L259.29688 65.33854Q259.29688 65.729164 259.45312 65.916664Q259.60938 66.104164 259.98438 66.104164Q260.17188 66.104164 260.5 66.041664L260.5 66.916664Q260.07812 67.041664 259.67188 67.041664Q258.95312 67.041664 258.57812 66.604164Q258.20312 66.15104 258.20312 65.33854L258.20312 61.416664L257.04688 61.416664L257.04688 60.572914L258.20312 60.572914L258.20312 59.041664L259.29688 59.041664ZM262.90625 61.33854Q263.625 60.46354 264.78125 60.46354Q266.79688 60.46354 266.8125 62.729164L266.8125 66.916664L265.71875 66.916664L265.71875 62.71354Q265.71875 62.041664 265.40625 61.71354Q265.10938 61.385414 264.45312 61.385414Q263.92188 61.385414 263.51562 61.666664Q263.125 61.947914 262.90625 62.40104L262.90625 66.916664L261.82812 66.916664L261.82812 57.916664L262.90625 57.916664L262.90625 61.33854ZM268.53125 63.68229Q268.53125 62.760414 268.89062 62.010414Q269.26562 61.260414 269.92188 60.86979Q270.57812 60.46354 271.40625 60.46354Q272.70312 60.46354 273.5 61.354164Q274.3125 62.24479 274.3125 63.74479L274.3125 63.822914Q274.3125 64.74479 273.95312 65.479164Q273.59375 66.21354 272.9375 66.635414Q272.28125 67.041664 271.42188 67.041664Q270.14062 67.041664 269.32812 66.15104Q268.53125 65.24479 268.53125 63.760414L268.53125 63.68229ZM269.625 63.822914Q269.625 64.86979 270.10938 65.510414Q270.60938 66.15104 271.42188 66.15104Q272.25 66.15104 272.73438 65.510414Q273.21875 64.854164 273.21875 63.68229Q273.21875 62.65104 272.71875 62.010414Q272.23438 61.354164 271.40625 61.354164Q270.60938 61.354164 270.10938 61.99479Q269.625 62.61979 269.625 63.822914ZM276.84375 60.572914L276.875 61.36979Q277.60938 60.46354 278.78125 60.46354Q280.79688 60.46354 280.8125 62.729164L280.8125 66.916664L279.71875 66.916664L279.71875 62.71354Q279.71875 62.041664 279.40625 61.71354Q279.10938 61.385414 278.45312 61.385414Q277.92188 61.385414 277.51562 61.666664Q277.125 61.947914 276.90625 62.40104L276.90625 66.916664L275.82812 66.916664L275.82812 60.572914L276.84375 60.572914ZM291.29688 66.916664L285.70312 66.916664L285.70312 66.135414L288.65625 62.854164Q289.3125 62.104164 289.5625 61.65104Q289.8125 61.18229 289.8125 60.68229Q289.8125 60.010414 289.40625 59.58854Q289.01562 59.15104 288.32812 59.15104Q287.53125 59.15104 287.07812 59.61979Q286.625 60.072914 286.625 60.90104L285.54688 60.90104Q285.54688 59.71354 286.29688 58.99479Q287.0625 58.260414 288.32812 58.260414Q289.53125 58.260414 290.21875 58.885414Q290.90625 59.510414 290.90625 60.55729Q290.90625 61.80729 289.29688 63.55729L287.01562 66.02604L291.29688 66.02604L291.29688 66.916664Z" fill-rule="nonzero"/><path stroke="#db4437" stroke-width="4.0" stroke-linecap="butt" d="M308.0 62.416668L320.0 62.416668" fill-rule="nonzero"/><path fill="#757575" d="M334.17188 63.822914Q334.17188 65.260414 333.51562 66.15104Q332.85938 67.041664 331.71875 67.041664Q330.5625 67.041664 329.90625 66.30729L329.90625 69.354164L328.82812 69.354164L328.82812 60.572914L329.8125 60.572914L329.85938 61.27604Q330.53125 60.46354 331.70312 60.46354Q332.84375 60.46354 333.5 61.322914Q334.17188 62.18229 334.17188 63.71354L334.17188 63.822914ZM333.09375 63.697914Q333.09375 62.61979 332.625 62.010414Q332.17188 61.385414 331.375 61.385414Q330.39062 61.385414 329.90625 62.24479L329.90625 65.27604Q330.39062 66.15104 331.39062 66.15104Q332.17188 66.15104 332.625 65.541664Q333.09375 64.916664 333.09375 63.697914ZM337.89062 65.322914L339.375 60.572914L340.53125 60.572914L337.98438 67.90104Q337.39062 69.479164 336.10938 69.479164L335.89062 69.46354L335.5 69.385414L335.5 68.510414L335.78125 68.52604Q336.34375 68.52604 336.64062 68.30729Q336.95312 68.08854 337.15625 67.49479L337.39062 66.83854L335.125 60.572914L336.3125 60.572914L337.89062 65.322914ZM343.29688 59.041664L343.29688 60.572914L344.46875 60.572914L344.46875 61.416664L343.29688 61.416664L343.29688 65.33854Q343.29688 65.729164 343.45312 65.916664Q343.60938 66.104164 343.98438 66.104164Q344.17188 66.104164 344.5 66.041664L344.5 66.916664Q344.07812 67.041664 343.67188 67.041664Q342.95312 67.041664 342.57812 66.604164Q342.20312 66.15104 342.20312 65.33854L342.20312 61.416664L341.04688 61.416664L341.04688 60.572914L342.20312 60.572914L342.20312 59.041664L343.29688 59.041664ZM346.90625 61.33854Q347.625 60.46354 348.78125 60.46354Q350.79688 60.46354 350.8125 62.729164L350.8125 66.916664L349.71875 66.916664L349.71875 62.71354Q349.71875 62.041664 349.40625 61.71354Q349.10938 61.385414 348.45312 61.385414Q347.92188 61.385414 347.51562 61.666664Q347.125 61.947914 346.90625 62.40104L346.90625 66.916664L345.82812 66.916664L345.82812 57.916664L346.90625 57.916664L346.90625 61.33854ZM352.53125 63.68229Q352.53125 62.760414 352.89062 62.010414Q353.26562 61.260414 353.92188 60.86979Q354.57812 60.46354 355.40625 60.46354Q356.70312 60.46354 357.5 61.354164Q358.3125 62.24479 358.3125 63.74479L358.3125 63.822914Q358.3125 64.74479 357.95312 65.479164Q357.59375 66.21354 356.9375 66.635414Q356.28125 67.041664 355.42188 67.041664Q354.14062 67.041664 353.32812 66.15104Q352.53125 65.24479 352.53125 63.760414L352.53125 63.68229ZM353.625 63.822914Q353.625 64.86979 354.10938 65.510414Q354.60938 66.15104 355.42188 66.15104Q356.25 66.15104 356.73438 65.510414Q357.21875 64.854164 357.21875 63.68229Q357.21875 62.65104 356.71875 62.010414Q356.23438 61.354164 355.40625 61.354164Q354.60938 61.354164 354.10938 61.99479Q353.625 62.61979 353.625 63.822914ZM360.84375 60.572914L360.875 61.36979Q361.60938 60.46354 362.78125 60.46354Q364.79688 60.46354 364.8125 62.729164L364.8125 66.916664L363.71875 66.916664L363.71875 62.71354Q363.71875 62.041664 363.40625 61.71354Q363.10938 61.385414 362.45312 61.385414Q361.92188 61.385414 361.51562 61.666664Q361.125 61.947914 360.90625 62.40104L360.90625 66.916664L359.82812 66.916664L359.82812 60.572914L360.84375 60.572914ZM371.28125 62.11979L372.09375 62.11979Q372.875 62.104164 373.3125 61.71354Q373.75 61.322914 373.75 60.65104Q373.75 59.15104 372.25 59.15104Q371.54688 59.15104 371.125 59.55729Q370.71875 59.96354 370.71875 60.61979L369.625 60.61979Q369.625 59.604164 370.35938 58.93229Q371.10938 58.260414 372.25 58.260414Q373.45312 58.260414 374.14062 58.90104Q374.82812 59.541664 374.82812 60.68229Q374.82812 61.24479 374.46875 61.760414Q374.10938 62.27604 373.48438 62.541664Q374.1875 62.760414 374.5625 63.27604Q374.95312 63.791664 374.95312 64.541664Q374.95312 65.68229 374.20312 66.36979Q373.45312 67.041664 372.25 67.041664Q371.0625 67.041664 370.29688 66.385414Q369.54688 65.729164 369.54688 64.666664L370.64062 64.666664Q370.64062 65.33854 371.07812 65.74479Q371.51562 66.15104 372.26562 66.15104Q373.04688 66.15104 373.45312 65.74479Q373.875 65.322914 373.875 64.55729Q373.875 63.822914 373.42188 63.43229Q372.96875 63.02604 372.09375 63.010414L371.28125 63.010414L371.28125 62.11979Z" fill-rule="nonzero"/><path fill="#757575" d="M28.2375 30.971874L22.08125 30.971874L22.08125 36.01875L29.2375 36.01875L29.2375 37.55L20.20625 37.55L20.20625 23.33125L29.14375 23.33125L29.14375 24.878124L22.08125 24.878124L22.08125 29.440624L28.2375 29.440624L28.2375 30.971874ZM34.409374 35.096874L37.01875 26.9875L38.8625 26.9875L35.08125 37.55L33.70625 37.55L29.878124 26.9875L31.721874 26.9875L34.409374 35.096874ZM40.440624 32.175Q40.440624 30.6125 41.05 29.378124Q41.659374 28.128124 42.7375 27.45625Q43.83125 26.784374 45.2375 26.784374Q47.39375 26.784374 48.721874 28.284374Q50.065624 29.76875 50.065624 32.253124L50.065624 32.378124Q50.065624 33.925 49.471874 35.159374Q48.878124 36.378124 47.76875 37.065624Q46.675 37.753124 45.253124 37.753124Q43.1125 37.753124 41.76875 36.253124Q40.440624 34.753124 40.440624 32.3L40.440624 32.175ZM42.253124 32.378124Q42.253124 34.14375 43.065624 35.20625Q43.89375 36.26875 45.253124 36.26875Q46.628124 36.26875 47.440624 35.190624Q48.253124 34.1125 48.253124 32.175Q48.253124 30.425 47.425 29.346874Q46.596874 28.26875 45.2375 28.26875Q43.89375 28.26875 43.065624 29.33125Q42.253124 30.39375 42.253124 32.378124ZM53.878124 37.55L52.08125 37.55L52.08125 22.55L53.878124 22.55L53.878124 37.55ZM63.440624 36.503124Q62.39375 37.753124 60.346874 37.753124Q58.659374 37.753124 57.76875 36.76875Q56.89375 35.784374 56.878124 33.8625L56.878124 26.9875L58.690624 26.9875L58.690624 33.815624Q58.690624 36.20625 60.64375 36.20625Q62.70625 36.20625 63.39375 34.675L63.39375 26.9875L65.20625 26.9875L65.20625 37.55L63.4875 37.55L63.440624 36.503124ZM70.3625 24.425L70.3625 26.9875L72.34688 26.9875L72.34688 28.378124L70.3625 28.378124L70.3625 34.925Q70.3625 35.565624 70.62813 35.89375Q70.89375 36.20625 71.53438 36.20625Q71.84688 36.20625 72.39375 36.08125L72.39375 37.55Q71.675 37.753124 71.00313 37.753124Q69.8 37.753124 69.175 37.01875Q68.56563 36.284374 68.56563 34.925L68.56563 28.378124L66.64375 28.378124L66.64375 26.9875L68.56563 26.9875L68.56563 24.425L70.3625 24.425ZM76.87813 37.55L75.08125 37.55L75.08125 26.9875L76.87813 26.9875L76.87813 37.55ZM74.925 24.175Q74.925 23.7375 75.19063 23.440624Q75.47188 23.128124 75.9875 23.128124Q76.51875 23.128124 76.78438 23.440624Q77.06563 23.7375 77.06563 24.175Q77.06563 24.6125 76.78438 24.909374Q76.51875 25.20625 75.9875 25.20625Q75.47188 25.20625 75.19063 24.909374Q74.925 24.6125 74.925 24.175ZM79.44063 32.175Q79.44063 30.6125 80.05 29.378124Q80.65938 28.128124 81.7375 27.45625Q82.83125 26.784374 84.2375 26.784374Q86.39375 26.784374 87.72188 28.284374Q89.06563 29.76875 89.06563 32.253124L89.06563 32.378124Q89.06563 33.925 88.47188 35.159374Q87.87813 36.378124 86.76875 37.065624Q85.675 37.753124 84.25313 37.753124Q82.1125 37.753124 80.76875 36.253124Q79.44063 34.753124 79.44063 32.3L79.44063 32.175ZM81.25313 32.378124Q81.25313 34.14375 82.06563 35.20625Q82.89375 36.26875 84.25313 36.26875Q85.62813 36.26875 86.44063 35.190624Q87.25313 34.1125 87.25313 32.175Q87.25313 30.425 86.425 29.346874Q85.59688 28.26875 84.2375 28.26875Q82.89375 28.26875 82.06563 29.33125Q81.25313 30.39375 81.25313 32.378124ZM92.62813 26.9875L92.69063 28.315624Q93.89375 26.784374 95.84688 26.784374Q99.20625 26.784374 99.22188 30.565624L99.22188 37.55L97.425 37.55L97.425 30.55Q97.40938 29.409374 96.89375 28.8625Q96.39375 28.315624 95.3 28.315624Q94.425 28.315624 93.75313 28.784374Q93.09688 29.253124 92.72188 30.01875L92.72188 37.55L90.925 37.55L90.925 26.9875L92.62813 26.9875ZM106.44063 32.175Q106.44063 30.6125 107.05 29.378124Q107.65938 28.128124 108.7375 27.45625Q109.83125 26.784374 111.2375 26.784374Q113.39375 26.784374 114.72188 28.284374Q116.06563 29.76875 116.06563 32.253124L116.06563 32.378124Q116.06563 33.925 115.47188 35.159374Q114.87813 36.378124 113.76875 37.065624Q112.675 37.753124 111.25313 37.753124Q109.1125 37.753124 107.76875 36.253124Q106.44063 34.753124 106.44063 32.3L106.44063 32.175ZM108.25313 32.378124Q108.25313 34.14375 109.06563 35.20625Q109.89375 36.26875 111.25313 36.26875Q112.62813 36.26875 113.44063 35.190624Q114.25313 34.1125 114.25313 32.175Q114.25313 30.425 113.425 29.346874Q112.59688 28.26875 111.2375 28.26875Q109.89375 28.26875 109.06563 29.33125Q108.25313 30.39375 108.25313 32.378124ZM118.8 37.55L118.8 28.378124L117.14375 28.378124L117.14375 26.9875L118.8 26.9875L118.8 25.89375Q118.8 24.20625 119.70625 23.284374Q120.62813 22.346874 122.28438 22.346874Q122.90938 22.346874 123.51875 22.503124L123.425 23.971874Q122.97188 23.89375 122.45625 23.89375Q121.56563 23.89375 121.08125 24.409374Q120.6125 24.909374 120.6125 25.8625L120.6125 26.9875L122.8625 26.9875L122.8625 28.378124L120.6125 28.378124L120.6125 37.55L118.8 37.55ZM129.47188 32.175Q129.47188 29.753124 130.62813 28.26875Q131.78438 26.784374 133.64375 26.784374Q135.50313 26.784374 136.58125 28.05L136.58125 22.55L138.39375 22.55L138.39375 37.55L136.7375 37.55L136.64375 36.409374Q135.56563 37.753124 133.62813 37.753124Q131.8 37.753124 130.62813 36.253124Q129.47188 34.7375 129.47188 32.315624L129.47188 32.175ZM131.28438 32.378124Q131.28438 34.175 132.01875 35.190624Q132.76875 36.20625 134.08125 36.20625Q135.8 36.20625 136.58125 34.675L136.58125 29.815624Q135.78438 28.315624 134.09688 28.315624Q132.76875 28.315624 132.01875 29.346874Q131.28438 30.378124 131.28438 32.378124ZM140.44063 32.175Q140.44063 30.6125 141.05 29.378124Q141.65938 28.128124 142.7375 27.45625Q143.83125 26.784374 145.2375 26.784374Q147.39375 26.784374 148.72188 28.284374Q150.06563 29.76875 150.06563 32.253124L150.06563 32.378124Q150.06563 33.925 149.47188 35.159374Q148.87813 36.378124 147.76875 37.065624Q146.675 37.753124 145.25313 37.753124Q143.1125 37.753124 141.76875 36.253124Q140.44063 34.753124 140.44063 32.3L140.44063 32.175ZM142.25313 32.378124Q142.25313 34.14375 143.06563 35.20625Q143.89375 36.26875 145.25313 36.26875Q146.62813 36.26875 147.44063 35.190624Q148.25313 34.1125 148.25313 32.175Q148.25313 30.425 147.425 29.346874Q146.59688 28.26875 145.2375 28.26875Q143.89375 28.26875 143.06563 29.33125Q142.25313 30.39375 142.25313 32.378124ZM161.26875 35.065624L163.3 26.9875L165.1125 26.9875L162.03438 37.55L160.56563 37.55L158.00313 29.534374L155.50313 37.55L154.03438 37.55L150.97188 26.9875L152.76875 26.9875L154.84688 34.89375L157.31563 26.9875L158.76875 26.9875L161.26875 35.065624ZM168.62813 26.9875L168.69063 28.315624Q169.89375 26.784374 171.84688 26.784374Q175.20625 26.784374 175.22188 30.565624L175.22188 37.55L173.425 37.55L173.425 30.55Q173.40938 29.409374 172.89375 28.8625Q172.39375 28.315624 171.3 28.315624Q170.425 28.315624 169.75313 28.784374Q169.09688 29.253124 168.72188 30.01875L168.72188 37.55L166.925 37.55L166.925 26.9875L168.62813 26.9875ZM179.87813 37.55L178.08125 37.55L178.08125 22.55L179.87813 22.55L179.87813 37.55ZM182.44063 32.175Q182.44063 30.6125 183.05 29.378124Q183.65938 28.128124 184.7375 27.45625Q185.83125 26.784374 187.2375 26.784374Q189.39375 26.784374 190.72188 28.284374Q192.06563 29.76875 192.06563 32.253124L192.06563 32.378124Q192.06563 33.925 191.47188 35.159374Q190.87813 36.378124 189.76875 37.065624Q188.675 37.753124 187.25313 37.753124Q185.1125 37.753124 183.76875 36.253124Q182.44063 34.753124 182.44063 32.3L182.44063 32.175ZM184.25313 32.378124Q184.25313 34.14375 185.06563 35.20625Q185.89375 36.26875 187.25313 36.26875Q188.62813 36.26875 189.44063 35.190624Q190.25313 34.1125 190.25313 32.175Q190.25313 30.425 189.425 29.346874Q188.59688 28.26875 187.2375 28.26875Q185.89375 28.26875 185.06563 29.33125Q184.25313 30.39375 184.25313 32.378124ZM200.44063 37.55Q200.28438 37.2375 200.19063 36.440624Q198.925 37.753124 197.175 37.753124Q195.6125 37.753124 194.6125 36.8625Q193.6125 35.971874 193.6125 34.6125Q193.6125 32.971874 194.8625 32.065624Q196.12813 31.14375 198.39375 31.14375L200.15938 31.14375L200.15938 30.315624Q200.15938 29.3625 199.58125 28.8Q199.01875 28.2375 197.925 28.2375Q196.95625 28.2375 196.3 28.7375Q195.64375 29.221874 195.64375 29.909374L193.83125 29.909374Q193.83125 29.128124 194.39375 28.39375Q194.95625 27.64375 195.90938 27.221874Q196.87813 26.784374 198.03438 26.784374Q199.8625 26.784374 200.89375 27.70625Q201.925 28.6125 201.97188 30.221874L201.97188 35.08125Q201.97188 36.534374 202.33125 37.39375L202.33125 37.55L200.44063 37.55ZM197.44063 36.175Q198.3 36.175 199.05 35.7375Q199.81563 35.3 200.15938 34.596874L200.15938 32.425L198.7375 32.425Q195.425 32.425 195.425 34.3625Q195.425 35.221874 195.9875 35.70625Q196.55 36.175 197.44063 36.175ZM204.47188 32.175Q204.47188 29.753124 205.62813 28.26875Q206.78438 26.784374 208.64375 26.784374Q210.50313 26.784374 211.58125 28.05L211.58125 22.55L213.39375 22.55L213.39375 37.55L211.7375 37.55L211.64375 36.409374Q210.56563 37.753124 208.62813 37.753124Q206.8 37.753124 205.62813 36.253124Q204.47188 34.7375 204.47188 32.315624L204.47188 32.175ZM206.28438 32.378124Q206.28438 34.175 207.01875 35.190624Q207.76875 36.20625 209.08125 36.20625Q210.8 36.20625 211.58125 34.675L211.58125 29.815624Q210.78438 28.315624 209.09688 28.315624Q207.76875 28.315624 207.01875 29.346874Q206.28438 30.378124 206.28438 32.378124ZM222.06563 34.753124Q222.06563 34.01875 221.51875 33.6125Q220.97188 33.20625 219.59688 32.909374Q218.22188 32.6125 217.40938 32.20625Q216.6125 31.8 216.22188 31.2375Q215.84688 30.659374 215.84688 29.878124Q215.84688 28.58125 216.94063 27.690624Q218.03438 26.784374 219.75313 26.784374Q221.55 26.784374 222.65938 27.721874Q223.78438 28.64375 223.78438 30.08125L221.95625 30.08125Q221.95625 29.346874 221.33125 28.815624Q220.70625 28.26875 219.75313 28.26875Q218.75313 28.26875 218.19063 28.70625Q217.64375 29.128124 217.64375 29.83125Q217.64375 30.471874 218.15938 30.815624Q218.675 31.14375 220.03438 31.45625Q221.39375 31.753124 222.22188 32.175Q223.06563 32.58125 223.47188 33.175Q223.87813 33.76875 223.87813 34.6125Q223.87813 36.034374 222.7375 36.89375Q221.6125 37.753124 219.8 37.753124Q218.53438 37.753124 217.55 37.3Q216.58125 36.846874 216.01875 36.05Q215.47188 35.2375 215.47188 34.3L217.28438 34.3Q217.33125 35.20625 218.00313 35.7375Q218.69063 36.26875 219.8 36.26875Q220.83125 36.26875 221.44063 35.8625Q222.06563 35.440624 222.06563 34.753124Z" fill-rule="nonzero"/></svg>